<?xml version="1.0" encoding="utf-8"?>
<!-- Generator: Adobe Illustrator 19.2.1, SVG Export Plug-In . SVG Version: 6.00 Build 0)  -->
<svg version="1.1" id="Layer_1" xmlns="http://www.w3.org/2000/svg" xmlns:xlink="http://www.w3.org/1999/xlink" x="0px" y="0px"
	 viewBox="0 0 310.6 65.5" style="enable-background:new 0 0 310.6 65.5;" xml:space="preserve">
<style type="text/css">
	.st0{fill:#D8252F;}
	.st1{fill:#1A3660;}
	.st2{fill:#A5A5A5;}
</style>
<g>
	<path class="st0" d="M67,63.3c-2.2,0.5-4.3,1.3-6.4,1.5c-6.3,0.7-11.2-1.8-15.1-6.6c-2.8-3.5-4-7.7-4.1-12.1c0-1.1,0.6-1.8,1.6-1.9
		c1.2-0.1,1.9,0.5,2.1,1.8c0.4,2.6,1.3,4.9,2.8,7c2.7,3.7,6.3,6.1,11.1,6.1c5.2-0.1,9-2.8,11.6-7.1c1.2-1.9,1.9-3.9,2.2-6.1
		c0.2-1.2,0.8-1.7,1.9-1.7c1.1,0,1.7,0.7,1.8,1.9c0,0.2,0,0.3,0,0.6c10-4.2,17.7-1.2,23.6,7.5c0.3-0.2,0.5-0.4,0.6-0.5
		c3.4-5,8.3-7.5,13.9-8.8c2.7-0.6,5.5-1,8.2-0.2c1.7,0.5,3.1,1.3,3.6,3.1c0.5,1.9-0.2,3.5-1.7,4.8c-1.9,1.7-4.2,2.6-6.5,3.3
		c-2.9,1-5.9,1.7-8.8,2.5c-0.3,0.1-0.6,0.1-0.9,0.1c-0.8,0.1-1.3-0.3-1.4-1c-0.2-0.8,0.3-1.2,1-1.5c1.4-0.5,2.8-0.9,4.2-1.4
		c2.3-0.9,4.6-2,6.9-3c0.7-0.3,1.3-0.9,1.9-1.4c0.6-0.6,0.4-1.3-0.4-1.4c-0.9-0.1-1.9-0.1-2.8,0.1c-3.9,1-7.5,2.8-10.7,5.2
		c-0.2,0.1-0.3,0.3-0.5,0.4c-2.4,2.2-2,4.3,1,5.5c3.1,1.3,6.3,1,9.4-0.1c2.6-1,5-2.3,7.5-3.5c0.4-0.2,0.8-0.5,1.3-0.7
		c0.7-0.2,1.4-0.1,1.8,0.6c0.5,0.7,0.1,1.3-0.4,1.7c-5,4-10.5,6.8-17,7c-4.9,0.2-9-2-12.3-5.7c-1.7-1.9-3.1-3.9-5-5.5
		c-5.3-4.6-12.7-4.2-17.7,0.8c-2.5,2.5-4,5.6-4.6,9.1c-0.2,1.4-0.7,1.9-2,1.8c-1.2-0.1-1.6-0.6-1.7-2C67.1,63.4,67,63.3,67,63.3z"/>
	<path class="st1" d="M60.6,25.6c-0.2-3.7,0.8-7.1,3.3-9.8c3.3-3.5,7.3-4.8,12-3.6c4.7,1.2,7.8,4.4,8.9,9.1c1.1,4.5,0.8,8.9-2,12.9
		c-3,4.2-8.4,6.1-13.3,4.7c-5-1.5-8.7-6.2-8.9-11.3C60.6,26.9,60.6,26.3,60.6,25.6z M67,25.6c0,0.6,0,1.1,0.1,1.6
		c0.2,2.9,2.5,5.4,5.3,5.7c2.7,0.3,5.4-1.4,6.2-4.2c0.4-1.5,0.5-3.1,0.4-4.6c-0.2-2.6-1.5-4.5-3.9-5.5c-2.2-0.9-4.2-0.4-5.9,1.1
		C67.3,21.3,66.9,23.4,67,25.6z"/>
	<path class="st1" d="M57.1,19.8c-3.5-2.7-7.2-3.2-11.1-2.2c-3.4,0.9-5.7,4-5.7,7.5c0,2,0,3.9,1.4,5.6c2.2,2.8,5.2,3.4,8.6,3
		c0.7-0.1,1-0.5,1-1.3c0-2,0-4,0-6c0-0.9,0.3-1.2,1.1-1c1.2,0.2,2.5,0.4,3.6,0.8c1.1,0.4,1.7,1.4,1.7,2.6c0,1.3,0,2.7-0.1,4
		c-0.1,2.5-1.4,4.5-3.7,5.5c-5.3,2.2-13.9,1.9-17.9-4.9c-2.8-4.7-3-9.7-0.5-14.4c2.5-4.8,6.8-7,12.1-7.1c1.3,0,2.6,0,3.8,0.1
		c3.5,0.4,5.6,2.8,5.7,6.3C57.1,18.7,57.1,19.1,57.1,19.8z"/>
	<path class="st1" d="M15.2,33.4c-0.1,0.8-0.1,1.7-0.3,2.6c-0.3,1.5-1.2,2.5-2.6,2.9c-5.6,1.6-11-1.3-12.1-6.9C0,31.5,0,30.9,0,30.3
		C0,24.6,0,19,0,13.4c0-3.3,2.5-5.8,5.7-6.1c0.2,0,0.4,0,0.7,0c0,1,0,2,0,2.9c0,0.9,0,1.9,0,2.9c3,0,5.9,0,9.1,0
		c-0.2,1.4-0.3,2.6-0.7,3.8c-0.3,1.1-1.3,1.6-2.4,1.7c-1.5,0.1-3,0.2-4.5,0.2c-0.4,0-0.9,0-1.4,0c0,0.4-0.1,0.8-0.1,1.2
		c0,3.3,0,6.6,0,10c0,2.7,1.1,4,3.9,4C11.9,34,13.5,33.7,15.2,33.4z"/>
	<path class="st1" d="M31.7,34.3c-0.1,0.9-0.1,1.6-0.2,2.4c-0.3,1.7-1.3,2.5-3,2.6c-5.1,0.5-8.5-2.5-8.5-7.6c0-5.5,0-11,0-16.6
		c0-0.4,0-0.7,0-1.2c1.7-0.1,3.4,0.1,4.9,0.8c1,0.5,1.5,1.4,1.5,2.6c0,4.1,0,8.3,0,12.4c0,0.3,0,0.6,0,0.9c0.1,2.4,1.1,3.4,3.5,3.5
		C30.5,34.3,31,34.3,31.7,34.3z"/>
	<path class="st1" d="M61.3,10.5c-0.6-3.4,0.4-6.1,3.3-7.9c4.9-3.2,10-3.4,15.2-0.7c3.4,1.8,5.3,4.5,4.5,8.7C81.3,7,77.6,5,72.9,5.1
		C68.3,5.2,64.4,6.7,61.3,10.5z"/>
	<path class="st1" d="M19.7,6.8c0.1-2.1,1.8-3.7,3.8-3.6c2.1,0.1,3.7,1.8,3.6,4c-0.1,2-1.8,3.6-3.8,3.6C21.3,10.7,19.7,9,19.7,6.8z"
		/>
</g>
<g>
	<g>
		<path class="st1" d="M171.8,43.1l0.1,0.6c0,0.5-0.1,1-0.3,1.4c-0.2,0.4-0.5,0.7-0.9,1c-0.6,0.4-1.3,0.8-2.3,1
			c-1,0.2-1.9,0.3-2.9,0.3c-2.4,0-4.2-0.7-5.2-2c-1.1-1.3-1.6-3-1.6-4.9V26.8c-1.1,0-1.8-0.1-2.2-0.3c-0.4-0.2-0.5-0.4-0.5-0.7
			c0.1-0.3,0.4-0.7,0.8-1.1c0.5-0.5,0.9-1,1.4-1.5c0.5-0.5,1-0.9,1.5-1.4c0.5-0.4,0.8-0.7,1-0.9c0.3-0.3,0.7-0.5,1.1-0.7
			c0.4-0.2,1-0.4,1.7-0.6c-0.1,0.8-0.1,1.6-0.2,2.2c0,0.6-0.1,1.2-0.1,1.8h9c-0.3,1.3-0.7,2.1-1.2,2.4c-0.5,0.3-1,0.5-1.5,0.5
			c-0.5,0-0.9,0.1-1.2,0.1c-0.3,0-0.7,0-1.1,0.1c-0.4,0-0.9,0-1.5,0c-0.6,0-1.4,0-2.5,0c-0.1,1.4-0.1,2.7-0.1,4.1c0,1.3,0,2.6,0,3.8
			c0,1.2,0,2.2,0,3.2c0,1,0.1,1.7,0.1,2.3c0.1,1.6,0.6,2.6,1.4,3.1c0.8,0.5,1.6,0.8,2.6,0.8c0.8,0,1.6-0.1,2.4-0.4
			c0.8-0.2,1.4-0.5,1.9-0.8L171.8,43.1z"/>
		<path class="st1" d="M176.9,28.6c0-0.7-0.2-1.3-0.5-1.8c-0.3-0.5-0.8-0.9-1.4-1.2V25c0.1-0.2,0.3-0.5,0.6-0.8
			c0.3-0.3,0.5-0.6,0.8-0.8c0.5-0.2,0.9-0.4,1.3-0.4c1.1,0,1.9,0.5,2.5,1.5c0.6,1,0.9,2.2,1,3.7c0.9-1.7,1.9-3,3.1-3.9
			c1.2-0.9,2.4-1.3,3.7-1.3c0.7,0,1.3,0.1,1.8,0.4c0.5,0.2,0.8,0.5,1,0.7c0,0.4-0.1,0.9-0.2,1.4c-0.1,0.6-0.3,1.1-0.6,1.5
			c-0.2,0.2-0.4,0.4-0.7,0.5c-0.3,0.1-0.6,0.1-0.9,0c-0.4-0.1-0.7-0.2-1-0.2c-0.3,0-0.6-0.1-0.8-0.1c-0.6,0-1.4,0.3-2.2,0.9
			c-0.8,0.6-1.5,1.6-2.1,2.9c-0.2,0.5-0.4,1-0.5,1.4c-0.1,0.4-0.2,0.9-0.2,1.5v11.7c0,0.4-0.1,0.7-0.2,0.8c-0.1,0.2-0.4,0.3-0.8,0.4
			c-0.7,0.1-1.3,0.1-2,0.2c-0.6,0-1.2,0.1-1.8,0.1c0.1-1.8,0.2-5.1,0.2-9.8V28.6z"/>
		<path class="st1" d="M213.8,45.8c-0.2,0.4-0.6,0.8-1.2,1.1c-0.6,0.4-1.4,0.5-2.4,0.5c-1.2,0-2.1-0.3-2.7-1s-1.1-1.5-1.2-2.3
			c-0.3,0.4-0.8,0.7-1.3,1.1c-0.5,0.4-1.1,0.8-1.7,1.1c-0.6,0.3-1.3,0.6-2.1,0.8c-0.7,0.2-1.5,0.3-2.3,0.3c-2,0-3.5-0.6-4.7-1.7
			c-1.2-1.1-1.7-2.5-1.7-4.2c0-1.4,0.4-2.6,1.3-3.6c0.9-1,1.9-1.8,3.2-2.4c1.2-0.6,2.5-1.1,3.7-1.5c1.2-0.3,2.2-0.6,2.9-0.8
			c0.6-0.1,1.1-0.2,1.6-0.3c0.4-0.1,0.8-0.1,1.1-0.2v-1.7c0-1.2-0.3-2.3-1-3.2c-0.7-0.9-1.9-1.4-3.5-1.4c-1,0-2,0.2-3,0.7
			c-1,0.5-1.9,1-2.6,1.5c-1.2,0.7-2.1,0.4-2.6-1.1l-0.3-0.9c0.4-0.4,0.9-0.8,1.6-1.3c0.7-0.5,1.4-0.9,2.3-1.2
			c0.9-0.4,1.8-0.7,2.7-0.9c1-0.2,1.9-0.4,2.9-0.4c1.4,0,2.6,0.2,3.7,0.6c1,0.4,1.8,1,2.5,1.8c0.6,0.7,1.1,1.6,1.4,2.7
			c0.3,1,0.5,2.2,0.5,3.4c0,0.6,0,1.3,0,2.2c0,0.9,0,1.9-0.1,2.9c0,1,0,2.1-0.1,3.1c0,1,0,2,0,2.7c0,1.1,0.6,1.6,1.8,1.6
			c0.2,0,0.5,0,0.7-0.1c0.3,0,0.5-0.1,0.7-0.2V45.8z M197,41c0,0.9,0.3,1.6,0.8,2.1c0.6,0.5,1.4,0.8,2.4,0.8c0.6,0,1.2-0.1,1.7-0.3
			c0.6-0.2,1.1-0.4,1.6-0.7c0.5-0.3,0.9-0.6,1.3-0.9c0.4-0.3,0.7-0.7,0.9-1c0.3-0.3,0.4-0.8,0.4-1.7v-3.7c-1.1,0.2-2.2,0.4-3.3,0.7
			c-1.1,0.3-2.1,0.6-2.9,1.1c-0.8,0.4-1.5,1-2.1,1.5C197.3,39.5,197,40.2,197,41L197,41z"/>
		<path class="st1" d="M219.9,11.6c0.8,0,1.3,0.2,1.8,0.7c0.4,0.5,0.6,1.1,0.6,1.8c0,0.7-0.2,1.3-0.7,1.8c-0.5,0.5-1.1,0.8-1.9,0.8
			c-0.8,0-1.4-0.2-1.9-0.6c-0.5-0.4-0.7-1-0.7-1.9c0-0.9,0.3-1.6,0.9-2C218.7,11.8,219.3,11.6,219.9,11.6L219.9,11.6z M217.5,29.8
			c0-1.6,0-2.9-0.1-3.8c0-0.9-0.1-1.6-0.2-2.2c0.2-0.1,0.5-0.1,0.9-0.2c0.4-0.1,0.8-0.1,1.2-0.2c0.4-0.1,0.8-0.1,1.1-0.1
			c0.4,0,0.6,0,0.8,0c0.1,0,0.3,0,0.4,0.1c0.1,0.1,0.2,0.2,0.2,0.4c0.1,0.2,0.1,0.6,0.1,1c0,0.4,0.1,1,0.1,1.8v19
			c0,0.5-0.1,0.8-0.3,1c-0.2,0.2-0.5,0.3-0.9,0.3c-0.4,0.1-0.9,0.1-1.6,0.2c-0.6,0-1.3,0.1-2.1,0.1c0-1.1,0.1-2.3,0.1-3.8
			c0-1.5,0.1-3,0.1-4.6V29.8z"/>
		<path class="st1" d="M245,32.4c0-2.1-0.5-3.6-1.4-4.5c-0.9-0.9-2.1-1.4-3.7-1.4c-0.8,0-1.5,0.1-2.1,0.4c-0.7,0.2-1.3,0.6-1.8,0.9
			c-0.6,0.4-1.1,0.8-1.6,1.2c-0.5,0.5-0.9,0.9-1.2,1.3v15.2c0,0.5-0.1,0.9-0.2,1c-0.1,0.2-0.5,0.3-0.9,0.3c-0.6,0.1-1.3,0.1-1.9,0.1
			c-0.6,0-1.1,0-1.7,0.1c0.1-1.8,0.2-5.1,0.2-9.8v-8.9c0-0.9-0.1-1.6-0.4-2c-0.2-0.5-0.6-0.8-1-1v-0.7c0.2-0.3,0.5-0.6,0.9-0.9
			c0.4-0.3,0.7-0.6,1-0.8c0.5-0.1,0.9-0.1,1.3,0.1c0.8,0.2,1.4,0.6,1.8,1.4c0.4,0.7,0.7,1.5,0.7,2.5c0.7-0.7,1.4-1.3,2.1-1.8
			c0.7-0.5,1.3-0.9,2.1-1.3c0.6-0.3,1.2-0.5,1.9-0.7c0.7-0.2,1.4-0.3,2.1-0.3c1.6,0,2.9,0.2,4,0.7c1.1,0.5,1.9,1.1,2.6,2
			c0.7,0.8,1.1,1.8,1.4,2.9c0.3,1.1,0.4,2.3,0.4,3.5v8c0,1.6,0,2.9,0.1,4c0.1,1.1,0.1,1.9,0.2,2.6c-0.6,0.1-1.3,0.2-2,0.3
			c-0.7,0.1-1.4,0.2-2.1,0.2c-0.5,0-0.8-0.2-0.8-0.7L245,32.4z"/>
		<path class="st1" d="M273.4,43.5c-0.1,0.7-0.4,1.4-0.9,2c-0.5,0.6-1,1-1.4,1.2c-0.3,0.1-0.9,0.3-1.8,0.5c-0.9,0.2-1.9,0.3-3,0.3
			c-1.4,0-2.9-0.2-4.4-0.6c-1.6-0.4-3-1.1-4.3-2.3c-1.1-1-2-2.3-2.6-3.9c-0.6-1.6-0.9-3.2-0.9-5c0-1.7,0.3-3.3,0.8-4.8
			c0.5-1.5,1.3-2.9,2.3-4c1-1.2,2.2-2.1,3.7-2.8c1.4-0.7,3.1-1,4.9-1c1.6,0,3,0.3,4.1,0.8c1.1,0.5,2.1,1.2,2.8,2
			c0.7,0.8,1.3,1.7,1.7,2.8c0.4,1,0.6,2.1,0.6,3.2c0,0.3,0,0.6,0,0.9c0,0.3-0.1,0.6-0.1,0.8c0,0.2-0.2,0.4-0.6,0.6
			c-0.3,0.2-0.7,0.4-1.2,0.6c-0.5,0.2-1,0.3-1.5,0.5c-0.5,0.1-1,0.2-1.5,0.3c-0.4,0.1-1,0.1-1.9,0.1c-0.8,0-1.8,0-2.8,0.1
			c-1,0-2.1,0-3.3,0c-1.1,0-2.2,0-3.3-0.1c0,2.7,0.8,4.8,2.4,6.3c1.6,1.5,3.7,2.2,6.3,2.2c1.3,0,2.5-0.1,3.5-0.3
			c1-0.2,1.7-0.4,2.1-0.6L273.4,43.5z M265.1,25.9c-0.7,0-1.4,0.2-2.1,0.5c-0.7,0.3-1.3,0.7-1.8,1.3c-0.5,0.6-1,1.3-1.4,2.1
			c-0.4,0.8-0.6,1.8-0.7,2.8c1.1,0,2.1,0.1,3.2,0.1c1.1,0,2.1,0,3,0c0.9,0,1.7,0,2.4-0.1c0.7,0,1.2,0,1.4,0c0.4,0,0.7-0.1,0.9-0.3
			c0.2-0.2,0.3-0.5,0.3-0.8c0.1-1.6-0.3-3-1.3-4C268.2,26.4,266.9,25.9,265.1,25.9L265.1,25.9z"/>
		<path class="st1" d="M279.4,28.6c0-0.7-0.1-1.3-0.5-1.8c-0.3-0.5-0.8-0.9-1.4-1.2V25c0.1-0.2,0.3-0.5,0.6-0.8
			c0.3-0.3,0.5-0.6,0.8-0.8c0.5-0.2,0.9-0.4,1.3-0.4c1.1,0,1.9,0.5,2.5,1.5c0.6,1,0.9,2.2,1,3.7c0.9-1.7,1.9-3,3.1-3.9
			c1.2-0.9,2.4-1.3,3.7-1.3c0.7,0,1.3,0.1,1.8,0.4c0.5,0.2,0.8,0.5,1,0.7c0,0.4-0.1,0.9-0.2,1.4c-0.1,0.6-0.3,1.1-0.6,1.5
			c-0.2,0.2-0.4,0.4-0.7,0.5c-0.3,0.1-0.6,0.1-0.9,0c-0.4-0.1-0.7-0.2-1-0.2c-0.3,0-0.6-0.1-0.8-0.1c-0.6,0-1.4,0.3-2.2,0.9
			c-0.8,0.6-1.5,1.6-2.1,2.9c-0.2,0.5-0.4,1-0.5,1.4c-0.1,0.4-0.2,0.9-0.2,1.5v11.7c0,0.4-0.1,0.7-0.2,0.8c-0.1,0.2-0.4,0.3-0.8,0.4
			c-0.7,0.1-1.3,0.1-2,0.2c-0.6,0-1.2,0.1-1.8,0.1c0.1-1.8,0.2-5.1,0.2-9.8V28.6z"/>
		<path class="st1" d="M303.6,23c1.5,0,2.8,0.2,3.7,0.6c0.9,0.4,1.5,0.8,1.7,1.1c0,0.3,0,0.7-0.2,1.1c-0.2,0.4-0.3,0.7-0.5,1
			c-0.4,0.5-0.9,0.5-1.5,0.2c-1.2-0.5-2.4-0.8-3.6-0.8c-1.1,0-1.9,0.3-2.5,1c-0.6,0.7-0.9,1.4-0.9,2.2c0,1,0.6,1.8,1.7,2.4
			c0.2,0.1,0.6,0.3,1.1,0.6c0.5,0.3,1.1,0.5,1.6,0.8c0.6,0.3,1.2,0.6,1.7,1c0.6,0.3,1.1,0.6,1.5,0.9c1.1,0.7,1.9,1.5,2.4,2.3
			c0.5,0.8,0.7,1.8,0.7,2.7c0,1.2-0.3,2.3-0.8,3.2c-0.5,0.9-1.2,1.7-2.1,2.3c-0.9,0.6-1.8,1.1-2.9,1.4c-1.1,0.3-2.2,0.5-3.3,0.5
			c-1.5,0-3-0.2-4.3-0.7c-1.4-0.5-2.3-1-2.8-1.7c0-0.4,0.1-0.8,0.3-1.2c0.2-0.4,0.4-0.7,0.6-0.9c0.4-0.4,0.9-0.3,1.6,0.1
			c0.7,0.4,1.5,0.7,2.3,1c0.8,0.2,1.7,0.4,2.6,0.4c1.3,0,2.3-0.3,3.1-1c0.8-0.7,1.2-1.5,1.2-2.4c0-0.6-0.2-1.2-0.6-1.7
			c-0.4-0.5-1.1-1-2.1-1.5c-0.4-0.2-0.8-0.4-1.2-0.7c-0.5-0.2-0.9-0.5-1.4-0.7c-0.5-0.2-0.9-0.5-1.3-0.7c-0.4-0.2-0.7-0.4-1-0.6
			c-1-0.5-1.7-1.2-2.3-2.1c-0.5-0.9-0.8-1.9-0.8-3c0-1.1,0.2-2,0.7-2.9c0.5-0.8,1.1-1.6,1.8-2.2c0.8-0.6,1.6-1.1,2.6-1.4
			C301.5,23.1,302.5,23,303.6,23L303.6,23z"/>
	</g>
</g>
<rect x="143" class="st2" width="1.2" height="65.5"/>
</svg>
