<?xml version="1.0" standalone="no"?>
<!DOCTYPE svg PUBLIC "-//W3C//DTD SVG 20010904//EN"
 "http://www.w3.org/TR/2001/REC-SVG-20010904/DTD/svg10.dtd">
<svg version="1.0" xmlns="http://www.w3.org/2000/svg"
 width="261.000000pt" height="261.000000pt" viewBox="0 0 261.000000 261.000000"
 preserveAspectRatio="xMidYMid meet">
<metadata>
Created by potrace 1.11, written by Peter Selinger 2001-2013
</metadata>
<g transform="translate(0.000000,261.000000) scale(0.100000,-0.100000)"
fill="#000000" stroke="none">
<path d="M1355 1995 c-45 -16 -85 -56 -85 -86 0 -24 2 -24 46 6 59 40 151 34
202 -14 l22 -22 0 31 c0 38 -34 72 -88 88 -48 15 -47 15 -97 -3z"/>
<path d="M812 1958 c-15 -15 -15 -51 0 -66 39 -39 100 17 63 58 -20 23 -45 26
-63 8z"/>
<path d="M591 1894 c-18 -23 -21 -41 -21 -136 0 -71 5 -120 14 -143 15 -36 59
-65 98 -65 32 0 68 27 68 51 0 15 -7 19 -38 19 -54 0 -62 13 -62 97 l0 73 44
0 c45 0 56 10 56 51 0 16 -7 19 -50 19 -49 0 -50 1 -50 30 0 39 -30 41 -59 4z"/>
<path d="M1055 1856 c-85 -38 -117 -134 -75 -221 36 -74 125 -104 205 -70 37
15 55 46 55 94 0 33 -14 48 -50 53 -23 3 -25 -1 -30 -42 -5 -42 -7 -45 -36
-48 -45 -4 -84 35 -84 85 0 51 22 80 70 93 31 8 47 7 76 -5 46 -19 44 -19 44
5 0 12 -11 32 -25 45 -19 20 -34 25 -72 25 -26 -1 -61 -7 -78 -14z"/>
<path d="M1336 1852 c-49 -34 -66 -70 -66 -144 0 -61 3 -71 30 -102 71 -80
188 -68 235 24 19 37 19 123 1 158 -27 52 -62 75 -118 79 -41 3 -60 -1 -82
-15z m110 -70 c56 -37 28 -152 -37 -152 -28 0 -59 33 -65 70 -10 61 55 114
102 82z"/>
<path d="M800 1730 c0 -121 0 -122 29 -151 32 -32 80 -39 101 -14 18 21 8 48
-20 55 -24 6 -25 9 -30 107 -3 56 -8 104 -11 107 -3 3 -20 9 -37 12 l-32 7 0
-123z"/>
<path d="M1057 1494 c-13 -13 -7 -69 12 -109 42 -92 123 -136 216 -117 29 5
51 6 53 1 2 -5 12 -9 22 -9 14 0 23 12 32 42 15 51 66 104 113 117 58 16 102
-3 172 -74 70 -71 112 -90 184 -82 50 6 136 45 158 71 27 32 0 34 -62 5 -65
-30 -108 -36 -151 -19 -41 15 -33 46 21 80 53 34 113 54 126 41 11 -11 -9 -25
-83 -54 -112 -44 -80 -65 42 -27 77 24 110 51 106 88 -9 77 -188 58 -269 -29
l-29 -31 -26 32 c-51 60 -147 87 -217 61 -19 -8 -27 -6 -31 5 -10 26 -27 14
-47 -33 -71 -167 -245 -164 -303 4 -13 37 -26 50 -39 37z"/>
<path d="M1132 1001 c-23 -14 -10 -46 18 -46 20 0 25 5 25 25 0 26 -20 36 -43
21z"/>
<path d="M462 885 c-38 -34 -42 -40 -28 -51 12 -9 16 -30 16 -96 0 -109 18
-138 85 -138 26 0 50 6 59 16 26 25 19 35 -19 28 -55 -10 -65 5 -65 102 l0 84
31 0 c34 0 69 15 69 30 0 6 -22 10 -49 10 -47 0 -50 2 -53 27 l-3 28 -43 -40z"/>
<path d="M650 865 c-10 -12 -10 -19 -2 -27 8 -8 12 -53 12 -126 l0 -113 28 3
c27 3 27 3 32 95 6 102 18 127 67 128 23 0 28 4 28 25 0 36 -43 39 -74 6 l-24
-26 -11 23 c-14 27 -39 33 -56 12z"/>
<path d="M883 860 c-55 -33 -32 -65 26 -36 39 21 47 20 71 -4 32 -32 25 -47
-33 -64 -74 -22 -107 -49 -107 -90 0 -19 8 -40 18 -49 23 -21 78 -22 115 -2
24 12 29 12 34 0 9 -25 83 -16 83 10 0 7 -9 15 -20 18 -18 5 -20 14 -20 97 0
83 -2 93 -25 115 -31 32 -95 34 -142 5z m105 -162 c-4 -40 -47 -70 -75 -52
-33 21 -12 58 42 76 34 11 36 9 33 -24z"/>
<path d="M1133 873 c-10 -3 -13 -41 -13 -139 l0 -135 28 3 27 3 0 135 c0 139
-3 150 -42 133z"/>
<path d="M1248 873 c-2 -5 -2 -68 0 -141 l4 -133 26 3 c27 3 27 3 30 98 3 108
16 130 78 130 46 0 54 -20 54 -135 l0 -96 28 3 c26 3 27 5 30 73 5 99 -5 153
-33 181 -30 30 -88 32 -129 4 -30 -19 -30 -19 -43 1 -14 19 -39 26 -45 12z"/>
<path d="M1613 860 c-109 -66 -87 -238 34 -259 52 -9 93 0 110 25 13 21 13 21
-37 16 -31 -3 -61 0 -75 8 -21 11 -45 48 -45 70 0 6 33 10 74 10 56 0 79 4 96
18 21 17 22 21 10 56 -22 69 -102 96 -167 56z m103 -45 c22 -34 11 -45 -52
-45 -60 0 -70 14 -34 50 28 28 66 26 86 -5z"/>
<path d="M1820 865 c-10 -12 -10 -19 -2 -27 8 -8 12 -53 12 -126 l0 -113 28 3
c27 3 27 3 32 95 6 102 18 127 67 128 23 0 28 4 28 25 0 35 -35 38 -71 7 l-28
-25 -11 22 c-13 26 -38 32 -55 11z"/>
<path d="M2059 865 c-14 -8 -32 -28 -39 -45 -16 -39 3 -71 60 -100 54 -28 68
-55 37 -74 -18 -13 -30 -13 -61 -5 -42 12 -70 -1 -49 -22 33 -33 135 -26 165
11 39 48 19 89 -64 139 -21 13 -38 28 -38 36 0 24 27 36 64 29 32 -5 36 -4 36
14 0 34 -62 43 -111 17z"/>
</g>
</svg>
