<?xml version="1.0" encoding="utf-8"?>
<!-- Generator: Adobe Illustrator 22.0.1, SVG Export Plug-In . SVG Version: 6.00 Build 0)  -->
<svg version="1.1" id="Capa_1" xmlns="http://www.w3.org/2000/svg" xmlns:xlink="http://www.w3.org/1999/xlink" x="0px" y="0px"
	 viewBox="0 0 204 240" style="enable-background:new 0 0 204 240;" xml:space="preserve">
<style type="text/css">
	.st0{fill:#192C54;}
	.st1{clip-path:url(#SVGID_6_);}
	.st2{fill:url(#SVGID_7_);}
	.st3{clip-path:url(#SVGID_9_);}
	.st4{fill:url(#SVGID_10_);}
	.st5{opacity:0.74;fill:#7CC5F1;}
	.st6{opacity:0.17;fill:#7CC5F1;}
	.st7{opacity:0.36;fill:#7CC5F1;}
	.st8{fill:#203873;}
	.st9{fill:#FFFFFF;}
	.st10{fill-rule:evenodd;clip-rule:evenodd;fill:#192C54;}
	.st11{clip-path:url(#SVGID_14_);}
	.st12{clip-path:url(#SVGID_16_);}
	.st13{fill:none;stroke:#192C54;stroke-width:3;stroke-miterlimit:10;}
	.st14{fill:none;stroke:#000000;stroke-width:1.6;stroke-linecap:round;stroke-miterlimit:10;}
	.st15{fill:#F9BA48;}
	.st16{fill:#333333;}
	.st17{fill:none;}
	.st18{clip-path:url(#SVGID_18_);}
	.st19{clip-path:url(#SVGID_20_);}
	.st20{fill:url(#SVGID_21_);}
	.st21{fill:#2C2F33;}
	.st22{clip-path:url(#SVGID_25_);fill:#A7A9AC;}
	.st23{clip-path:url(#SVGID_25_);}
</style>
<g>
	<g>
		<defs>
			<rect id="SVGID_24_" x="16.6" y="36.9" width="170.7" height="171.1"/>
		</defs>
		<clipPath id="SVGID_2_">
			<use xlink:href="#SVGID_24_"  style="overflow:visible;"/>
		</clipPath>
		<path style="clip-path:url(#SVGID_2_);fill:#A7A9AC;" d="M101.8,75.3c16.9,0,30.6,13.8,30.6,30.6v32.8c0,16.9-13.8,30.6-30.6,30.6
			c-16.9,0-30.6-13.8-30.6-30.6v-32.8C71.2,89.1,85,75.3,101.8,75.3L101.8,75.3z M101.8,75.3"/>
		<path style="clip-path:url(#SVGID_2_);" d="M101.8,201.2c-14,0-28-3.6-41.6-10.7c-11.4-6-20.7-15.2-26.6-26.7
			C14.9,128,21.1,88.6,49.3,63.4c1.3-1.1,1.4-3.2,0.2-4.5c-1.1-1.3-3.2-1.4-4.5-0.2c-13.9,12.4-23.5,29.3-27,47.6
			c-3.8,19.9-0.4,40.8,9.9,60.5c6.6,12.6,16.7,22.8,29.3,29.4c14.5,7.6,29.5,11.4,44.6,11.4c47,0,85.3-38.3,85.3-85.3
			c0-47-38.3-85.3-85.3-85.3c-1.7,0-3.2,1.4-3.2,3.2v32.1C81.5,73.9,68,88.4,68,105.9v32.8c0,18.6,15.2,33.8,33.8,33.8
			s33.8-15.2,33.8-33.8v-32.8c0-17.6-13.5-32-30.6-33.6V43.5c42.1,1.6,75.8,36.4,75.8,78.9C180.8,165.8,145.4,201.2,101.8,201.2
			L101.8,201.2z M129.3,105.9v32.8c0,15.2-12.3,27.5-27.5,27.5s-27.5-12.3-27.5-27.5v-32.8c0-15.2,12.3-27.5,27.5-27.5
			S129.3,90.8,129.3,105.9L129.3,105.9z M129.3,105.9"/>
	</g>
	<path d="M98.7,97.8v11.7c0,1.7,1.4,3.2,3.2,3.2c1.7,0,3.2-1.4,3.2-3.2V97.8c0-1.7-1.4-3.2-3.2-3.2C100.1,94.7,98.7,96.1,98.7,97.8
		L98.7,97.8z M98.7,97.8"/>
</g>
</svg>
