<?xml version="1.0" encoding="utf-8"?>
<!-- Generator: Adobe Illustrator 22.0.1, SVG Export Plug-In . SVG Version: 6.00 Build 0)  -->
<svg version="1.1" id="Capa_1" xmlns="http://www.w3.org/2000/svg" xmlns:xlink="http://www.w3.org/1999/xlink" x="0px" y="0px"
	 viewBox="0 0 204 240" style="enable-background:new 0 0 204 240;" xml:space="preserve">
<style type="text/css">
	.st0{fill:#192C54;}
	.st1{clip-path:url(#SVGID_6_);}
	.st2{fill:url(#SVGID_7_);}
	.st3{clip-path:url(#SVGID_9_);}
	.st4{fill:url(#SVGID_10_);}
	.st5{opacity:0.74;fill:#7CC5F1;}
	.st6{opacity:0.17;fill:#7CC5F1;}
	.st7{opacity:0.36;fill:#7CC5F1;}
	.st8{fill:#203873;}
	.st9{fill:#FFFFFF;}
	.st10{fill-rule:evenodd;clip-rule:evenodd;fill:#192C54;}
	.st11{clip-path:url(#SVGID_14_);}
	.st12{clip-path:url(#SVGID_16_);}
	.st13{fill:none;stroke:#192C54;stroke-width:3;stroke-miterlimit:10;}
	.st14{fill:none;stroke:#000000;stroke-width:1.6;stroke-linecap:round;stroke-miterlimit:10;}
	.st15{fill:#F9BA48;}
	.st16{fill:#333333;}
	.st17{fill:none;}
	.st18{clip-path:url(#SVGID_18_);}
	.st19{clip-path:url(#SVGID_20_);}
	.st20{fill:url(#SVGID_21_);}
	.st21{fill:#2C2F33;}
</style>
<g>
	<line class="st14" x1="55" y1="171.2" x2="151" y2="171.2"/>
	<path d="M109,189.2c0,3.3-2.7,6-6,6c-3.3,0-6-2.7-6-6c0-3.3,2.7-6,6-6C106.3,183.2,109,185.9,109,189.2L109,189.2z M109,189.2"/>
	<path class="st0" d="M162.2,42.5l6,1.4c0.2,0.1,0.5,0.1,0.7,0.1c1.4,0,2.6-0.9,2.9-2.3c0.4-1.6-0.6-3.2-2.3-3.6l-6-1.4
		c-1.6-0.4-3.2,0.6-3.6,2.3C159.6,40.5,160.6,42.1,162.2,42.5L162.2,42.5z M162.2,42.5"/>
	<path class="st0" d="M162.1,130.5c-1.6-0.5-3.3,0.4-3.7,2l-1.7,5.9c-0.5,1.6,0.5,3.3,2,3.7c0.3,0.1,0.6,0.1,0.9,0.1
		c1.3,0,2.5-0.9,2.9-2.2l1.7-5.9C164.6,132.7,163.7,131,162.1,130.5L162.1,130.5z M162.1,130.5"/>
	<path class="st0" d="M182.7,60c-1.6-0.5-3.3,0.5-3.7,2.1l-1.7,5.9c-0.5,1.6,0.5,3.3,2,3.7c0.3,0.1,0.6,0.1,0.8,0.1
		c1.3,0,2.5-0.9,2.9-2.2l1.7-5.9C185.2,62.1,184.3,60.5,182.7,60L182.7,60z M182.7,60"/>
	<path class="st0" d="M177.6,77.6c-1.6-0.5-3.3,0.4-3.7,2l-1.7,5.9c-0.5,1.6,0.5,3.3,2,3.7c0.3,0.1,0.6,0.1,0.8,0.1
		c1.3,0,2.5-0.8,2.9-2.2l1.7-5.9C180.1,79.8,179.1,78.1,177.6,77.6L177.6,77.6z M177.6,77.6"/>
	<path d="M157,148.2c-1.1-0.3-2.2,0-3,0.8V43.4c0-1.6-0.3-3.1-0.9-4.6c0.3-0.4,0.6-0.8,0.7-1.3c0.4-1.6-0.6-3.2-2.3-3.6l-2.3-0.5
		c-2.3-2-5.3-3.2-8.6-3.2H65.2c-3.3,0-6.3,1.2-8.6,3.2l-2.3,0.5c-1.6,0.4-2.6,2-2.3,3.6c0.1,0.5,0.4,0.9,0.7,1.3
		c-0.5,1.4-0.9,3-0.9,4.6V149c-0.8-0.8-1.9-1.1-3-0.8c-1.6,0.5-2.5,2.1-2,3.7l1.7,5.9c0.4,1.3,1.6,2.2,2.9,2.2c0.1,0,0.3,0,0.4-0.1
		V197c0,7.3,5.9,13.2,13.2,13.2h75.6c7.3,0,13.2-5.9,13.2-13.2v-37.2c0.1,0,0.3,0.1,0.4,0.1c1.3,0,2.5-0.9,2.9-2.2l1.7-5.9
		C159.5,150.3,158.6,148.6,157,148.2L157,148.2z M112,39.2h3c1.7,0,3,1.4,3,3c0,1.7-1.3,3-3,3h-3c-1.7,0-3-1.3-3-3
		C109,40.5,110.3,39.2,112,39.2L112,39.2z M91,39.2h12c1.7,0,3,1.4,3,3c0,1.7-1.4,3-3,3H91c-1.7,0-3-1.3-3-3
		C88,40.5,89.3,39.2,91,39.2L91,39.2z M103,201.2c-6.6,0-12-5.4-12-12c0-6.6,5.4-12,12-12c6.6,0,12,5.4,12,12
		C115,195.8,109.6,201.2,103,201.2L103,201.2z M58,168.2V54.2h90v114.1H58z M58,168.2"/>
	<path class="st0" d="M185.9,50c-0.8-2.4-2.1-4.6-3.8-6.4c-1.2-1.2-3.1-1.2-4.3-0.1c-1.2,1.2-1.2,3.1-0.1,4.3c1.1,1.1,1.9,2.5,2.4,4
		c0.4,1.3,1.6,2.1,2.9,2.1c0.3,0,0.6,0,0.9-0.1C185.5,53.3,186.4,51.6,185.9,50L185.9,50z M185.9,50"/>
	<path class="st0" d="M167.3,112.9c-1.6-0.5-3.3,0.5-3.7,2l-1.7,5.9c-0.5,1.6,0.5,3.3,2,3.7c0.3,0.1,0.6,0.1,0.8,0.1
		c1.3,0,2.5-0.9,2.9-2.2l1.7-5.9C169.8,115,168.9,113.4,167.3,112.9L167.3,112.9z M167.3,112.9"/>
	<path class="st0" d="M172.4,95.3c-1.6-0.5-3.3,0.4-3.7,2l-1.7,5.9c-0.5,1.6,0.5,3.3,2,3.7c0.3,0.1,0.6,0.1,0.8,0.1
		c1.3,0,2.5-0.8,2.9-2.2l1.7-5.9C174.9,97.4,174,95.7,172.4,95.3L172.4,95.3z M172.4,95.3"/>
	<path class="st0" d="M23,53.9c1.3,0,2.4-0.8,2.9-2.1c0.5-1.5,1.3-2.9,2.4-4c1.1-1.2,1.1-3.1-0.1-4.3c-1.2-1.1-3.1-1.1-4.3,0.1
		c-1.7,1.8-3.1,4-3.8,6.4c-0.5,1.6,0.4,3.3,1.9,3.8C22.4,53.9,22.7,53.9,23,53.9L23,53.9z M23,53.9"/>
	<path class="st0" d="M37.1,44c0.2,0,0.5,0,0.7-0.1l6-1.4c1.6-0.4,2.6-2,2.2-3.6c-0.4-1.6-2-2.6-3.6-2.3l-6,1.4
		c-1.6,0.4-2.6,2-2.2,3.6C34.6,43,35.8,44,37.1,44L37.1,44z M37.1,44"/>
	<path class="st0" d="M28.7,67.9L27,62c-0.5-1.6-2.1-2.5-3.7-2c-1.6,0.5-2.5,2.1-2,3.7l1.7,5.9c0.4,1.3,1.6,2.2,2.9,2.2
		c0.3,0,0.6,0,0.8-0.1C28.3,71.2,29.2,69.5,28.7,67.9L28.7,67.9z M28.7,67.9"/>
	<path class="st0" d="M49.3,138.4l-1.7-5.9c-0.5-1.6-2.1-2.5-3.7-2c-1.6,0.5-2.5,2.1-2.1,3.7l1.7,5.9c0.4,1.3,1.6,2.2,2.9,2.2
		c0.3,0,0.6,0,0.8-0.1C48.8,141.7,49.7,140,49.3,138.4L49.3,138.4z M49.3,138.4"/>
	<path class="st0" d="M44.1,120.8l-1.7-5.9c-0.5-1.6-2.1-2.5-3.7-2c-1.6,0.5-2.5,2.1-2,3.7l1.7,5.9c0.4,1.3,1.6,2.2,2.9,2.2
		c0.3,0,0.6,0,0.8-0.1C43.7,124.1,44.6,122.4,44.1,120.8L44.1,120.8z M44.1,120.8"/>
	<path class="st0" d="M33.9,85.5l-1.7-5.9c-0.5-1.6-2.1-2.5-3.7-2c-1.6,0.5-2.5,2.1-2,3.7l1.7,5.9c0.4,1.3,1.6,2.2,2.9,2.2
		c0.3,0,0.6,0,0.8-0.1C33.4,88.8,34.3,87.1,33.9,85.5L33.9,85.5z M33.9,85.5"/>
	<path class="st0" d="M39,103.2l-1.7-5.9c-0.5-1.6-2.1-2.5-3.7-2c-1.6,0.5-2.5,2.1-2,3.7l1.7,5.9c0.4,1.3,1.6,2.2,2.9,2.2
		c0.3,0,0.6,0,0.8-0.1C38.6,106.4,39.5,104.8,39,103.2L39,103.2z M39,103.2"/>
</g>
</svg>
