<?xml version="1.0" encoding="utf-8"?>
<!-- Generator: Adobe Illustrator 22.0.1, SVG Export Plug-In . SVG Version: 6.00 Build 0)  -->
<svg version="1.1" id="Capa_1" xmlns="http://www.w3.org/2000/svg" xmlns:xlink="http://www.w3.org/1999/xlink" x="0px" y="0px"
	 viewBox="0 0 204 240" style="enable-background:new 0 0 204 240;" xml:space="preserve">
<style type="text/css">
	.st0{fill:#192C54;}
	.st1{clip-path:url(#SVGID_6_);}
	.st2{fill:url(#SVGID_7_);}
	.st3{clip-path:url(#SVGID_9_);}
	.st4{fill:url(#SVGID_10_);}
	.st5{opacity:0.74;fill:#7CC5F1;}
	.st6{opacity:0.17;fill:#7CC5F1;}
	.st7{opacity:0.36;fill:#7CC5F1;}
	.st8{fill:#203873;}
	.st9{fill:#FFFFFF;}
	.st10{fill-rule:evenodd;clip-rule:evenodd;fill:#192C54;}
	.st11{clip-path:url(#SVGID_14_);}
	.st12{clip-path:url(#SVGID_16_);}
	.st13{fill:none;stroke:#192C54;stroke-width:3;stroke-miterlimit:10;}
	.st14{fill:none;stroke:#000000;stroke-width:1.6;stroke-linecap:round;stroke-miterlimit:10;}
	.st15{clip-path:url(#SVGID_18_);}
	.st16{clip-path:url(#SVGID_20_);}
	.st17{fill:url(#SVGID_21_);}
	.st18{fill:#2C2F33;}
</style>
<path d="M121.4,88.6l-1.4,1.4c-3.2,3.2-3.2,8.4,0,11.6l0.6,0.6c3.2,3.2,8.4,3.2,11.6,0L143,91.4l1.4-1.4c3.2-3.2,3.2-8.4,0-11.6
	l-0.6-0.6c-3.2-3.2-8.4-3.2-11.6,0L121.4,88.6z M145.2,93.7l-10.8,10.8c-3.2,3.2-3.2,8.4,0,11.6l0.6,0.6c3.2,3.2,8.4,3.2,11.6,0
	l10.8-10.8l1.4-1.4c3.2-3.2,3.2-8.4,0-11.6l-0.6-0.6c-3.2-3.2-8.4-3.2-11.6,0L145.2,93.7z M181,146.3l-48.4,48.4c-4,4-10.6,4-14.7,0
	l-8.3-8.3l-8.8,8.8c0,0-13.1,13-30.9,9.3c-0.1,0-0.3-0.1-0.4-0.1c-0.8-0.1-1.5-0.4-2.3-0.6c-0.6-0.2-1.3-0.4-2-0.7
	c-0.6-0.2-1.3-0.4-1.9-0.7c-1.3-0.6-2.6-1.2-4-2c-0.4-0.2-0.8-0.5-1.2-0.8c-1.1-0.7-2.3-1.5-3.4-2.3c-0.4-0.3-0.9-0.7-1.3-1
	c-1.5-1.2-3-2.5-4.6-4.1c-17.1-17.1-16.4-32.4-13.2-40.1c0,0,2.6-9.6,5.8-21.1c0.9-3.3,1.9-6.7,2.8-10.1l-20.1-20.1
	c-4.1-4-4.1-10.6,0-14.6l48.4-48.4c4-4,10.6-4,14.7,0l28.1,28.1l2.5-2.6c3.2-3.2,8.4-3.2,11.6,0l0.6,0.6c3.2,3.2,3.2,8.4,0,11.6
	l-1.5,1.4l-9.4,9.4l-1.5,1.4c-3.2,3.2-8.4,3.2-11.6,0l-0.6-0.6c-3.2-3.2-3.2-8.4,0-11.6l1.4-1.4v0l3.2-3.2L86.3,47.2L33.5,100
	l13,12.9c2.2-7.9,4.2-14.8,5.2-18.1c3.3-10.4,11.6-10,15.5-3.7c3.1,4.9,0.7,16-0.9,28.6c-0.3,2.5-1.1,6.6-2.1,10.9l52.6,52.6
	l52.8-52.8l-3.9-3.9l-4.6,4.6c-3.2,3.2-8.4,3.2-11.6,0l-0.6-0.6c-3.2-3.2-3.2-8.4,0-11.6l1.4-1.5l10.8-10.8c3.2-3.2,8.4-3.2,11.6,0
	l0.6,0.6c3.2,3.2,3.2,8.4,0,11.6l-1.4,1.4l0,0l-1.1,1.1l10.2,10.2C185,135.7,185,142.2,181,146.3L181,146.3z M45.8,76.8
	c0.5,0.5,1.3,0.5,1.8,0L63,61.3c0.5-0.5,0.5-1.3,0-1.8c-0.5-0.5-1.3-0.5-1.8,0L45.8,75C45.3,75.5,45.3,76.3,45.8,76.8L45.8,76.8z
	 M153.1,159.5c-2-2-5.3-2-7.3,0c-2,2-2,5.3,0,7.3c2,2,5.3,2,7.3,0C155.1,164.8,155.1,161.5,153.1,159.5L153.1,159.5z M153.1,159.5"
	/>
</svg>
