<?xml version="1.0" encoding="utf-8"?>
<!-- Generator: Adobe Illustrator 22.0.1, SVG Export Plug-In . SVG Version: 6.00 Build 0)  -->
<svg version="1.1" id="Capa_1" xmlns="http://www.w3.org/2000/svg" xmlns:xlink="http://www.w3.org/1999/xlink" x="0px" y="0px"
	 viewBox="0 0 204 240" style="enable-background:new 0 0 204 240;" xml:space="preserve">
<style type="text/css">
	.st0{fill:#192C54;}
	.st1{clip-path:url(#SVGID_6_);}
	.st2{fill:url(#SVGID_7_);}
	.st3{clip-path:url(#SVGID_9_);}
	.st4{fill:url(#SVGID_10_);}
	.st5{opacity:0.74;fill:#7CC5F1;}
	.st6{opacity:0.17;fill:#7CC5F1;}
	.st7{opacity:0.36;fill:#7CC5F1;}
	.st8{fill:#203873;}
	.st9{fill:#FFFFFF;}
	.st10{fill-rule:evenodd;clip-rule:evenodd;fill:#192C54;}
	.st11{clip-path:url(#SVGID_14_);}
	.st12{clip-path:url(#SVGID_16_);}
	.st13{fill:none;stroke:#192C54;stroke-width:3;stroke-miterlimit:10;}
	.st14{fill:none;stroke:#000000;stroke-width:1.6;stroke-linecap:round;stroke-miterlimit:10;}
	.st15{fill:#F9BA48;}
	.st16{fill:#333333;}
	.st17{fill:none;}
	.st18{clip-path:url(#SVGID_18_);}
	.st19{clip-path:url(#SVGID_20_);}
	.st20{fill:url(#SVGID_21_);}
	.st21{fill:#2C2F33;}
</style>
<g>
	<path class="st21" d="M80.1,129.1V98.4c0-1.3-0.7-2.5-1.8-3.3c-2.9-2-4.7-5.2-4.7-8.7V54.6c0-13.7,11.1-24.7,24.7-24.7h6.8
		c13.7,0,24.7,11.1,24.7,24.7v31.8c0,3.5-1.8,6.7-4.7,8.7c-1.1,0.7-1.8,1.9-1.8,3.3v30.7c0,2.1,1.2,3.9,3,4.8
		c4,2,25.1,12.6,44.5,28.6c2.7,2.2,4.2,5.4,4.2,8.9v21.8c0,2.2,1.8,3.9,3.9,3.9c2.2,0,3.9-1.8,3.9-3.9v-21.8c0-5.8-2.6-11.3-7-15
		c-18.4-15.1-38.2-25.6-44.7-28.9v-27.2c4.1-3.5,6.4-8.5,6.4-13.9V54.6c0-18-14.6-32.6-32.6-32.6h-6.8c-18,0-32.6,14.6-32.6,32.6
		v31.8c0,5.4,2.3,10.4,6.4,13.9v27.2c-6.4,3.2-26.2,13.7-44.7,28.9c-4.5,3.7-7,9.1-7,15v21.8c0,2.2,1.8,3.9,3.9,3.9
		c2.2,0,3.9-1.8,3.9-3.9v-21.8c0-3.5,1.5-6.7,4.2-8.9c19.4-16,40.5-26.6,44.5-28.6C78.9,133,80.1,131.1,80.1,129.1L80.1,129.1z
		 M80.1,129.1"/>
	<path class="st0" d="M124.7,174.1l-33.4,33.4L78.8,195c-1.6-1.6-4-1.6-5.6,0c-1.6,1.6-1.6,4,0,5.6l15.3,15.3
		c0.8,0.8,1.8,1.2,2.8,1.2c1,0,2-0.4,2.8-1.2l36.2-36.2c1.6-1.6,1.6-4,0-5.6C128.8,172.6,126.3,172.6,124.7,174.1L124.7,174.1z
		 M124.7,174.1"/>
</g>
</svg>
