<?xml version="1.0" encoding="utf-8"?>
<!-- Generator: Adobe Illustrator 22.0.1, SVG Export Plug-In . SVG Version: 6.00 Build 0)  -->
<svg version="1.1" id="Capa_1" xmlns="http://www.w3.org/2000/svg" xmlns:xlink="http://www.w3.org/1999/xlink" x="0px" y="0px"
	 viewBox="0 0 204 240" style="enable-background:new 0 0 204 240;" xml:space="preserve">
<style type="text/css">
	.st0{fill:#192C54;}
	.st1{clip-path:url(#SVGID_6_);}
	.st2{fill:url(#SVGID_7_);}
	.st3{clip-path:url(#SVGID_9_);}
	.st4{fill:url(#SVGID_10_);}
	.st5{opacity:0.74;fill:#7CC5F1;}
	.st6{opacity:0.17;fill:#7CC5F1;}
	.st7{opacity:0.36;fill:#7CC5F1;}
	.st8{fill:#203873;}
	.st9{fill:#FFFFFF;}
	.st10{fill-rule:evenodd;clip-rule:evenodd;fill:#192C54;}
	.st11{clip-path:url(#SVGID_14_);}
	.st12{clip-path:url(#SVGID_16_);}
	.st13{fill:none;stroke:#192C54;stroke-width:3;stroke-miterlimit:10;}
	.st14{fill:none;stroke:#000000;stroke-width:1.6;stroke-linecap:round;stroke-miterlimit:10;}
	.st15{fill:#F9BA48;}
	.st16{fill:#333333;}
	.st17{fill:none;}
	.st18{clip-path:url(#SVGID_18_);}
	.st19{clip-path:url(#SVGID_20_);}
	.st20{fill:url(#SVGID_21_);}
	.st21{fill:#2C2F33;}
</style>
<path d="M177.6,42.5h-152c-5.8,0-10.4,4.7-10.4,10.4v104.9c0,5.8,4.7,10.4,10.4,10.4h52.1v7.6c0,7-5.7,12.6-12.6,12.6H53.5
	c-2.2,0-4,1.8-4,4c0,2.2,1.8,4,4,4h96c2.2,0,4-1.8,4-4c0-2.2-1.8-4-4-4h-11.5c-7,0-12.6-5.7-12.6-12.6v-7.6h52.1
	c5.8,0,10.4-4.7,10.4-10.4V52.9C188,47.2,183.3,42.5,177.6,42.5z M25.6,50.5h152c1.4,0,2.5,1.1,2.5,2.5v76H23.1v-76
	C23.1,51.6,24.2,50.5,25.6,50.5z M117.5,175.9c0,4.8,1.6,9.1,4.3,12.6H81.3c2.7-3.5,4.3-7.9,4.3-12.6v-7.6h31.9L117.5,175.9
	L117.5,175.9z M177.6,160.3h-152c-1.4,0-2.5-1.1-2.5-2.5v-20.9H180v20.9C180,159.2,178.9,160.3,177.6,160.3z"/>
</svg>
