<?xml version="1.0" encoding="utf-8"?>
<!-- Generator: Adobe Illustrator 22.0.1, SVG Export Plug-In . SVG Version: 6.00 Build 0)  -->
<svg version="1.1" id="Capa_1" xmlns="http://www.w3.org/2000/svg" xmlns:xlink="http://www.w3.org/1999/xlink" x="0px" y="0px"
	 viewBox="0 0 204 240" style="enable-background:new 0 0 204 240;" xml:space="preserve">
<style type="text/css">
	.st0{fill:#192C54;}
	.st1{clip-path:url(#SVGID_6_);}
	.st2{fill:url(#SVGID_7_);}
	.st3{clip-path:url(#SVGID_9_);}
	.st4{fill:url(#SVGID_10_);}
	.st5{opacity:0.74;fill:#7CC5F1;}
	.st6{opacity:0.17;fill:#7CC5F1;}
	.st7{opacity:0.36;fill:#7CC5F1;}
	.st8{fill:#203873;}
	.st9{fill:#FFFFFF;}
	.st10{fill-rule:evenodd;clip-rule:evenodd;fill:#192C54;}
	.st11{clip-path:url(#SVGID_14_);}
	.st12{clip-path:url(#SVGID_16_);}
	.st13{fill:none;stroke:#192C54;stroke-width:3;stroke-miterlimit:10;}
	.st14{fill:none;stroke:#000000;stroke-width:1.6;stroke-linecap:round;stroke-miterlimit:10;}
	.st15{fill:#F9BA48;}
	.st16{fill:#333333;}
	.st17{fill:none;}
	.st18{clip-path:url(#SVGID_18_);}
	.st19{clip-path:url(#SVGID_20_);}
	.st20{fill:url(#SVGID_21_);}
	.st21{fill:#2C2F33;}
</style>
<g>
	<path d="M186.8,71.4c0-0.7-0.2-1.4-0.5-2.1c-0.6-1.3-1.8-2.2-3.1-2.5l-79.1-38.4c-1.3-0.6-2.8-0.6-4.1,0L20.1,67.2
		c-1.6,0.7-2.6,2.3-2.6,4v97.4c0,1.8,1,3.4,2.6,4.2l79.9,38.7c0,0,0,0,0.1,0c0.1,0,0.2,0.1,0.3,0.2c0,0,0.1,0,0.2,0l0.4,0.1
		c0,0,0.1,0,0.1,0c0.1,0,0.3,0,0.4,0.1h0.1c0.2,0,0.4,0,0.5,0c0.2,0,0.4,0,0.5,0h0.1c0.1,0,0.3,0,0.4-0.1c0,0,0.1,0,0.1,0l0.4-0.1
		c0,0,0.1,0,0.2,0c0.1,0,0.2-0.1,0.3-0.2c0,0,0,0,0.1,0l80.1-38.8c1.6-0.8,2.6-2.4,2.6-4.2v-97C186.8,71.5,186.8,71.4,186.8,71.4
		L186.8,71.4z M102,37.8l69.3,33.6l-25.5,12.4L76.5,50.2L102,37.8z M102,105L32.7,71.4l33.1-16L135.1,89L102,105z M26.8,78.9
		l70.6,34.2v86.7l-70.6-34.2V78.9z M106.7,199.8v-86.7L139.8,97v22.7c0,2.6,2.1,4.7,4.7,4.7c2.6,0,4.7-2.1,4.7-4.7V92.5l28.4-13.7
		v86.7L106.7,199.8z M106.7,199.8"/>
</g>
</svg>
