<?xml version="1.0" encoding="utf-8"?>
<!-- Generator: Adobe Illustrator 22.0.1, SVG Export Plug-In . SVG Version: 6.00 Build 0)  -->
<svg version="1.1" id="Capa_1" xmlns="http://www.w3.org/2000/svg" xmlns:xlink="http://www.w3.org/1999/xlink" x="0px" y="0px"
	 viewBox="0 0 204 240" style="enable-background:new 0 0 204 240;" xml:space="preserve">
<style type="text/css">
	.st0{fill:#192C54;}
	.st1{clip-path:url(#SVGID_6_);}
	.st2{fill:url(#SVGID_7_);}
	.st3{clip-path:url(#SVGID_9_);}
	.st4{fill:url(#SVGID_10_);}
	.st5{opacity:0.74;fill:#7CC5F1;}
	.st6{opacity:0.17;fill:#7CC5F1;}
	.st7{opacity:0.36;fill:#7CC5F1;}
	.st8{fill:#203873;}
	.st9{fill:#FFFFFF;}
	.st10{fill-rule:evenodd;clip-rule:evenodd;fill:#192C54;}
	.st11{clip-path:url(#SVGID_14_);}
	.st12{clip-path:url(#SVGID_16_);}
	.st13{fill:none;stroke:#192C54;stroke-width:3;stroke-miterlimit:10;}
	.st14{fill:none;stroke:#000000;stroke-width:1.6;stroke-linecap:round;stroke-miterlimit:10;}
	.st15{fill:#F9BA48;}
	.st16{fill:#333333;}
	.st17{fill:none;}
	.st18{clip-path:url(#SVGID_18_);}
	.st19{clip-path:url(#SVGID_20_);}
	.st20{fill:url(#SVGID_21_);}
	.st21{fill:#2C2F33;}
</style>
<g>
	<rect x="75.3" y="95.6" class="st15" width="52.7" height="46.4"/>
	<rect x="109.4" y="36.4" class="st16" width="6.2" height="6.2"/>
	<rect x="87.7" y="36.4" class="st16" width="18.6" height="6.2"/>
	<path class="st16" d="M112.5,199.1c0-6-4.9-10.8-10.8-10.8c-6,0-10.8,4.9-10.8,10.8s4.9,10.8,10.8,10.8
		C107.6,210,112.5,205.1,112.5,199.1L112.5,199.1z M101.6,203.8c-2.6,0-4.6-2.1-4.6-4.6c0-2.6,2.1-4.6,4.6-4.6s4.6,2.1,4.6,4.6
		C106.3,201.7,104.2,203.8,101.6,203.8L101.6,203.8z M101.6,203.8"/>
	<g>
		<path class="st17" d="M53.6,206.9c0,1.7,1.4,3.1,3.1,3.1h89.9c1.7,0,3.1-1.4,3.1-3.1v-18.6H53.6V206.9z"/>
		<path class="st17" d="M149.7,33.3c0-1.7-1.4-3.1-3.1-3.1H56.7c-1.7,0-3.1,1.4-3.1,3.1v15.5h96.1L149.7,33.3z"/>
		<path class="st16" d="M155.9,129.8l-0.1-96.5c0-5.1-4.2-9.3-9.3-9.3H56.7c-5.1,0-9.3,4.2-9.3,9.3v173.6c0,5.1,4.2,9.3,9.3,9.3
			h89.9c5.1,0,9.3-4.2,9.3-9.3v-43.4L155.9,129.8z M53.6,33.3c0-1.7,1.4-3.1,3.1-3.1h89.9c1.7,0,3.1,1.4,3.1,3.1l0,15.5H53.6V33.3z
			 M149.7,206.9c0,1.7-1.4,3.1-3.1,3.1H56.7c-1.7,0-3.1-1.4-3.1-3.1v-18.6h96.1V206.9z M149.7,182.1H53.6V55h96.1l0,77.5l-0.1,30.9
			V182.1z"/>
	</g>
	<path class="st16" d="M88,98.7c0-7.6,6.1-13.7,13.7-13.7s13.7,6.1,13.7,13.7v7.4h4.2v-7.4c0-9.9-8-17.9-17.9-17.9
		c-9.9,0-17.9,8-17.9,17.9v7.4H88V98.7z M88,98.7"/>
</g>
</svg>
