<?xml version="1.0" encoding="utf-8"?>
<!-- Generator: Adobe Illustrator 22.0.1, SVG Export Plug-In . SVG Version: 6.00 Build 0)  -->
<svg version="1.1" id="Capa_1" xmlns="http://www.w3.org/2000/svg" xmlns:xlink="http://www.w3.org/1999/xlink" x="0px" y="0px"
	 viewBox="0 0 204 240" style="enable-background:new 0 0 204 240;" xml:space="preserve">
<style type="text/css">
	.st0{fill:#192C54;}
	.st1{clip-path:url(#SVGID_6_);}
	.st2{fill:url(#SVGID_7_);}
	.st3{clip-path:url(#SVGID_9_);}
	.st4{fill:url(#SVGID_10_);}
	.st5{opacity:0.74;fill:#7CC5F1;}
	.st6{opacity:0.17;fill:#7CC5F1;}
	.st7{opacity:0.36;fill:#7CC5F1;}
	.st8{fill:#203873;}
	.st9{fill:#FFFFFF;}
	.st10{fill-rule:evenodd;clip-rule:evenodd;fill:#192C54;}
	.st11{clip-path:url(#SVGID_14_);}
	.st12{clip-path:url(#SVGID_16_);}
	.st13{fill:none;stroke:#192C54;stroke-width:3;stroke-miterlimit:10;}
	.st14{fill:none;stroke:#000000;stroke-width:1.6;stroke-linecap:round;stroke-miterlimit:10;}
	.st15{fill:#333333;}
	.st16{fill:none;}
	.st17{font-family:'MyriadPro-Regular';}
	.st18{font-size:67.4439px;}
	.st19{clip-path:url(#SVGID_18_);}
	.st20{clip-path:url(#SVGID_20_);}
	.st21{fill:url(#SVGID_21_);}
	.st22{fill:#2C2F33;}
</style>
<g>
	<rect x="109.7" y="34.7" class="st15" width="6.3" height="6.3"/>
	<rect x="87.5" y="34.7" class="st15" width="19" height="6.3"/>
	<path class="st15" d="M112.9,200.8c0-6.1-5-11.1-11.1-11.1c-6.1,0-11.1,5-11.1,11.1s5,11.1,11.1,11.1
		C107.9,211.8,112.9,206.9,112.9,200.8L112.9,200.8z M101.8,205.5c-2.6,0-4.7-2.1-4.7-4.7c0-2.6,2.1-4.7,4.7-4.7s4.7,2.1,4.7,4.7
		C106.5,203.4,104.4,205.5,101.8,205.5L101.8,205.5z M101.8,205.5"/>
	<g>
		<path class="st16" d="M52.7,208.7c0,1.7,1.4,3.2,3.2,3.2h91.8c1.7,0,3.2-1.4,3.2-3.2v-19H52.7V208.7z"/>
		<path class="st16" d="M150.8,31.5c0-1.7-1.4-3.2-3.2-3.2H55.9c-1.7,0-3.2,1.4-3.2,3.2v15.8h98.1L150.8,31.5z"/>
		<path class="st15" d="M157.2,130l-0.1-98.6c0-5.2-4.3-9.5-9.5-9.5H55.9c-5.2,0-9.5,4.3-9.5,9.5v177.2c0,5.2,4.3,9.5,9.5,9.5h91.8
			c5.2,0,9.5-4.3,9.5-9.5v-44.3L157.2,130z M52.7,31.5c0-1.7,1.4-3.2,3.2-3.2h91.8c1.7,0,3.2,1.4,3.2,3.2l0,15.8H52.7V31.5z
			 M150.8,208.7c0,1.7-1.4,3.2-3.2,3.2H55.9c-1.7,0-3.2-1.4-3.2-3.2v-19h98.1V208.7z M150.8,183.4H52.7V53.6h98.1l0,79.1l-0.1,31.6
			V183.4z"/>
	</g>
	<text transform="matrix(1 0 0 1 82.5605 140.7324)" class="st0 st17 st18">$</text>
</g>
</svg>
