<?xml version="1.0" encoding="utf-8"?>
<!-- Generator: Adobe Illustrator 22.0.1, SVG Export Plug-In . SVG Version: 6.00 Build 0)  -->
<svg version="1.1" id="Capa_1" xmlns="http://www.w3.org/2000/svg" xmlns:xlink="http://www.w3.org/1999/xlink" x="0px" y="0px"
	 viewBox="0 0 204 240" style="enable-background:new 0 0 204 240;" xml:space="preserve">
<style type="text/css">
	.st0{fill:#192C54;}
	.st1{clip-path:url(#SVGID_6_);}
	.st2{fill:url(#SVGID_7_);}
	.st3{clip-path:url(#SVGID_9_);}
	.st4{fill:url(#SVGID_10_);}
	.st5{opacity:0.74;fill:#7CC5F1;}
	.st6{opacity:0.17;fill:#7CC5F1;}
	.st7{opacity:0.36;fill:#7CC5F1;}
	.st8{fill:#203873;}
	.st9{fill:#FFFFFF;}
	.st10{fill-rule:evenodd;clip-rule:evenodd;fill:#192C54;}
	.st11{clip-path:url(#SVGID_14_);}
	.st12{clip-path:url(#SVGID_16_);}
	.st13{fill:none;stroke:#192C54;stroke-width:3;stroke-miterlimit:10;}
	.st14{fill:none;stroke:#000000;stroke-width:1.6;stroke-linecap:round;stroke-miterlimit:10;}
	.st15{clip-path:url(#SVGID_18_);}
	.st16{clip-path:url(#SVGID_20_);}
	.st17{fill:url(#SVGID_21_);}
	.st18{fill:#2C2F33;}
</style>
<path d="M18,145.8L34.4,159l3.3,20.8c0.4,2.3,2.2,4.1,4.5,4.5l20.8,3.3L76.2,204c1.5,1.8,3.9,2.5,6.1,1.6l19.7-7.5l19.7,7.5
	c0.6,0.2,1.3,0.4,1.9,0.4c1.6,0,3.1-0.7,4.2-2l13.3-16.4l20.8-3.3c2.3-0.4,4.1-2.2,4.5-4.5l3.3-20.8l16.4-13.3
	c1.8-1.5,2.5-3.9,1.6-6.1l-7.6-19.7l7.5-19.7c0.8-2.2,0.2-4.6-1.6-6.1L169.6,81l-3.3-20.8c-0.4-2.3-2.2-4.1-4.5-4.5L141,52.4
	L127.8,36c-1.5-1.8-3.9-2.5-6.1-1.6L102,41.9l-19.7-7.5c-2.2-0.8-4.6-0.2-6.1,1.6L63,52.4l-20.8,3.3c-2.3,0.4-4.1,2.2-4.5,4.5
	L34.4,81L18,94.2c-1.8,1.5-2.5,3.9-1.6,6.1l7.5,19.7l-7.5,19.7C15.6,141.9,16.2,144.3,18,145.8z M34.7,118.1l-6.9-18L42.8,88
	c1-0.8,1.7-2,1.9-3.3l3-19l19-3c1.3-0.2,2.5-0.9,3.3-1.9l12.1-14.9l17.9,6.9c1.2,0.5,2.6,0.5,3.8,0l17.9-6.9L134,60.8
	c0.8,1,2,1.7,3.3,1.9l19,3l3,19c0.2,1.3,0.9,2.5,1.9,3.3l14.9,12.1l-6.9,17.9c-0.5,1.2-0.5,2.6,0,3.8l6.9,17.9L161.2,152
	c-1,0.8-1.7,2-1.9,3.3l-3,19l-19,3c-1.3,0.2-2.5,0.9-3.3,1.9l-12.1,14.9l-17.9-6.9c-0.6-0.2-1.3-0.4-1.9-0.4s-1.3,0.1-1.9,0.4
	l-17.9,6.9L70,179.2c-0.8-1-2-1.7-3.3-1.9l-19-3l-3-19c-0.2-1.3-0.9-2.5-1.9-3.3l-14.9-12.1l6.9-17.9
	C35.2,120.7,35.2,119.3,34.7,118.1z"/>
<path d="M85.9,109.3c8.9,0,16.1-7.2,16.1-16.1S94.8,77,85.9,77s-16.1,7.2-16.1,16.1S77,109.3,85.9,109.3z M85.9,87.8
	c3,0,5.4,2.4,5.4,5.4s-2.4,5.4-5.4,5.4s-5.4-2.4-5.4-5.4S82.9,87.8,85.9,87.8z"/>
<path d="M118.1,130.7c-8.9,0-16.1,7.2-16.1,16.1c0,8.9,7.2,16.1,16.1,16.1s16.1-7.2,16.1-16.1C134.3,138,127,130.7,118.1,130.7z
	 M118.1,152.2c-3,0-5.4-2.4-5.4-5.4c0-3,2.4-5.4,5.4-5.4c3,0,5.4,2.4,5.4,5.4C123.5,149.8,121.1,152.2,118.1,152.2z"/>
<path d="M72,162c0.9,0.7,2,1,3.1,1c1.7,0,3.3-0.8,4.4-2.2l53.7-75.2c1.7-2.4,1.2-5.8-1.2-7.5c-2.4-1.7-5.8-1.2-7.5,1.2l-53.7,75.2
	C69,156.9,69.6,160.3,72,162z"/>
</svg>
