<?xml version="1.0" encoding="utf-8"?>
<!-- Generator: Adobe Illustrator 22.0.1, SVG Export Plug-In . SVG Version: 6.00 Build 0)  -->
<svg version="1.1" id="Capa_1" xmlns="http://www.w3.org/2000/svg" xmlns:xlink="http://www.w3.org/1999/xlink" x="0px" y="0px"
	 viewBox="0 0 204 240" style="enable-background:new 0 0 204 240;" xml:space="preserve">
<style type="text/css">
	.st0{fill:#192C54;}
	.st1{clip-path:url(#SVGID_6_);}
	.st2{fill:url(#SVGID_7_);}
	.st3{clip-path:url(#SVGID_9_);}
	.st4{fill:url(#SVGID_10_);}
	.st5{opacity:0.74;fill:#7CC5F1;}
	.st6{opacity:0.17;fill:#7CC5F1;}
	.st7{opacity:0.36;fill:#7CC5F1;}
	.st8{fill:#203873;}
	.st9{fill:#FFFFFF;}
	.st10{fill-rule:evenodd;clip-rule:evenodd;fill:#192C54;}
	.st11{clip-path:url(#SVGID_14_);}
	.st12{clip-path:url(#SVGID_16_);}
	.st13{fill:none;stroke:#192C54;stroke-width:3;stroke-miterlimit:10;}
	.st14{fill:none;stroke:#000000;stroke-width:1.6;stroke-linecap:round;stroke-miterlimit:10;}
	.st15{clip-path:url(#SVGID_18_);}
	.st16{clip-path:url(#SVGID_20_);}
	.st17{fill:url(#SVGID_21_);}
	.st18{fill:#2C2F33;}
</style>
<g>
	<path d="M16.1,129.9c0.2,1.9,0.4,3.9,0.9,5.7l0.4,2.2c1,5.1,2.5,10,4.6,14.6c0.3,0.7,0.6,1.5,0.9,2.1c0.7,1.6,1.5,3.3,2.4,4.9
		c0.4,0.7,0.7,1.5,1.2,2.2c0.9,1.6,1.9,3.3,3,4.9c0.3,0.4,0.6,1,1,1.5c0.1,0.2,0.1,0.3,0.3,0.4c0.1,0.1,0.3,0.3,0.3,0.4
		c2.4,3.4,5.1,6.7,8,9.8c0,0,0.1,0.1,0.1,0.3c0.2,0.3,0.4,0.4,0.7,0.7l1.8,1.8c0.3,0.2,0.5,0.4,0.7,0.7l0.1,0.2
		c3.1,3,6.5,5.8,10.1,8.3c0.1,0.1,0.3,0.3,0.4,0.3c2.2,1.5,4.6,2.8,6.8,4.2c0.4,0.3,1,0.6,1.5,0.7c1.8,1,3.7,1.9,5.6,2.7
		c0.6,0.3,1,0.4,1.6,0.7c4.8,1.9,9.8,3.6,14.9,4.6c0.6,0.1,1.3,0.3,1.9,0.4c1.9,0.3,3.9,0.7,5.9,0.9c0.7,0.1,1.5,0.1,2.2,0.3
		c2.7,0.3,5.2,0.4,7.9,0.4c18,0,34.7-5.5,48.3-14.9c0,0,0.1,0,0.1-0.1c2.1-1.3,4-2.8,6-4.5c0.3-0.3,0.6-0.4,0.9-0.7
		c1.3-1.2,2.7-2.4,4-3.7l3.1-3.1c0.7-0.7,1.3-1.6,2.1-2.4c0.7-0.9,1.6-1.6,2.2-2.7c1.5-1.8,2.8-3.6,4.2-5.5c0,0,0-0.2,0.1-0.2
		c9.5-13.8,15.2-30.6,15.2-48.8c0-2.7-0.1-5.4-0.4-7.9c0-0.7-0.2-1.5-0.3-2.2c-0.3-1.9-0.6-4-0.9-5.9c-0.2-0.6-0.3-1.3-0.4-1.9
		c-1-5.1-2.7-10.1-4.6-14.9c-0.3-0.6-0.4-1-0.7-1.6c-0.9-1.9-1.8-3.7-2.7-5.7c-0.3-0.4-0.5-1-0.7-1.5c-1.3-2.4-2.7-4.6-4.2-6.8
		l-0.4-0.4c-1-1.5-2.2-3-3.3-4.5c0-0.2,0-0.2-0.2-0.3c-0.1-0.2-0.3-0.3-0.3-0.5c-3.9-4.9-8.3-9.2-13.2-13.2
		c-0.2-0.1-0.3-0.3-0.5-0.3c0,0-0.1,0-0.3-0.1c-1.3-1-2.7-2.1-4-3c-0.1-0.1-0.3-0.3-0.4-0.3c-0.2-0.1-0.3-0.1-0.4-0.3
		c-0.4-0.3-1-0.6-1.5-0.9c-1.6-1-3.3-2.1-5.1-3c-0.7-0.4-1.5-0.7-2.2-1.2c-1.6-0.9-3.3-1.6-4.9-2.4c-0.7-0.3-1.3-0.6-2.1-0.9
		c-4.8-1.9-9.7-3.4-14.7-4.6l-2.2-0.4l-5.8-0.9c-0.7-0.1-1.5-0.1-2.4-0.3c-2.7-0.3-5.2-0.4-7.9-0.4C83,33,66.2,38.7,52.4,48.2
		c0,0-0.1,0-0.1,0.1c-1.6,1-3.1,2.2-4.6,3.4c-0.1,0.2-0.3,0.2-0.3,0.3c-4.9,3.9-9.2,8.3-13.2,13.2l-0.3,0.3
		c-1.3,1.6-2.7,3.3-3.9,5.1v0.2C20.5,84.6,15,101.3,15,119.3c0,2.7,0.1,5.4,0.4,7.9C15.9,128.2,15.9,129.1,16.1,129.9L16.1,129.9z
		 M56.1,177.9l-5.8-4.9l-1.9-1.9c-1.6-1.6-3.3-3.4-4.8-5.4l23.2-23.2c3.3,4.9,7.4,9.1,12.3,12.2L56.1,177.9z M72.1,119.6
		c0-3.6,0.7-7,1.8-10.1c0.3-1,0.7-1.9,1.2-2.8c0.4-0.9,0.9-1.8,1.5-2.7c3.4-5.4,8.3-9.4,14.3-11.7c3.3-1.3,6.8-1.9,10.6-1.9
		c0.9,0,1.9,0,2.8,0.1c0.6,0,1.2,0.2,1.8,0.3c0.3,0,0.6,0.2,0.9,0.2c0.7,0.1,1.6,0.3,2.4,0.6h0.3c0.9,0.3,1.6,0.4,2.5,0.9
		c8,3.1,14.3,9.4,17.3,17.4c0.3,0.7,0.6,1.6,0.7,2.4v0.2l0.4,2.2c0,0.3,0.1,0.6,0.1,0.9c0.2,0.6,0.2,1.2,0.3,1.6
		c0.2,0.9,0.2,1.8,0.2,2.7c0,3.7-0.7,7.3-1.9,10.6c-2.2,5.9-6.4,11-11.7,14.3c-0.9,0.6-1.8,1-2.7,1.5c-0.9,0.4-1.9,0.9-2.8,1.2
		c-3.1,1.2-6.5,1.8-10.1,1.8c-0.9,0-1.8,0-2.7-0.1c-0.6,0-1-0.2-1.6-0.3c-0.3,0-0.6-0.2-0.9-0.2l-2.2-0.4h-0.1
		c-0.7-0.3-1.6-0.4-2.4-0.7c-8-3-14.4-9.2-17.4-17.3c-0.3-0.9-0.6-1.6-0.9-2.5v-0.2c-0.1-0.7-0.4-1.5-0.6-2.4c0-0.3-0.1-0.6-0.1-0.9
		c-0.2-0.6-0.2-1.2-0.3-1.8C72.1,121.5,72.1,120.5,72.1,119.6L72.1,119.6z M101.7,193.8c-2.2,0-4.6-0.2-6.8-0.3
		c-0.4,0-0.9-0.2-1.3-0.2c-2.2-0.3-4.3-0.6-6.4-1c-0.3,0-0.6-0.1-1-0.1c-2.1-0.5-4-0.9-6.1-1.5c-0.2,0-0.3-0.2-0.6-0.2
		c-2.1-0.6-4.2-1.5-6.2-2.2l-0.9-0.4c-2.1-0.9-4-1.8-6.1-3L91,160h0.4c1.3,0.3,2.8,0.6,4.2,0.9c0.3,0,0.7,0.1,1,0.1
		c1.6,0.2,3.3,0.3,4.9,0.3c3.7,0,7.1-0.4,10.6-1.3l24.8,24.8C126.6,190.5,114.5,193.8,101.7,193.8L101.7,193.8z M159.4,166.1
		c-0.9,1-1.8,2.1-2.7,3c-0.6,0.6-1.2,1.3-1.8,1.9l-1.8,1.8c-1.2,1.2-2.4,2.4-3.7,3.4c-0.3,0.3-0.7,0.6-1,0.9
		c-0.3,0.3-0.6,0.4-0.9,0.7l-23.4-23.2c0,0,0.2,0,0.2-0.2l3.1-2.2c0.1-0.2,0.3-0.2,0.3-0.3c3.4-2.7,6.2-5.9,8.8-9.5l23.2,23.2
		C159.6,165.8,159.6,166,159.4,166.1L159.4,166.1z M166.9,84.2c1,1.9,2.1,4,3,6.1l0.4,0.9c0.9,2.1,1.6,4.2,2.2,6.2
		c0,0.1,0.2,0.3,0.2,0.6c0.6,1.9,1.2,4,1.6,6.1c0,0.3,0.2,0.6,0.2,1c0.4,2.1,0.7,4.3,1,6.4c0,0.4,0.1,0.9,0.1,1.3
		c0.2,2.2,0.3,4.5,0.3,6.8c0,12.9-3.4,25.1-9.2,35.8l-24.8-24.8c1-3.6,1.5-7.3,1.5-11.2c0-1.6-0.1-3.4-0.3-5.1
		c0-0.3-0.1-0.6-0.1-0.9c-0.2-1.5-0.4-2.8-0.9-4.3V109L166.9,84.2z M147.8,61.6l11.9,11.9l0.3,0.3l-23.2,23.3
		c-3.1-4.9-7.3-9.1-12.2-12.3L147.8,61.6z M101.7,45.4c2.2,0,4.6,0.1,6.8,0.3c0.4,0,0.9,0.1,1.3,0.1c2.2,0.3,4.3,0.6,6.4,1
		c0.3,0,0.7,0.1,1,0.3c1.9,0.4,3.7,0.9,5.6,1.5c0.3,0.2,0.7,0.2,1,0.3c2.1,0.6,4,1.3,5.9,2.2c0.4,0.1,0.9,0.4,1.3,0.6
		c1.6,0.7,3.4,1.5,5.1,2.4l0.9,0.5c0.1,0,0.1,0.1,0.3,0.1l-24.7,24.7c-0.2,0-0.3,0-0.5-0.2c-1.5-0.4-3-0.7-4.5-0.9
		c-0.4,0-0.7-0.1-1.2-0.1c-1.6-0.2-3.4-0.3-5.2-0.3c-3.9,0-7.6,0.6-11.2,1.5L65.9,54.8C76.6,48.8,88.8,45.4,101.7,45.4L101.7,45.4z
		 M43.7,73.6l12-12L79,84.8c-3.6,2.4-6.8,5.4-9.5,8.8c-0.2,0.2-0.2,0.3-0.3,0.3L66.9,97c0,0,0,0.2-0.2,0.2L43.4,73.9
		C43.6,73.8,43.6,73.6,43.7,73.6L43.7,73.6z M36.6,84.2L61.4,109c-0.9,3.4-1.3,6.8-1.3,10.6c0,1.8,0.2,3.4,0.3,5.2
		c0,0.5,0.2,0.7,0.2,1.2l0.9,4.5c0,0.2,0,0.3,0.1,0.5l-24.7,24.5c0-0.1-0.2-0.1-0.2-0.3c-0.1-0.3-0.3-0.6-0.4-1
		c-0.9-1.6-1.6-3.3-2.4-4.9c-0.2-0.4-0.4-0.9-0.6-1.3c-0.7-1.9-1.5-3.9-2.2-6c-0.2-0.4-0.2-0.7-0.3-1.2c-0.6-1.8-1-3.7-1.5-5.5
		c-0.1-0.3-0.1-0.7-0.3-1c-0.4-2.1-0.7-4.2-1-6.4c0-0.4-0.2-0.9-0.2-1.5c-0.1-2.2-0.3-4.5-0.3-6.8C27.5,106.8,30.8,94.8,36.6,84.2
		L36.6,84.2z M36.6,84.2"/>
</g>
</svg>
