<?xml version="1.0" encoding="utf-8"?>
<!-- Generator: Adobe Illustrator 22.0.1, SVG Export Plug-In . SVG Version: 6.00 Build 0)  -->
<svg version="1.1" id="Capa_1" xmlns="http://www.w3.org/2000/svg" xmlns:xlink="http://www.w3.org/1999/xlink" x="0px" y="0px"
	 viewBox="0 0 204 240" style="enable-background:new 0 0 204 240;" xml:space="preserve">
<style type="text/css">
	.st0{fill:#192C54;}
	.st1{clip-path:url(#SVGID_6_);}
	.st2{fill:url(#SVGID_7_);}
	.st3{clip-path:url(#SVGID_9_);}
	.st4{fill:url(#SVGID_10_);}
	.st5{opacity:0.74;fill:#7CC5F1;}
	.st6{opacity:0.17;fill:#7CC5F1;}
	.st7{opacity:0.36;fill:#7CC5F1;}
	.st8{fill:#203873;}
	.st9{fill:#FFFFFF;}
	.st10{fill-rule:evenodd;clip-rule:evenodd;fill:#192C54;}
	.st11{clip-path:url(#SVGID_14_);}
	.st12{clip-path:url(#SVGID_16_);}
	.st13{fill:none;stroke:#192C54;stroke-width:3;stroke-miterlimit:10;}
	.st14{fill:none;stroke:#000000;stroke-width:1.6;stroke-linecap:round;stroke-miterlimit:10;}
	.st15{fill:#F9BA48;}
	.st16{fill:#333333;}
	.st17{fill:none;}
	.st18{clip-path:url(#SVGID_18_);}
	.st19{clip-path:url(#SVGID_20_);}
	.st20{fill:url(#SVGID_21_);}
	.st21{fill:#2C2F33;}
	.st22{clip-path:url(#SVGID_25_);fill:#2C2F33;}
</style>
<g>
	<path class="st0" d="M60.6,165.1c0,13.1-10.6,23.7-23.7,23.7c-13.1,0-23.7-10.6-23.7-23.7c0-13.1,10.6-23.7,23.7-23.7
		C50,141.5,60.6,152.1,60.6,165.1L60.6,165.1z M60.6,165.1"/>
	<path class="st0" d="M190.7,165.1c0,13.1-10.6,23.7-23.7,23.7c-13.1,0-23.7-10.6-23.7-23.7c0-13.1,10.6-23.7,23.7-23.7
		C180.1,141.5,190.7,152.1,190.7,165.1L190.7,165.1z M190.7,165.1"/>
	<path class="st0" d="M124.4,51.9c0,13.1-10.6,23.7-23.7,23.7c-13.1,0-23.7-10.6-23.7-23.7c0-13.1,10.6-23.7,23.7-23.7
		C113.8,28.2,124.4,38.8,124.4,51.9L124.4,51.9z M124.4,51.9"/>
	<g>
		<defs>
			<rect id="SVGID_24_" x="9.9" y="24.8" width="184.1" height="182.2"/>
		</defs>
		<clipPath id="SVGID_2_">
			<use xlink:href="#SVGID_24_"  style="overflow:visible;"/>
		</clipPath>
		<path style="clip-path:url(#SVGID_2_);fill:#2C2F33;" d="M137.4,194.2c-0.8-1.7-2.9-2.4-4.5-1.6c-9.7,4.7-20.2,7.1-31.1,7.1
			c-16.5,0-32.4-5.7-45.1-16c4.6-4.8,7.4-11.4,7.4-18.6c0-14.9-12.1-27.1-27.1-27.1c-14.9,0-27.1,12.1-27.1,27.1
			c0,14.9,12.1,27.1,27.1,27.1c5.2,0,10.1-1.5,14.3-4.1c14.1,11.9,31.9,18.4,50.5,18.4c11.9,0,23.4-2.6,34.1-7.8
			C137.5,197.9,138.2,195.9,137.4,194.2L137.4,194.2z M16.7,165.1c0-11.2,9.1-20.3,20.3-20.3c11.2,0,20.3,9.1,20.3,20.3
			c0,11.2-9.1,20.3-20.3,20.3C25.8,185.4,16.7,176.3,16.7,165.1L16.7,165.1z M16.7,165.1"/>
		<path style="clip-path:url(#SVGID_2_);fill:#2C2F33;" d="M23.5,124.5c-0.1,1.9,1.4,3.5,3.3,3.5h0.1c1.8,0,3.3-1.5,3.4-3.3
			c0.8-24.4,13.8-46.4,34.6-59c3.3-2,6.7-3.7,10.2-5.1c3.6,10.6,13.8,18.3,25.6,18.3c14.9,0,27.1-12.1,27.1-27.1
			c0-14.9-12.1-27.1-27.1-27.1c-14.9,0-27.1,12.1-27.1,27.1c0,0.7,0,1.3,0.1,2c-4.2,1.7-8.4,3.7-12.3,6
			C38.6,73.6,24.4,97.8,23.5,124.5L23.5,124.5z M100.8,31.6c11.2,0,20.3,9.1,20.3,20.3c0,11.2-9.1,20.2-20.3,20.2
			c-11.2,0-20.3-9.1-20.3-20.3C80.5,40.7,89.6,31.6,100.8,31.6L100.8,31.6z M100.8,31.6"/>
		<path style="clip-path:url(#SVGID_2_);fill:#2C2F33;" d="M167,138.1c-14.9,0-27.1,12.1-27.1,27.1c0,14.9,12.1,27.1,27.1,27.1
			c14.9,0,27.1-12.1,27.1-27.1c0-10.5-6-19.6-14.8-24.1c0.8-4.4,1.2-8.9,1.2-13.5c0-26.7-13.4-51.3-35.8-65.9c-1.6-1-3.7-0.6-4.7,1
			c-1,1.6-0.6,3.7,1,4.7c20.5,13.3,32.7,35.8,32.7,60.2c0,3.7-0.3,7.4-0.9,11.1C170.9,138.3,169,138.1,167,138.1L167,138.1z
			 M187.2,165.1c0,11.2-9.1,20.3-20.3,20.3c-11.2,0-20.3-9.1-20.3-20.3c0-11.2,9.1-20.3,20.3-20.3
			C178.1,144.9,187.2,154,187.2,165.1L187.2,165.1z M187.2,165.1"/>
	</g>
</g>
</svg>
