<?xml version="1.0" encoding="utf-8"?>
<!-- Generator: Adobe Illustrator 22.0.1, SVG Export Plug-In . SVG Version: 6.00 Build 0)  -->
<svg version="1.1" id="Capa_1" xmlns="http://www.w3.org/2000/svg" xmlns:xlink="http://www.w3.org/1999/xlink" x="0px" y="0px"
	 viewBox="0 0 204 240" style="enable-background:new 0 0 204 240;" xml:space="preserve">
<style type="text/css">
	.st0{fill:#192C54;}
	.st1{clip-path:url(#SVGID_6_);}
	.st2{fill:url(#SVGID_7_);}
	.st3{clip-path:url(#SVGID_9_);}
	.st4{fill:url(#SVGID_10_);}
	.st5{opacity:0.74;fill:#7CC5F1;}
	.st6{opacity:0.17;fill:#7CC5F1;}
	.st7{opacity:0.36;fill:#7CC5F1;}
	.st8{fill:#203873;}
	.st9{fill:#FFFFFF;}
	.st10{fill-rule:evenodd;clip-rule:evenodd;fill:#192C54;}
	.st11{clip-path:url(#SVGID_14_);}
	.st12{clip-path:url(#SVGID_16_);}
	.st13{fill:none;stroke:#192C54;stroke-width:3;stroke-miterlimit:10;}
	.st14{fill:none;stroke:#000000;stroke-width:1.6;stroke-linecap:round;stroke-miterlimit:10;}
	.st15{fill:#F9BA48;}
	.st16{fill:#333333;}
	.st17{fill:none;}
	.st18{clip-path:url(#SVGID_18_);}
	.st19{clip-path:url(#SVGID_20_);}
	.st20{fill:url(#SVGID_21_);}
	.st21{fill:#2C2F33;}
	.st22{fill:#3C92CA;}
	.st23{clip-path:url(#SVGID_25_);}
</style>
<g>
	<path class="st22" d="M123.1,130.2c0,11.7-9.5,21.1-21.1,21.1c-11.7,0-21.1-9.5-21.1-21.1c0-11.7,9.5-21.1,21.1-21.1
		C113.6,109.1,123.1,118.5,123.1,130.2L123.1,130.2z M123.1,130.2"/>
	<g>
		<defs>
			<rect id="SVGID_24_" x="13.9" y="42.2" width="176.1" height="176.5"/>
		</defs>
		<clipPath id="SVGID_2_">
			<use xlink:href="#SVGID_24_"  style="overflow:visible;"/>
		</clipPath>
		<path style="clip-path:url(#SVGID_2_);" d="M102,154.6c-13.4,0-24.4-10.9-24.4-24.4c0-13.4,10.9-24.4,24.4-24.4
			c13.4,0,24.4,10.9,24.4,24.4C126.3,143.6,115.4,154.6,102,154.6L102,154.6z M102,112.3c-9.8,0-17.9,8-17.9,17.9
			c0,9.8,8,17.9,17.9,17.9c9.8,0,17.9-8,17.9-17.9C119.8,120.4,111.8,112.3,102,112.3L102,112.3z M102,112.3"/>
		<path style="clip-path:url(#SVGID_2_);" d="M102,91.5c1.8,0,3.3-1.5,3.3-3.3v-35l7.3,7.3c0.6,0.6,1.5,1,2.3,1c0.8,0,1.7-0.3,2.3-1
			c1.3-1.3,1.3-3.3,0-4.6l-12.8-12.8c-1.3-1.3-3.3-1.3-4.6,0L86.8,56c-1.3,1.3-1.3,3.3,0,4.6c1.3,1.3,3.3,1.3,4.6,0l7.3-7.3v35
			C98.7,90.1,100.2,91.5,102,91.5L102,91.5z M102,91.5"/>
		<path style="clip-path:url(#SVGID_2_);" d="M86.8,204.5l12.8,12.8c0.6,0.6,1.5,1,2.3,1c0.8,0,1.7-0.3,2.3-1l12.8-12.8
			c1.3-1.3,1.3-3.3,0-4.6c-1.3-1.3-3.3-1.3-4.6,0l-7.3,7.3v-35c0-1.8-1.5-3.3-3.3-3.3c-1.8,0-3.3,1.5-3.3,3.3v35l-7.3-7.3
			c-1.3-1.3-3.3-1.3-4.6,0C85.6,201.1,85.6,203.2,86.8,204.5L86.8,204.5z M86.8,204.5"/>
		<path style="clip-path:url(#SVGID_2_);" d="M27.7,145.3c0.6,0.6,1.5,1,2.3,1c0.8,0,1.7-0.3,2.3-1c1.3-1.3,1.3-3.3,0-4.6l-7.3-7.3
			h35c1.8,0,3.3-1.5,3.3-3.3s-1.5-3.3-3.3-3.3H25l7.3-7.3c1.3-1.3,1.3-3.3,0-4.6c-1.3-1.3-3.3-1.3-4.6,0l-12.8,12.8
			c-1.3,1.3-1.3,3.3,0,4.6L27.7,145.3z M27.7,145.3"/>
		<path style="clip-path:url(#SVGID_2_);" d="M140.6,130.2c0,1.8,1.5,3.3,3.3,3.3h35l-7.3,7.3c-1.3,1.3-1.3,3.3,0,4.6
			c0.6,0.6,1.5,1,2.3,1c0.8,0,1.7-0.3,2.3-1l12.8-12.8c1.3-1.3,1.3-3.3,0-4.6l-12.8-12.8c-1.3-1.3-3.3-1.3-4.6,0
			c-1.3,1.3-1.3,3.3,0,4.6l7.3,7.3h-35C142.1,126.9,140.6,128.4,140.6,130.2L140.6,130.2z M140.6,130.2"/>
	</g>
	<path d="M63.4,70.3c0-1.8-1.5-3.3-3.3-3.3H42c-1.8,0-3.3,1.5-3.3,3.3v18.1c0,1.8,1.5,3.3,3.3,3.3s3.3-1.5,3.3-3.3V78.1L70,102.9
		c0.6,0.6,1.5,1,2.3,1c0.8,0,1.7-0.3,2.3-1c1.3-1.3,1.3-3.3,0-4.6L49.9,73.5h10.3C61.9,73.5,63.4,72.1,63.4,70.3L63.4,70.3z
		 M63.4,70.3"/>
	<path d="M129.3,162.2l24.7,24.7h-10.3c-1.8,0-3.3,1.5-3.3,3.3c0,1.8,1.5,3.3,3.3,3.3h18.2c1.8,0,3.3-1.5,3.3-3.3V172
		c0-1.8-1.5-3.3-3.3-3.3c-1.8,0-3.3,1.5-3.3,3.3v10.3l-24.7-24.7c-1.3-1.3-3.3-1.3-4.6,0C128,158.8,128,160.9,129.3,162.2
		L129.3,162.2z M129.3,162.2"/>
	<path d="M42,168.7c-1.8,0-3.3,1.5-3.3,3.3v18.2c0,1.8,1.5,3.3,3.3,3.3h18.1c1.8,0,3.3-1.5,3.3-3.3c0-1.8-1.5-3.3-3.3-3.3H49.9
		l24.7-24.7c1.3-1.3,1.3-3.3,0-4.6c-1.3-1.3-3.3-1.3-4.6,0l-24.7,24.7V172C45.3,170.2,43.8,168.7,42,168.7L42,168.7z M42,168.7"/>
	<path d="M129.3,102.9c0.6,0.6,1.5,1,2.3,1c0.8,0,1.7-0.3,2.3-1l24.7-24.7v10.3c0,1.8,1.5,3.3,3.3,3.3c1.8,0,3.3-1.5,3.3-3.3V70.3
		c0-1.8-1.5-3.3-3.3-3.3h-18.2c-1.8,0-3.3,1.5-3.3,3.3c0,1.8,1.5,3.3,3.3,3.3H154l-24.7,24.7C128,99.5,128,101.6,129.3,102.9
		L129.3,102.9z M129.3,102.9"/>
</g>
</svg>
