<?xml version="1.0" encoding="utf-8"?>
<!-- Generator: Adobe Illustrator 22.0.1, SVG Export Plug-In . SVG Version: 6.00 Build 0)  -->
<svg version="1.1" id="Capa_1" xmlns="http://www.w3.org/2000/svg" xmlns:xlink="http://www.w3.org/1999/xlink" x="0px" y="0px"
	 viewBox="0 0 204 240" style="enable-background:new 0 0 204 240;" xml:space="preserve">
<style type="text/css">
	.st0{fill:#192C54;}
	.st1{clip-path:url(#SVGID_6_);}
	.st2{fill:url(#SVGID_7_);}
	.st3{clip-path:url(#SVGID_9_);}
	.st4{fill:url(#SVGID_10_);}
	.st5{opacity:0.74;fill:#7CC5F1;}
	.st6{opacity:0.17;fill:#7CC5F1;}
	.st7{opacity:0.36;fill:#7CC5F1;}
	.st8{fill:#203873;}
	.st9{fill:#FFFFFF;}
	.st10{fill-rule:evenodd;clip-rule:evenodd;fill:#192C54;}
	.st11{clip-path:url(#SVGID_14_);}
	.st12{clip-path:url(#SVGID_16_);}
	.st13{fill:none;stroke:#192C54;stroke-width:3;stroke-miterlimit:10;}
	.st14{fill:none;stroke:#000000;stroke-width:1.6;stroke-linecap:round;stroke-miterlimit:10;}
	.st15{fill:#F9BA48;}
	.st16{fill:#333333;}
	.st17{fill:none;}
	.st18{clip-path:url(#SVGID_18_);}
	.st19{clip-path:url(#SVGID_20_);}
	.st20{fill:url(#SVGID_21_);}
	.st21{fill:#2C2F33;}
</style>
<path d="M112.7,164.2l6,6c1,1,2.4,1.3,3.7,0.8l6.8-2.6l40.4,40.4c2.1,2.1,4.9,3.2,7.6,3.2c2.8,0,5.5-1.1,7.6-3.2l5.9-5.9
	c4.2-4.2,4.2-11.1,0-15.3l-40.4-40.4l2.6-6.8c0.5-1.3,0.2-2.7-0.8-3.7l-6-6c-1.4-1.4-3.5-1.4-4.9,0l-7.6,7.6l-15.8-15.8L153,87.4
	c3.4-3.4,7.6-6,12.3-7.5c4-1.3,7.7-3.5,10.7-6.5c5.2-5.2,7.9-12,7.8-19.3c-0.1-7.3-3.1-14.1-8.5-19.1c-0.9-0.8-2.1-1.1-3.3-0.8
	c-1.2,0.3-2.1,1.2-2.4,2.3l-4.4,14.1c-0.5,1.7-1.7,3.2-3.3,4c-1.6,0.8-3.5,1-5.2,0.5c-2.9-0.9-4.8-3.5-4.8-6.5c0-0.7,0.1-1.4,0.3-2
	l4.3-13.9c0.4-1.1,0.1-2.4-0.7-3.3c-0.8-0.9-2-1.3-3.2-1.1c-5,0.8-9.6,3-13.3,6.3c-6.6,5.8-9.9,14.4-8.9,23.1
	c1,8.9-2.2,17.8-8.7,24.3l-22.3,22.3L51.4,55.9l-0.9-9.4c-0.1-1.1-0.7-2-1.6-2.6L24.4,28.5c-1.4-0.9-3.1-0.7-4.3,0.5L11,38.1
	c-1.1,1.1-1.3,2.9-0.5,4.3l15.3,24.5c0.6,0.9,1.5,1.5,2.6,1.6l9.4,0.9l48.1,48.1L51,152.6c-3.4,3.4-7.6,6-12.3,7.5
	c-4.1,1.3-7.7,3.5-10.7,6.5c-5.2,5.2-7.9,12-7.8,19.3c0.1,7.3,3.1,14.1,8.5,19.1c0.9,0.8,2.1,1.1,3.3,0.8c1.2-0.3,2.1-1.2,2.4-2.3
	l4.4-14.1c0.5-1.7,1.7-3.2,3.3-4c1.6-0.8,3.4-1,5.1-0.5c0,0,0.1,0,0.1,0c3.6,1.1,5.6,5,4.5,8.5l-4.3,13.9c-0.4,1.1-0.1,2.4,0.7,3.3
	c0.7,0.8,1.6,1.2,2.6,1.2c0.2,0,0.4,0,0.6,0c4.9-0.8,9.5-3,13.3-6.3c6.6-5.8,9.9-14.4,8.9-23.1c-1-8.9,2.2-17.8,8.7-24.3l22.3-22.3
	l15.8,15.8l-7.6,7.6C111.4,160.7,111.4,162.9,112.7,164.2z M146.4,153l39.5,39.5c1.5,1.5,1.5,4,0,5.5l-5.9,5.9c-1.5,1.5-4,1.5-5.5,0
	L135,164.4L146.4,153z M126.7,86.7c8-8,11.9-18.9,10.7-30c-0.7-6.4,1.8-12.8,6.6-17.1c1.2-1.1,2.5-2,4-2.7l-2.4,7.6
	c-0.4,1.3-0.6,2.7-0.6,4.1c0,6,3.9,11.3,9.7,13.1c7.2,2.3,15-1.8,17.2-9l2.4-7.8c1.6,2.8,2.5,6,2.5,9.4c0.1,5.4-2,10.5-5.8,14.3
	c-2.2,2.2-4.9,3.9-7.9,4.8c-5.7,1.8-11,5-15.1,9.2L113,117.6l-8.6-8.6L126.7,86.7z M77.3,153.3c-8,8-11.9,19-10.7,30
	c0.7,6.4-1.8,12.8-6.6,17.1c-1.2,1.1-2.5,2-4,2.7l2.4-7.6c2.2-7.2-1.7-14.8-8.8-17.2c-0.1,0-0.1,0-0.2-0.1c-3.5-1.1-7.2-0.8-10.5,1
	c-3.3,1.7-5.6,4.6-6.7,8.1l-2.5,7.8c-1.6-2.8-2.5-6-2.5-9.4c-0.1-5.4,2-10.5,5.8-14.3c2.2-2.2,4.9-3.9,7.9-4.8
	c5.7-1.8,11-5,15.1-9.2L91,122.4l8.6,8.6L77.3,153.3z M41.6,63.2c-0.7-0.7-1.6-1-2.5-1c-0.4,0-0.8,0.1-1.1,0.2l-7.2-0.7l-13-20.7
	l5.2-5.2l20.7,13l0.7,7.2c-0.1,0.4-0.2,0.8-0.2,1.1c0,0.9,0.4,1.8,1,2.4l83.6,83.6l-3.6,3.6L41.6,63.2z M143.8,138.1l2,2l-2.3,6.1
	l-15.3,15.3l-6.1,2.3l-2-2L143.8,138.1z"/>
</svg>
