<?xml version="1.0" encoding="utf-8"?>
<!-- Generator: Adobe Illustrator 22.0.1, SVG Export Plug-In . SVG Version: 6.00 Build 0)  -->
<svg version="1.1" id="Capa_1" xmlns="http://www.w3.org/2000/svg" xmlns:xlink="http://www.w3.org/1999/xlink" x="0px" y="0px"
	 viewBox="0 0 204 240" style="enable-background:new 0 0 204 240;" xml:space="preserve">
<style type="text/css">
	.st0{fill:#192C54;}
	.st1{clip-path:url(#SVGID_6_);}
	.st2{fill:url(#SVGID_7_);}
	.st3{clip-path:url(#SVGID_9_);}
	.st4{fill:url(#SVGID_10_);}
	.st5{opacity:0.74;fill:#7CC5F1;}
	.st6{opacity:0.17;fill:#7CC5F1;}
	.st7{opacity:0.36;fill:#7CC5F1;}
	.st8{fill:#203873;}
	.st9{fill:#FFFFFF;}
	.st10{fill-rule:evenodd;clip-rule:evenodd;fill:#192C54;}
	.st11{clip-path:url(#SVGID_14_);}
	.st12{clip-path:url(#SVGID_16_);}
	.st13{fill:none;stroke:#192C54;stroke-width:3;stroke-miterlimit:10;}
	.st14{fill:none;stroke:#000000;stroke-width:1.6;stroke-linecap:round;stroke-miterlimit:10;}
	.st15{fill:#F9BA48;}
	.st16{fill:#333333;}
	.st17{fill:none;}
	.st18{clip-path:url(#SVGID_18_);}
	.st19{clip-path:url(#SVGID_20_);}
	.st20{fill:url(#SVGID_21_);}
	.st21{fill:#2C2F33;}
</style>
<g>
	<path d="M104.2,93.1c-6,0-11.4-2.2-14.8-6.1c-2.8-3.1-4.1-7.1-3.6-11.2c1.1-9,10.6-16.3,21.3-16.3c6,0,11.4,2.3,14.9,6.2
		c2.8,3.1,4.1,7.1,3.6,11.1C124.6,85.9,115.2,93.1,104.2,93.1z M107.2,68.1c-6.3,0-12.2,4-12.8,8.7c-0.2,1.7,0.3,3.2,1.5,4.5
		c1.8,2,4.9,3.2,8.3,3.2c6.4,0,12.3-4,12.9-8.7c0.2-2-0.7-3.5-1.5-4.4C113.8,69.3,110.6,68.1,107.2,68.1z"/>
	<path d="M99.6,176.5c-0.4,0-10,0.4-16.4-7.3c-3.9-4.8-5.2-11.4-3.9-19c0,0,0,0,0,0c0.4-2.4,3.7-19.1,4-20.2
		c2.4-11.8-0.1-13.5-1.2-14.3c-0.7-0.5-1.6-1.2-2.3-2.4c-0.5-1-1.2-2.9,0.2-5.4c3-5.5,12.8-11.1,22.1-10.3c6.3,0.5,11.7,3.2,15,7.7
		c3.7,4.9,4.9,11.5,3.4,19.1c0,0,0,0,0,0c-1.5,7-2.8,13.2-3.5,16.6c-0.3,1.5-0.5,2.4-0.6,2.7c-2,11.8,0.5,13.5,1.6,14.2
		c0.7,0.5,1.7,1.1,2.3,2.3c0.5,1,1.3,2.9-0.1,5.4C117.6,170.9,108.6,176.5,99.6,176.5z M87.8,151.6c-0.9,5.1-0.1,9.3,2.2,12.1
		c2,2.5,5.1,3.9,8.9,4.1c2.7,0.1,5.8-0.6,8.7-2.1c1.5-0.8,2.6-1.6,3.5-2.3c-3.1-3.1-5.4-8.6-3.2-21.2c0,0,0,0,0,0
		c0-0.2,0.1-0.7,0.6-2.9c0.7-3.4,2.1-9.6,3.5-16.5c1-5,0.4-9.2-1.8-12.2c-1.9-2.5-4.9-4-8.8-4.3c-2.7-0.2-5.9,0.5-8.8,1.9
		c-1.5,0.7-2.7,1.5-3.6,2.3c3.1,3.2,5.1,8.8,2.6,21.3c0,0,0,0,0,0C91.6,132.3,88.3,149.1,87.8,151.6z"/>
	<path d="M177.7,201.4c-0.5,0-1-0.1-1.5-0.3l-31.4-11.8c-13.1,6.5-27.9,9.9-42.9,9.9c-24,0-46.6-8.5-63.6-24
		c-17.1-15.6-26.5-36.3-26.5-58.4S21.2,74,38.4,58.4c17-15.5,39.6-24,63.6-24s46.6,8.5,63.6,24C182.6,74,192,94.8,192,116.8
		c0,18-6.5,35.7-18.4,50l8.3,29.1c0.4,1.6,0,3.3-1.2,4.4C179.8,201,178.8,201.4,177.7,201.4z M101.9,43.1
		c-44.9,0-81.4,33.1-81.4,73.8s36.5,73.8,81.4,73.8c14.3,0,28.3-3.4,40.6-9.8c1.1-0.6,2.4-0.6,3.5-0.2l25.1,9.4l-6.6-23
		c-0.4-1.4-0.1-2.9,0.9-4.1c11.7-13.2,17.8-29.1,17.8-46C183.4,76.2,146.8,43.1,101.9,43.1z"/>
</g>
</svg>
