<?xml version="1.0" encoding="utf-8"?>
<!-- Generator: Adobe Illustrator 22.0.1, SVG Export Plug-In . SVG Version: 6.00 Build 0)  -->
<svg version="1.1" id="Capa_1" xmlns="http://www.w3.org/2000/svg" xmlns:xlink="http://www.w3.org/1999/xlink" x="0px" y="0px"
	 viewBox="0 0 204 240" style="enable-background:new 0 0 204 240;" xml:space="preserve">
<style type="text/css">
	.st0{fill:#192C54;}
	.st1{clip-path:url(#SVGID_6_);}
	.st2{fill:url(#SVGID_7_);}
	.st3{clip-path:url(#SVGID_9_);}
	.st4{fill:url(#SVGID_10_);}
	.st5{opacity:0.74;fill:#7CC5F1;}
	.st6{opacity:0.17;fill:#7CC5F1;}
	.st7{opacity:0.36;fill:#7CC5F1;}
	.st8{fill:#203873;}
	.st9{fill:#FFFFFF;}
	.st10{fill-rule:evenodd;clip-rule:evenodd;fill:#192C54;}
	.st11{clip-path:url(#SVGID_14_);}
	.st12{clip-path:url(#SVGID_16_);}
	.st13{fill:none;stroke:#192C54;stroke-width:3;stroke-miterlimit:10;}
	.st14{fill:none;stroke:#000000;stroke-width:1.6;stroke-linecap:round;stroke-miterlimit:10;}
	.st15{fill:#F9BA48;}
	.st16{fill:#333333;}
	.st17{fill:none;}
	.st18{clip-path:url(#SVGID_18_);}
	.st19{clip-path:url(#SVGID_20_);}
	.st20{fill:url(#SVGID_21_);}
	.st21{fill:#2C2F33;}
	.st22{clip-path:url(#SVGID_25_);}
</style>
<g>
	<g>
		<defs>
			<rect id="SVGID_24_" x="17.8" y="32" width="169.2" height="177"/>
		</defs>
		<clipPath id="SVGID_2_">
			<use xlink:href="#SVGID_24_"  style="overflow:visible;"/>
		</clipPath>
		<path style="clip-path:url(#SVGID_2_);" d="M46.4,39.8c1.1-1.1,1.1-3,0-4.1c-1.1-1.1-2.9-1.1-4.1,0c-32.7,32.7-32.7,85.9,0,118.6
			c0.6,0.6,1.3,0.8,2,0.8c0.7,0,1.5-0.3,2-0.8c1.1-1.1,1.1-3,0-4.1C16,119.8,16,70.3,46.4,39.8L46.4,39.8z M46.4,39.8"/>
	</g>
	<path d="M160.9,35.7c-1.1-1.1-3-1.1-4.1,0c-1.1,1.1-1.1,3,0,4.1c14.7,14.7,22.8,34.3,22.8,55.2c0,20.9-8.1,40.5-22.8,55.2
		c-1.1,1.1-1.1,2.9,0,4.1c0.6,0.6,1.3,0.8,2,0.8c0.7,0,1.5-0.3,2-0.8c15.8-15.8,24.5-36.9,24.5-59.3
		C185.5,72.6,176.7,51.6,160.9,35.7L160.9,35.7z M160.9,35.7"/>
	<path d="M58.7,52.1c1.1-1.1,1.1-3,0-4.1c-1.1-1.1-3-1.1-4.1,0c-25.9,25.9-25.9,68.1,0,94c0.6,0.6,1.3,0.8,2,0.8
		c0.7,0,1.5-0.3,2-0.8c1.1-1.1,1.1-2.9,0-4.1C35,114.3,35,75.8,58.7,52.1L58.7,52.1z M58.7,52.1"/>
	<path d="M148.7,48c-1.1-1.1-2.9-1.1-4.1,0c-1.1,1.1-1.1,2.9,0,4.1c23.7,23.7,23.7,62.2,0,85.9c-1.1,1.1-1.1,3,0,4.1
		c0.6,0.6,1.3,0.8,2,0.8c0.7,0,1.5-0.3,2-0.8C174.6,116.1,174.6,73.9,148.7,48L148.7,48z M148.7,48"/>
	<path d="M71,60.3c-1.1-1.1-2.9-1.1-4.1,0C57.6,69.5,52.5,81.9,52.5,95c0,13.1,5.1,25.5,14.4,34.8c0.6,0.6,1.3,0.8,2,0.8
		c0.7,0,1.5-0.3,2-0.8c1.1-1.1,1.1-3,0-4.1c-16.9-16.9-16.9-44.4,0-61.3C72.1,63.2,72.1,61.4,71,60.3L71,60.3z M71,60.3"/>
	<path d="M136.4,60.3c-1.1-1.1-3-1.1-4.1,0c-1.1,1.1-1.1,3,0,4.1c16.9,16.9,16.9,44.4,0,61.3c-1.1,1.1-1.1,2.9,0,4.1
		c0.6,0.6,1.3,0.8,2,0.8c0.7,0,1.5-0.3,2-0.8c9.3-9.3,14.4-21.6,14.4-34.8C150.8,81.9,145.7,69.5,136.4,60.3L136.4,60.3z
		 M136.4,60.3"/>
	<path d="M101.6,75.4c-11.2,0-20.2,9.1-20.2,20.2c0,10.2,7.6,18.6,17.4,20v87c0,1.6,1.3,2.9,2.9,2.9c1.6,0,2.9-1.3,2.9-2.9v-87
		c9.8-1.4,17.4-9.8,17.4-20C121.9,84.5,112.8,75.4,101.6,75.4L101.6,75.4z M101.6,110.1c-8,0-14.5-6.5-14.5-14.5
		c0-8,6.5-14.5,14.5-14.5c8,0,14.5,6.5,14.5,14.5C116.1,103.6,109.6,110.1,101.6,110.1L101.6,110.1z M101.6,110.1"/>
</g>
</svg>
