<?xml version="1.0" encoding="UTF-8" standalone="no"?>
<svg width="225px" height="38px" viewBox="0 0 225 38" version="1.1" xmlns="http://www.w3.org/2000/svg" xmlns:xlink="http://www.w3.org/1999/xlink">
    <!-- Generator: Sketch 40.2 (33826) - http://www.bohemiancoding.com/sketch -->
    <title>Group</title>
    <desc>Created with Sketch.</desc>
    <defs></defs>
    <g id="Page-1" stroke="none" stroke-width="1" fill="none" fill-rule="evenodd">
        <g id="Group">
            <rect id="Rectangle" fill="#10357F" x="0" y="0" width="225" height="38" rx="8"></rect>
            <path d="M20.6728516,13.3017578 C19.2607351,13.3017578 18.1460002,13.771968 17.3286133,14.7124023 C16.5112264,15.6528367 16.1025391,16.9404215 16.1025391,18.5751953 C16.1025391,20.2568443 16.4965781,21.5561478 17.284668,22.4731445 C18.0727578,23.3901413 19.1962818,23.8486328 20.6552734,23.8486328 C21.5517623,23.8486328 22.574213,23.6875016 23.7226562,23.3652344 L23.7226562,24.6748047 C22.8320268,25.0087907 21.733405,25.1757812 20.4267578,25.1757812 C18.5341702,25.1757812 17.0737356,24.6015682 16.0454102,23.453125 C15.0170847,22.3046818 14.5029297,20.6728621 14.5029297,18.5576172 C14.5029297,17.2333918 14.7504858,16.0732472 15.2456055,15.0771484 C15.7407251,14.0810497 16.4555617,13.3134793 17.3901367,12.7744141 C18.3247117,12.2353489 19.4247984,11.9658203 20.6904297,11.9658203 C22.0380927,11.9658203 23.2158153,12.2119116 24.2236328,12.7041016 L23.5908203,13.9873047 C22.6181592,13.5302712 21.6455127,13.3017578 20.6728516,13.3017578 L20.6728516,13.3017578 Z M37.3193359,18.5576172 C37.3193359,20.6142681 36.7993216,22.2314394 35.7592773,23.4091797 C34.7192331,24.58692 33.2734468,25.1757812 31.421875,25.1757812 C29.5292874,25.1757812 28.0688528,24.5971738 27.0405273,23.4399414 C26.0122019,22.2827091 25.4980469,20.6494246 25.4980469,18.5400391 C25.4980469,16.4482317 26.0136667,14.8266659 27.0449219,13.675293 C28.076177,12.52392 29.5410061,11.9482422 31.4394531,11.9482422 C33.2851655,11.9482422 34.7265573,12.5341738 35.7636719,13.7060547 C36.8007864,14.8779355 37.3193359,16.4951069 37.3193359,18.5576172 L37.3193359,18.5576172 Z M27.0800781,18.5576172 C27.0800781,20.2978603 27.4506799,21.6176713 28.1918945,22.5170898 C28.9331092,23.4165084 30.0097586,23.8662109 31.421875,23.8662109 C32.8457102,23.8662109 33.9208948,23.4179732 34.6474609,22.5214844 C35.3740271,21.6249955 35.7373047,20.3037197 35.7373047,18.5576172 C35.7373047,16.8290929 35.3754919,15.5180709 34.6518555,14.6245117 C33.928219,13.7309526 32.857429,13.2841797 31.4394531,13.2841797 C30.0156179,13.2841797 28.9331092,13.7338822 28.1918945,14.6333008 C27.4506799,15.5327193 27.0800781,16.8408117 27.0800781,18.5576172 L27.0800781,18.5576172 Z M50.4414062,18.4521484 C50.4414062,20.5732528 49.8657284,22.1948186 48.7143555,23.3168945 C47.5629825,24.4389705 45.9062608,25 43.7441406,25 L40.1845703,25 L40.1845703,12.1503906 L44.1220703,12.1503906 C46.1201272,12.1503906 47.672846,12.704096 48.7802734,13.8115234 C49.8877008,14.9189508 50.4414062,16.4658104 50.4414062,18.4521484 L50.4414062,18.4521484 Z M48.859375,18.5048828 C48.859375,16.8290932 48.438969,15.5664105 47.5981445,14.7167969 C46.75732,13.8671833 45.5078208,13.4423828 43.8496094,13.4423828 L41.6787109,13.4423828 L41.6787109,23.7080078 L43.4980469,23.7080078 C45.2793058,23.7080078 46.6181596,23.2700239 47.5146484,22.394043 C48.4111373,21.518062 48.859375,20.2216883 48.859375,18.5048828 L48.859375,18.5048828 Z M53.3066406,25 L53.3066406,12.1503906 L54.8007812,12.1503906 L54.8007812,25 L53.3066406,25 Z M63.9765625,18.2675781 L68.3447266,18.2675781 L68.3447266,24.5166016 C67.6650357,24.7333995 66.9736363,24.8974604 66.2705078,25.0087891 C65.5673793,25.1201177 64.7529343,25.1757812 63.8271484,25.1757812 C61.8818262,25.1757812 60.3671929,24.5971738 59.2832031,23.4399414 C58.1992133,22.2827091 57.6572266,20.6611432 57.6572266,18.5751953 C57.6572266,17.2392511 57.9252903,16.0688527 58.4614258,15.0639648 C58.9975613,14.059077 59.7695262,13.2915066 60.7773438,12.7612305 C61.7851613,12.2309544 62.9658135,11.9658203 64.3193359,11.9658203 C65.6904365,11.9658203 66.9677675,12.2177709 68.1513672,12.7216797 L67.5712891,14.0400391 C66.411127,13.5478491 65.2949272,13.3017578 64.2226562,13.3017578 C62.6581953,13.3017578 61.4365278,13.7675735 60.5576172,14.6992188 C59.6787065,15.630864 59.2392578,16.9228433 59.2392578,18.5751953 C59.2392578,20.309579 59.6625934,21.6249955 60.5092773,22.5214844 C61.3559613,23.4179732 62.5996012,23.8662109 64.2402344,23.8662109 C65.1308638,23.8662109 66.0009723,23.7636729 66.8505859,23.5585938 L66.8505859,19.6035156 L63.9765625,19.6035156 L63.9765625,18.2675781 Z M82.5830078,18.5576172 C82.5830078,20.6142681 82.0629935,22.2314394 81.0229492,23.4091797 C79.982905,24.58692 78.5371186,25.1757812 76.6855469,25.1757812 C74.7929593,25.1757812 73.3325247,24.5971738 72.3041992,23.4399414 C71.2758738,22.2827091 70.7617188,20.6494246 70.7617188,18.5400391 C70.7617188,16.4482317 71.2773386,14.8266659 72.3085938,13.675293 C73.3398489,12.52392 74.804678,11.9482422 76.703125,11.9482422 C78.5488374,11.9482422 79.9902292,12.5341738 81.0273438,13.7060547 C82.0644583,14.8779355 82.5830078,16.4951069 82.5830078,18.5576172 L82.5830078,18.5576172 Z M72.34375,18.5576172 C72.34375,20.2978603 72.7143518,21.6176713 73.4555664,22.5170898 C74.196781,23.4165084 75.2734304,23.8662109 76.6855469,23.8662109 C78.1093821,23.8662109 79.1845667,23.4179732 79.9111328,22.5214844 C80.6376989,21.6249955 81.0009766,20.3037197 81.0009766,18.5576172 C81.0009766,16.8290929 80.6391638,15.5180709 79.9155273,14.6245117 C79.1918909,13.7309526 78.1211008,13.2841797 76.703125,13.2841797 C75.2792898,13.2841797 74.196781,13.7338822 73.4555664,14.6333008 C72.7143518,15.5327193 72.34375,16.8408117 72.34375,18.5576172 L72.34375,18.5576172 Z M92.6992188,21.5810547 C92.6992188,22.7119197 92.2890666,23.5937468 91.46875,24.2265625 C90.6484334,24.8593782 89.5351633,25.1757812 88.1289062,25.1757812 C86.6054611,25.1757812 85.4335979,24.9794942 84.6132812,24.5869141 L84.6132812,23.1455078 C85.1406276,23.3681652 85.7148406,23.5439447 86.3359375,23.6728516 C86.9570344,23.8017585 87.5722626,23.8662109 88.1816406,23.8662109 C89.1777394,23.8662109 89.9277319,23.677248 90.4316406,23.2993164 C90.9355494,22.9213848 91.1875,22.3955112 91.1875,21.7216797 C91.1875,21.276365 91.0981454,20.9116225 90.9194336,20.6274414 C90.7407218,20.3432603 90.4418966,20.0810559 90.0229492,19.8408203 C89.6040018,19.6005847 88.9668012,19.3281265 88.1113281,19.0234375 C86.9160096,18.595701 86.0620143,18.0888701 85.5493164,17.5029297 C85.0366185,16.9169893 84.7802734,16.1523485 84.7802734,15.2089844 C84.7802734,14.218745 85.15234,13.430667 85.8964844,12.8447266 C86.6406287,12.2587861 87.6249939,11.9658203 88.8496094,11.9658203 C90.1269595,11.9658203 91.3017525,12.200193 92.3740234,12.6689453 L91.9082031,13.9697266 C90.8476509,13.5244118 89.8164113,13.3017578 88.8144531,13.3017578 C88.0234335,13.3017578 87.4052757,13.471678 86.9599609,13.8115234 C86.5146462,14.1513689 86.2919922,14.6230439 86.2919922,15.2265625 C86.2919922,15.6718772 86.3740226,16.0366197 86.5380859,16.3208008 C86.7021493,16.6049819 86.979002,16.8657215 87.3686523,17.1030273 C87.7583027,17.3403332 88.3544882,17.6025376 89.1572266,17.8896484 C90.5048896,18.3701196 91.4321264,18.8857394 91.9389648,19.4365234 C92.4458033,19.9873074 92.6992188,20.702144 92.6992188,21.5810547 L92.6992188,21.5810547 Z M110.259766,18.4521484 C110.259766,20.5732528 109.684088,22.1948186 108.532715,23.3168945 C107.381342,24.4389705 105.72462,25 103.5625,25 L100.00293,25 L100.00293,12.1503906 L103.94043,12.1503906 C105.938487,12.1503906 107.491205,12.704096 108.598633,13.8115234 C109.70606,14.9189508 110.259766,16.4658104 110.259766,18.4521484 L110.259766,18.4521484 Z M108.677734,18.5048828 C108.677734,16.8290932 108.257328,15.5664105 107.416504,14.7167969 C106.575679,13.8671833 105.32618,13.4423828 103.667969,13.4423828 L101.49707,13.4423828 L101.49707,23.7080078 L103.316406,23.7080078 C105.097665,23.7080078 106.436519,23.2700239 107.333008,22.394043 C108.229497,21.518062 108.677734,20.2216883 108.677734,18.5048828 L108.677734,18.5048828 Z M113.125,25 L113.125,12.1503906 L114.619141,12.1503906 L114.619141,25 L113.125,25 Z M125.394531,21.5810547 C125.394531,22.7119197 124.984379,23.5937468 124.164063,24.2265625 C123.343746,24.8593782 122.230476,25.1757812 120.824219,25.1757812 C119.300774,25.1757812 118.12891,24.9794942 117.308594,24.5869141 L117.308594,23.1455078 C117.83594,23.3681652 118.410153,23.5439447 119.03125,23.6728516 C119.652347,23.8017585 120.267575,23.8662109 120.876953,23.8662109 C121.873052,23.8662109 122.623044,23.677248 123.126953,23.2993164 C123.630862,22.9213848 123.882813,22.3955112 123.882813,21.7216797 C123.882813,21.276365 123.793458,20.9116225 123.614746,20.6274414 C123.436034,20.3432603 123.137209,20.0810559 122.718262,19.8408203 C122.299314,19.6005847 121.662114,19.3281265 120.806641,19.0234375 C119.611322,18.595701 118.757327,18.0888701 118.244629,17.5029297 C117.731931,16.9169893 117.475586,16.1523485 117.475586,15.2089844 C117.475586,14.218745 117.847653,13.430667 118.591797,12.8447266 C119.335941,12.2587861 120.320306,11.9658203 121.544922,11.9658203 C122.822272,11.9658203 123.997065,12.200193 125.069336,12.6689453 L124.603516,13.9697266 C123.542963,13.5244118 122.511724,13.3017578 121.509766,13.3017578 C120.718746,13.3017578 120.100588,13.471678 119.655273,13.8115234 C119.209959,14.1513689 118.987305,14.6230439 118.987305,15.2265625 C118.987305,15.6718772 119.069335,16.0366197 119.233398,16.3208008 C119.397462,16.6049819 119.674314,16.8657215 120.063965,17.1030273 C120.453615,17.3403332 121.049801,17.6025376 121.852539,17.8896484 C123.200202,18.3701196 124.127439,18.8857394 124.634277,19.4365234 C125.141116,19.9873074 125.394531,20.702144 125.394531,21.5810547 L125.394531,21.5810547 Z M136.169922,15.8945312 C136.169922,17.195319 135.726079,18.1957973 134.838379,18.8959961 C133.950679,19.5961949 132.680672,19.9462891 131.02832,19.9462891 L129.516602,19.9462891 L129.516602,25 L128.022461,25 L128.022461,12.1503906 L131.353516,12.1503906 C134.564469,12.1503906 136.169922,13.398425 136.169922,15.8945312 L136.169922,15.8945312 Z M129.516602,18.6630859 L130.861328,18.6630859 C132.185553,18.6630859 133.143552,18.4492209 133.735352,18.0214844 C134.327151,17.5937479 134.623047,16.9082078 134.623047,15.9648438 C134.623047,15.1152301 134.344729,14.482424 133.788086,14.0664062 C133.231443,13.6503885 132.364264,13.4423828 131.186523,13.4423828 L129.516602,13.4423828 L129.516602,18.6630859 Z M150.012695,18.5576172 C150.012695,20.6142681 149.492681,22.2314394 148.452637,23.4091797 C147.412592,24.58692 145.966806,25.1757812 144.115234,25.1757812 C142.222647,25.1757812 140.762212,24.5971738 139.733887,23.4399414 C138.705561,22.2827091 138.191406,20.6494246 138.191406,18.5400391 C138.191406,16.4482317 138.707026,14.8266659 139.738281,13.675293 C140.769536,12.52392 142.234366,11.9482422 144.132812,11.9482422 C145.978525,11.9482422 147.419917,12.5341738 148.457031,13.7060547 C149.494146,14.8779355 150.012695,16.4951069 150.012695,18.5576172 L150.012695,18.5576172 Z M139.773438,18.5576172 C139.773438,20.2978603 140.144039,21.6176713 140.885254,22.5170898 C141.626469,23.4165084 142.703118,23.8662109 144.115234,23.8662109 C145.53907,23.8662109 146.614254,23.4179732 147.34082,22.5214844 C148.067386,21.6249955 148.430664,20.3037197 148.430664,18.5576172 C148.430664,16.8290929 148.068851,15.5180709 147.345215,14.6245117 C146.621578,13.7309526 145.550788,13.2841797 144.132812,13.2841797 C142.708977,13.2841797 141.626469,13.7338822 140.885254,14.6333008 C140.144039,15.5327193 139.773438,16.8408117 139.773438,18.5576172 L139.773438,18.5576172 Z M162.915039,25 L161.209961,25 L154.1875,14.2158203 L154.117188,14.2158203 C154.210938,15.4814516 154.257812,16.6415963 154.257812,17.6962891 L154.257812,25 L152.87793,25 L152.87793,12.1503906 L154.56543,12.1503906 L161.570312,22.890625 L161.640625,22.890625 C161.628906,22.7324211 161.602539,22.2241254 161.561523,21.3657227 C161.520508,20.5073199 161.505859,19.8935565 161.517578,19.5244141 L161.517578,12.1503906 L162.915039,12.1503906 L162.915039,25 Z M166.448242,25 L166.448242,12.1503906 L167.942383,12.1503906 L167.942383,25 L166.448242,25 Z M171.466797,12.1503906 L175.09668,12.1503906 C176.801766,12.1503906 178.035152,12.4052709 178.796875,12.9150391 C179.558598,13.4248072 179.939453,14.2304632 179.939453,15.3320312 C179.939453,16.0937538 179.727053,16.7221655 179.302246,17.2172852 C178.877439,17.7124048 178.257817,18.0332024 177.443359,18.1796875 L177.443359,18.2675781 C179.394541,18.6015642 180.370117,19.6269445 180.370117,21.34375 C180.370117,22.4921932 179.981937,23.3886687 179.205566,24.0332031 C178.429195,24.6777376 177.343757,25 175.949219,25 L171.466797,25 L171.466797,12.1503906 Z M172.960938,17.6523438 L175.421875,17.6523438 C176.476568,17.6523438 177.235349,17.4868181 177.698242,17.1557617 C178.161135,16.8247054 178.392578,16.2666055 178.392578,15.4814453 C178.392578,14.7607386 178.134768,14.2407243 177.619141,13.9213867 C177.103513,13.6020492 176.283209,13.4423828 175.158203,13.4423828 L172.960938,13.4423828 L172.960938,17.6523438 Z M172.960938,18.9179688 L172.960938,23.7255859 L175.641602,23.7255859 C176.678716,23.7255859 177.45947,23.5249044 177.983887,23.1235352 C178.508303,22.722166 178.770508,22.0937543 178.770508,21.2382812 C178.770508,20.4414023 178.502444,19.8554706 177.966309,19.4804688 C177.430173,19.1054669 176.614263,18.9179688 175.518555,18.9179688 L172.960938,18.9179688 Z M183.129883,25 L183.129883,12.1503906 L184.624023,12.1503906 L184.624023,23.6464844 L190.292969,23.6464844 L190.292969,25 L183.129883,25 Z M199.635742,25 L192.472656,25 L192.472656,12.1503906 L199.635742,12.1503906 L199.635742,13.4775391 L193.966797,13.4775391 L193.966797,17.6171875 L199.292969,17.6171875 L199.292969,18.9355469 L193.966797,18.9355469 L193.966797,23.6640625 L199.635742,23.6640625 L199.635742,25 Z M209.734375,21.5810547 C209.734375,22.7119197 209.324223,23.5937468 208.503906,24.2265625 C207.68359,24.8593782 206.57032,25.1757812 205.164062,25.1757812 C203.640617,25.1757812 202.468754,24.9794942 201.648438,24.5869141 L201.648438,23.1455078 C202.175784,23.3681652 202.749997,23.5439447 203.371094,23.6728516 C203.992191,23.8017585 204.607419,23.8662109 205.216797,23.8662109 C206.212896,23.8662109 206.962888,23.677248 207.466797,23.2993164 C207.970706,22.9213848 208.222656,22.3955112 208.222656,21.7216797 C208.222656,21.276365 208.133302,20.9116225 207.95459,20.6274414 C207.775878,20.3432603 207.477053,20.0810559 207.058105,19.8408203 C206.639158,19.6005847 206.001957,19.3281265 205.146484,19.0234375 C203.951166,18.595701 203.097171,18.0888701 202.584473,17.5029297 C202.071775,16.9169893 201.81543,16.1523485 201.81543,15.2089844 C201.81543,14.218745 202.187496,13.430667 202.931641,12.8447266 C203.675785,12.2587861 204.66015,11.9658203 205.884766,11.9658203 C207.162116,11.9658203 208.336909,12.200193 209.40918,12.6689453 L208.943359,13.9697266 C207.882807,13.5244118 206.851568,13.3017578 205.849609,13.3017578 C205.05859,13.3017578 204.440432,13.471678 203.995117,13.8115234 C203.549802,14.1513689 203.327148,14.6230439 203.327148,15.2265625 C203.327148,15.6718772 203.409179,16.0366197 203.573242,16.3208008 C203.737306,16.6049819 204.014158,16.8657215 204.403809,17.1030273 C204.793459,17.3403332 205.389644,17.6025376 206.192383,17.8896484 C207.540046,18.3701196 208.467283,18.8857394 208.974121,19.4365234 C209.48096,19.9873074 209.734375,20.702144 209.734375,21.5810547 L209.734375,21.5810547 Z" id="INFORMACIÓN" fill="#FFFFFF"></path>
        </g>
    </g>
</svg>