<?xml version="1.0" encoding="utf-8"?>
<!-- Generator: Adobe Illustrator 15.0.0, SVG Export Plug-In . SVG Version: 6.00 Build 0)  -->
<!DOCTYPE svg PUBLIC "-//W3C//DTD SVG 1.1//EN" "http://www.w3.org/Graphics/SVG/1.1/DTD/svg11.dtd">
<svg version="1.1" id="Layer_1" xmlns="http://www.w3.org/2000/svg" xmlns:xlink="http://www.w3.org/1999/xlink" x="0px" y="0px"
	 width="184.9px" height="57.4px" viewBox="0 0 184.9 57.4" enable-background="new 0 0 184.9 57.4" xml:space="preserve">
<g>
	<g opacity="0.18">
		<path fill="#010101" d="M7.3,30v-9.7H12.4c0,0,2.3-0.199,1.899-4.3H7.1v-5c0,0-3.2-0.399-4.7,3.5v16.3c0,0,0.2,1.801,1.3,3.301
			C4.6,35.6,6.4,36.8,8.9,36.8c5.1,0.2,6-2.399,5.5-5.199C14.3,31.6,8.6,34.7,7.3,30z"/>
		<path fill="#010101" d="M59.9,8.2c0.2,0,0.399,0,0.6,0c6.8,0.4,8.8,4.6,8.8,4.6V9.3c0,0-2.399-5.1-8.699-5c-0.2,0-0.4,0-0.601,0
			C54.2,4.6,52.2,7.6,51.2,9.5v2.8C51.2,12.4,53.6,8.1,59.9,8.2z"/>
		<path fill="#010101" d="M24.3,32.3C23.1,31.5,23.1,30.2,23.1,30.2V18.5c0,0-0.801-2.8-4.9-2.7V31.4c0,0,0.4,5,4.2,5.2
			c3.7,0.199,4.899-1.5,5-4.2C27.3,32.5,25.5,33.1,24.3,32.3z"/>
		<path fill="#010101" d="M20.7,14.1c0.2,0,0.3,0,0.4,0c1.1-0.101,2.8-1,2.6-3.601C23.5,9,22.6,8.3,21.3,8.1c-0.199,0-0.399,0-0.6,0
			C19.2,8.2,17.6,9.2,17.6,11C17.6,13.5,19.6,14,20.7,14.1z"/>
		<path fill="#010101" d="M44,37.3c0,0,3.601-1.5,3.601-4.1c0.1-2.7,0.399-6.5-1.9-6.5c-2.3-0.1-3,0-3,0s0.6,4.4,0.4,4.9
			c-0.2,0.6-1.5,2.199-5.301,1c-3.8-1.101-4.3-5.9-3.399-9c0.899-3,4.7-4.301,7.2-4.101C44,19.7,46.8,21.4,46.8,21.4
			s0.5,0.2,0.601-0.3c0.1-0.601,0.5-4.2-3.8-5.4c-5.101-1.3-11,0.5-13.101,4.8C29.8,22,29,24.1,28.9,26.3
			c-0.2,3.9,1.3,8.2,5.5,10.301C34.3,36.6,39.2,38.9,44,37.3z"/>
		<path fill="#010101" d="M69.6,24c-0.301-2.399-2.7-8.6-9.7-8.8c0,0-0.101,0-0.2,0c-4.1,0-6.6,2.2-8.2,4.8c-1,2-1.5,4-1.5,5.601
			c0,0-0.3,4.899,2.8,8.199c1.5,1.5,3.601,2.9,6.9,3c0.1,0,0.2,0,0.2,0c3,0,5.1-1.1,6.5-2.399C69.9,31.2,69.9,25.7,69.6,24z
			 M60.8,32.5C60.6,32.5,60.3,32.6,60,32.6c-0.1,0-0.2,0-0.399,0C57.8,32.3,55.1,30.9,55,26.2c0-3.4,1.4-5.3,2.7-6.1
			c1.1-0.7,2.1-0.601,2.1-0.601H59.9c2.1,0,4.7,1.4,4.899,6.4C65.2,31,61.8,32.4,60.8,32.5z"/>
		<path fill="#010101" d="M59.9,43.5c-2.3,2.3-6.4,5.101-12.5,4.7C37.2,47.6,34.3,41,34.3,41S33.9,49.3,39,51.6c0,0,0.9,0.6,2.3,1
			c1.601,0.5,4,0.899,6.601,0.899c4.5,0,9.6-1.2,12-4.399c0.3-0.301,0.5-0.7,0.7-1c2-3.9,1.5-7.301,1.5-7.301S61.4,42.1,59.9,43.5z"
			/>
		<path fill="#010101" d="M75,19c0-0.8,0.101-1.5,0.3-1.899c0.2-0.5,0.5-1,1-1.601c0.7-0.8,1.4-1.2,2-1.2h1v4H85.4V20.1
			c0,0.5-0.2,1-0.7,1.399c-0.5,0.4-1.1,0.601-1.9,0.601h-3.5V29c0,2.101,0.9,3.101,2.801,3.101c1.399,0,2.5-0.2,3.1-0.601h0.2V33.1
			c0,0.899-0.3,1.6-1,2.1S82.8,36,81.6,36c-2.2,0-3.801-0.6-4.9-1.7C75.6,33.2,75,31.6,75,29.5V19z"/>
		<path fill="#010101" d="M96.9,22.5h-0.2C95.8,22.2,95,22,94.2,22c-2,0-3,1.2-3,3.7v10.1H90c-1,0-1.8-0.199-2.3-0.699
			c-0.6-0.5-0.8-1.2-0.8-2.101v-8c0-1.899,0.5-3.5,1.6-4.899c1.101-1.301,2.7-2,4.8-2c1.2,0,2.101,0.3,2.7,0.8
			c0.601,0.6,0.9,1.2,0.9,2V22.5z"/>
		<path fill="#010101" d="M111.8,29.8c0,1.801-0.6,3.301-1.8,4.5c-1.2,1.2-2.8,1.801-4.8,1.801h-0.9c-2.1,0-3.699-0.5-5-1.601
			c-1.3-1-2-2.399-2-4c0-1.7,0.7-3,2.101-4c1.399-1,3.6-1.5,6.6-1.5h1.5v-0.2c0-1.199-0.3-2-0.899-2.5
			c-0.601-0.5-1.5-0.699-2.9-0.699s-2.6,0.199-3.5,0.6s-1.6,0.9-2,1.4H98v-1.4c0-1.1,0.5-2.1,1.601-3c1.1-0.9,2.6-1.3,4.8-1.3
			c1,0,2,0.1,2.8,0.399c0.8,0.301,1.6,0.7,2.3,1.2c0.7,0.601,1.3,1.4,1.7,2.4c0.4,1.1,0.6,2.3,0.6,3.8V29.8z M107.6,29.9v-1.7H106
			c-1.6,0-2.7,0.2-3.3,0.5c-0.6,0.4-0.9,0.9-0.9,1.7c0,0.7,0.301,1.2,0.801,1.6c0.5,0.4,1.3,0.601,2.199,0.601
			C106.7,32.6,107.6,31.7,107.6,29.9z"/>
		<path fill="#010101" d="M118.3,12.7c0.5,0.5,0.801,1.1,0.801,1.8s-0.301,1.3-0.801,1.8s-1.1,0.801-1.8,0.801s-1.3-0.301-1.8-0.801
			s-0.7-1.1-0.7-1.8s0.2-1.3,0.7-1.8s1.1-0.7,1.8-0.7S117.8,12.2,118.3,12.7z M122.2,33.3c0,0.9-0.2,1.601-0.6,2
			c-0.4,0.4-1.101,0.601-2,0.601c-1.7,0-3-0.5-3.9-1.4c-0.9-0.899-1.3-2.3-1.3-4.1V18.7h1.2c2.1,0,3.1,1.1,3.1,3.2v8.2
			c0,0.899,0.2,1.5,0.6,1.8c0.4,0.3,1.101,0.5,2.101,0.5h0.8V33.3z"/>
		<path fill="#010101" d="M138.7,35.8h-1.2c-1,0-1.7-0.3-2.3-0.8s-0.9-1.2-0.9-2v-7c0-2.8-1.199-4.2-3.5-4.2c-1,0-1.699,0.301-2.3,1
			c-0.6,0.7-0.899,1.7-0.899,2.9v10.1H126.3c-0.899,0-1.6-0.3-2.199-0.8c-0.601-0.5-0.801-1.2-0.801-2v-7.6c0-2,0.7-3.8,2-5.3
			c1.4-1.5,3.301-2.2,5.9-2.2c2.1,0,3.9,0.7,5.4,2.1c1.399,1.4,2.199,3.3,2.199,5.7v10.1H138.7z"/>
		<path fill="#010101" d="M156.3,24.7c0,1.6-0.6,2.7-1.899,3.3c-1.3,0.601-3.4,0.9-6.3,0.9h-2.9c0.2,1.1,0.7,2,1.6,2.6
			c0.9,0.7,2,1,3.301,1c2.399,0,4.199-0.6,5.3-1.7h0.2v1.4c0,2.6-2.101,4-6.301,4c-2.3,0-4.3-0.8-6-2.5c-1.699-1.6-2.6-3.7-2.6-6.3
			c0-2.9,0.8-5.2,2.4-6.9c1.6-1.7,3.6-2.6,6.199-2.6c1.9,0,3.5,0.6,4.9,1.899C155.6,21,156.3,22.7,156.3,24.7z M152.2,24.2
			c0-0.9-0.3-1.5-0.9-2c-0.6-0.4-1.399-0.7-2.399-0.7S147,21.9,146.3,22.6c-0.699,0.699-1,1.6-1.1,2.6v0.6h1.9
			c2,0,3.399-0.1,4-0.399C151.9,25.2,152.2,24.8,152.2,24.2z"/>
		<path fill="#010101" d="M168.4,22.5h-0.2c-0.9-0.3-1.7-0.5-2.5-0.5c-2,0-3,1.2-3,3.7v10.1h-1.2c-1,0-1.8-0.199-2.3-0.699
			c-0.6-0.5-0.8-1.2-0.8-2.101v-8c0-1.899,0.5-3.5,1.6-4.899c1.101-1.301,2.7-2,4.8-2c1.2,0,2.101,0.3,2.7,0.8
			c0.601,0.6,0.9,1.2,0.9,2V22.5z"/>
		<path fill="#010101" d="M182.6,30.3c0,1.9-0.601,3.301-1.9,4.301s-3.1,1.6-5.4,1.6c-1.6,0-2.899-0.3-4-1c-1.1-0.7-1.6-1.5-1.6-2.4
			v-2h0.2c0.5,0.5,1.2,0.801,2.2,1.2c1,0.3,2,0.5,3,0.5c2.1,0,3.199-0.6,3.199-1.899c0-0.5-0.199-0.9-0.699-1.2s-1.5-0.5-2.9-0.7
			c-1.9-0.3-3.2-0.8-4.1-1.5c-0.9-0.8-1.301-1.8-1.301-3.1c0-1.7,0.7-3.101,2.101-4.301c1.399-1.199,3.2-1.8,5.3-1.8
			c1.8,0,3.2,0.4,4.1,1.101c1,0.8,1.4,1.6,1.4,2.6v1.7H182c-0.5-0.5-1.1-0.9-2.1-1.2c-0.9-0.3-1.9-0.5-2.9-0.5
			c-2.3,0-3.5,0.6-3.5,1.9c0,0.5,0.2,0.8,0.7,1c0.4,0.199,1.4,0.5,2.8,0.699C180.7,25.9,182.6,27.6,182.6,30.3z"/>
	</g>
	<g>
		<g>
			<path fill="#1A3660" d="M7.3,29.5v-9.7H12.4c0,0,2.3-0.199,1.899-4.3H7.1v-5c0,0-3.2-0.399-4.7,3.5v16.3c0,0,0.2,1.801,1.3,3.301
				C4.6,35.1,6.4,36.3,8.9,36.3c5.1,0.2,6-2.399,5.5-5.199C14.3,31.1,8.6,34.2,7.3,29.5z"/>
		</g>
		<g>
			<path fill="#1A3660" d="M59.9,7.7c0.2,0,0.399,0,0.6,0c6.8,0.4,8.8,4.6,8.8,4.6V8.8c0,0-2.399-5.1-8.699-5c-0.2,0-0.4,0-0.601,0
				C54.2,4.1,52.2,7.1,51.2,9v2.8C51.2,11.9,53.6,7.6,59.9,7.7z"/>
		</g>
		<g>
			<path fill="#1A3660" d="M24.3,31.8C23.1,31,23.1,29.7,23.1,29.7V18c0,0-0.801-2.8-4.9-2.7V30.9c0,0,0.4,5,4.2,5.2
				c3.7,0.199,4.899-1.5,5-4.2C27.3,32,25.5,32.6,24.3,31.8z"/>
		</g>
		<g>
			<path fill="#1A3660" d="M20.7,13.6c0.2,0,0.3,0,0.4,0c1.1-0.101,2.8-1,2.6-3.601c-0.2-1.5-1.1-2.2-2.4-2.399
				c-0.199,0-0.399,0-0.6,0c-1.5,0.1-3.1,1.1-3.1,2.899C17.6,13,19.6,13.5,20.7,13.6z"/>
		</g>
		<g>
			<path fill="#1A3660" d="M44,36.8c0,0,3.601-1.5,3.601-4.1c0.1-2.7,0.399-6.5-1.9-6.5c-2.3-0.1-3,0-3,0s0.6,4.4,0.4,4.9
				c-0.2,0.6-1.5,2.199-5.301,1C34,31,33.5,26.2,34.4,23.1c0.899-3,4.7-4.301,7.2-4.101C44,19.2,46.8,20.9,46.8,20.9
				s0.5,0.2,0.601-0.3c0.1-0.601,0.5-4.2-3.8-5.4C38.5,13.9,32.6,15.7,30.5,20c-0.7,1.5-1.5,3.601-1.6,5.8
				c-0.2,3.9,1.3,8.2,5.5,10.301C34.3,36.1,39.2,38.4,44,36.8z"/>
		</g>
		<g>
			<path fill="#1A3660" d="M69.6,23.5c-0.301-2.399-2.7-8.6-9.7-8.8c0,0-0.101,0-0.2,0c-4.1,0-6.6,2.2-8.2,4.8
				c-1.1,1.9-1.6,4-1.6,5.601c0,0-0.3,4.899,2.8,8.199c1.5,1.5,3.6,2.9,6.9,3c0.1,0,0.199,0,0.199,0c3,0,5.101-1.1,6.5-2.399
				C69.9,30.7,69.9,25.2,69.6,23.5z M60.8,32C60.6,32,60.3,32.1,60,32.1c-0.1,0-0.2,0-0.399,0C57.8,31.8,55.1,30.4,55,25.7
				c0-3.4,1.4-5.3,2.7-6.1C58.8,18.9,59.8,19,59.8,19H59.9c2.1,0,4.7,1.4,4.899,6.4C65.2,30.5,61.8,31.9,60.8,32z"/>
		</g>
		<g>
			<path fill="#D8252F" d="M59.9,43c-2.3,2.3-6.4,5.101-12.5,4.7C37.2,47.1,34.3,40.4,34.3,40.4S33.9,48.7,39,51
				c0,0,0.9,0.601,2.3,1c1.601,0.5,4,0.9,6.601,0.9c4.5,0,9.6-1.2,12-4.4c0.3-0.3,0.5-0.7,0.7-1c2-3.899,1.5-7.3,1.5-7.3
				S61.4,41.6,59.9,43z"/>
		</g>
		<g>
			<path fill="#1A3660" d="M75,18.5c0-0.8,0.101-1.5,0.3-1.899c0.2-0.5,0.5-1,1-1.601c0.7-0.8,1.4-1.2,2-1.2h1v4H85.4V19.6
				c0,0.5-0.2,1-0.7,1.399c-0.5,0.4-1.1,0.601-1.9,0.601h-3.5v6.8c0,2.1,0.9,3.1,2.801,3.1c1.399,0,2.5-0.2,3.1-0.6h0.2v1.6
				c0,0.9-0.3,1.601-1,2.101s-1.601,0.8-2.8,0.8c-2.2,0-3.801-0.601-4.9-1.7c-1.2-1-1.7-2.6-1.7-4.7V18.5z"/>
		</g>
		<g>
			<path fill="#1A3660" d="M96.9,22h-0.2c-0.9-0.3-1.7-0.5-2.5-0.5c-2,0-3,1.2-3,3.7v10.1H90c-1,0-1.8-0.199-2.3-0.699
				c-0.6-0.5-0.8-1.2-0.8-2.101v-8c0-1.899,0.5-3.5,1.6-4.899c1.101-1.301,2.7-2,4.8-2c1.2,0,2.101,0.3,2.7,0.8
				c0.601,0.6,0.9,1.2,0.9,2V22z"/>
		</g>
		<g>
			<path fill="#1A3660" d="M111.8,29.3c0,1.801-0.6,3.301-1.8,4.5c-1.2,1.2-2.8,1.801-4.8,1.801h-0.9c-2.1,0-3.699-0.5-5-1.601
				c-1.3-1-2-2.399-2-4c0-1.7,0.7-3,2.101-4c1.399-1,3.6-1.5,6.6-1.5h1.5v-0.2c0-1.199-0.3-2-0.899-2.5
				c-0.601-0.5-1.5-0.699-2.9-0.699s-2.6,0.199-3.5,0.6s-1.6,0.9-2,1.4H98v-1.4c0-1.1,0.5-2.1,1.601-3c1.1-0.9,2.6-1.3,4.8-1.3
				c1,0,2,0.1,2.8,0.399c0.8,0.301,1.6,0.7,2.3,1.2c0.7,0.601,1.3,1.4,1.7,2.4c0.4,1.1,0.6,2.3,0.6,3.8V29.3z M107.6,29.4v-1.7H106
				c-1.6,0-2.7,0.2-3.3,0.5c-0.6,0.4-0.9,0.9-0.9,1.7c0,0.7,0.301,1.2,0.801,1.6c0.5,0.4,1.3,0.601,2.199,0.601
				C106.7,32.1,107.6,31.2,107.6,29.4z"/>
		</g>
		<g>
			<path fill="#1A3660" d="M118.3,12.2c0.5,0.5,0.801,1.1,0.801,1.8s-0.301,1.3-0.801,1.8s-1.1,0.801-1.8,0.801
				s-1.3-0.301-1.8-0.801S114,14.7,114,14s0.2-1.3,0.7-1.8s1.1-0.7,1.8-0.7S117.8,11.7,118.3,12.2z M122.2,32.8
				c0,0.9-0.2,1.601-0.6,2c-0.4,0.4-1.101,0.601-2,0.601c-1.7,0-3-0.5-3.9-1.4c-0.9-0.899-1.3-2.3-1.3-4.1V18.2h1.2
				c2.1,0,3.1,1.1,3.1,3.2v8.2c0,0.899,0.2,1.5,0.6,1.8c0.4,0.3,1.101,0.5,2.101,0.5h0.8V32.8z"/>
		</g>
		<g>
			<path fill="#1A3660" d="M138.7,35.3h-1.2c-1,0-1.7-0.3-2.3-0.8s-0.9-1.2-0.9-2V25.6c0-2.801-1.199-4.2-3.5-4.2
				c-1,0-1.699,0.3-2.3,1c-0.6,0.7-0.899,1.7-0.899,2.899V35.4H126.3c-0.899,0-1.6-0.3-2.199-0.8c-0.601-0.5-0.801-1.2-0.801-2V25
				c0-2,0.7-3.8,2-5.3c1.4-1.5,3.301-2.2,5.9-2.2c2.1,0,3.9,0.7,5.4,2.101C138,21,138.8,22.9,138.8,25.3v10H138.7z"/>
		</g>
		<g>
			<path fill="#1A3660" d="M156.3,24.2c0,1.6-0.6,2.7-1.899,3.3c-1.3,0.601-3.4,0.9-6.3,0.9h-2.9c0.2,1.1,0.7,2,1.6,2.6
				c0.9,0.7,2,1,3.301,1c2.399,0,4.199-0.6,5.3-1.7h0.2v1.4c0,2.6-2.101,4-6.301,4c-2.3,0-4.3-0.8-6-2.5c-1.699-1.6-2.6-3.7-2.6-6.3
				c0-2.9,0.8-5.2,2.4-6.9c1.6-1.7,3.6-2.6,6.199-2.6c1.9,0,3.5,0.6,4.9,1.899C155.6,20.5,156.3,22.2,156.3,24.2z M152.2,23.7
				c0-0.9-0.3-1.5-0.9-2c-0.6-0.4-1.399-0.7-2.399-0.7S147,21.4,146.3,22.1c-0.699,0.699-1,1.6-1.1,2.6v0.6h1.9
				c2,0,3.399-0.1,4-0.399C151.9,24.7,152.2,24.3,152.2,23.7z"/>
		</g>
		<g>
			<path fill="#1A3660" d="M168.4,22h-0.2c-0.9-0.3-1.7-0.5-2.5-0.5c-2,0-3,1.2-3,3.7v10.1h-1.2c-1,0-1.8-0.199-2.3-0.699
				c-0.6-0.5-0.8-1.2-0.8-2.101v-8c0-1.899,0.5-3.5,1.6-4.899c1.101-1.301,2.7-2,4.8-2c1.2,0,2.101,0.3,2.7,0.8
				c0.601,0.6,0.9,1.2,0.9,2V22z"/>
		</g>
		<g>
			<path fill="#1A3660" d="M182.6,29.8c0,1.9-0.601,3.301-1.9,4.301s-3.1,1.6-5.4,1.6c-1.6,0-2.899-0.3-4-1
				c-1.1-0.7-1.6-1.5-1.6-2.4v-2h0.2c0.5,0.5,1.2,0.801,2.2,1.2c1,0.3,2,0.5,3,0.5c2.1,0,3.199-0.6,3.199-1.899
				c0-0.5-0.199-0.9-0.699-1.2s-1.5-0.5-2.9-0.7c-1.9-0.3-3.2-0.8-4.1-1.5c-0.9-0.8-1.301-1.8-1.301-3.1
				c0-1.7,0.7-3.101,2.101-4.301c1.399-1.199,3.2-1.8,5.3-1.8c1.8,0,3.2,0.4,4.1,1.101c1,0.8,1.4,1.6,1.4,2.6v1.7H182
				c-0.5-0.5-1.1-0.9-2.1-1.2c-0.9-0.3-1.9-0.5-2.9-0.5c-2.3,0-3.5,0.6-3.5,1.9c0,0.5,0.2,0.8,0.7,1c0.4,0.199,1.4,0.5,2.8,0.699
				C180.7,25.4,182.6,27.1,182.6,29.8z"/>
		</g>
	</g>
</g>
</svg>
