<?xml version="1.0" encoding="UTF-8" standalone="no"?>
<svg width="16px" height="15px" viewBox="0 0 16 15" version="1.1" xmlns="http://www.w3.org/2000/svg" xmlns:xlink="http://www.w3.org/1999/xlink">
    <!-- Generator: Sketch 40.2 (33826) - http://www.bohemiancoding.com/sketch -->
    <title>thumb-up</title>
    <desc>Created with Sketch.</desc>
    <defs></defs>
    <g id="Page-1" stroke="none" stroke-width="1" fill="none" fill-rule="evenodd">
        <g id="thumb-up" fill="#FFFFFF">
            <g id="Group">
                <path d="M15.6,8.2 C15.6,8.2 16.1,7.7 16,6.6 C16,5.1 14.4,5 14.4,5 L12,5 C11.8,5 11.7,4.8 11.7,4.6 C12,3.9 12.5,2.5 12.3,1.5 C12,0.1 10.8,0 10.4,0 C10.3,0 10.2,0.1 10.2,0.2 L9.2,3 C9.2,3 9.2,3.1 9.1,3.1 L6.5,5.9 C6.4,6 6.3,6 6.2,6 L6,6 L6,13 L6.2,13 C6.9,13 9.4,15 11.6,15 C13.8,15 14.3,14.7 14.7,14 C15.1,13.3 14.8,12.7 14.8,12.7 C14.8,12.7 15.3,12.4 15.4,11.7 C15.5,11 15.3,10.6 15.3,10.6 C15.3,10.6 15.8,10.2 15.8,9.4 C15.9,8.5 15.6,8.2 15.6,8.2 L15.6,8.2 Z" id="Shape"></path>
                <path d="M0,14 L5,14 L5,6 L0,6 L0,14 L0,14 Z M2.5,10.5 C3.1,10.5 3.5,10.9 3.5,11.5 C3.5,12.1 3.1,12.5 2.5,12.5 C1.9,12.5 1.5,12.1 1.5,11.5 C1.5,10.9 1.9,10.5 2.5,10.5 L2.5,10.5 Z" id="Shape"></path>
            </g>
        </g>
    </g>
</svg>