<?xml version="1.0" encoding="UTF-8" standalone="no"?>
<svg width="15px" height="15px" viewBox="0 0 15 15" version="1.1" xmlns="http://www.w3.org/2000/svg" xmlns:xlink="http://www.w3.org/1999/xlink">
    <!-- Generator: Sketch 40.2 (33826) - http://www.bohemiancoding.com/sketch -->
    <title>price-ticket</title>
    <desc>Created with Sketch.</desc>
    <defs></defs>
    <g id="Page-1" stroke="none" stroke-width="1" fill="none" fill-rule="evenodd">
        <g id="price-ticket" fill="#FFFFFF">
            <g id="Capa_1">
                <path d="M14.9838367,5.58027859 L14.3672454,1.70996579 C14.2788303,1.154683 13.8422857,0.719275257 13.2855531,0.631129543 L9.40517429,0.0161048553 C8.99322433,-0.0491926131 8.57484132,0.0864101583 8.28009822,0.380385699 L0.381422442,8.25849201 C-0.127140814,8.76577001 -0.127140814,9.58799385 0.381422442,10.0952718 L4.87847099,14.5805702 C5.38703425,15.0878091 6.21136567,15.0878091 6.72000737,14.580492 L14.6186439,6.70242478 C14.913387,6.40841011 15.0493439,5.99111664 14.9838367,5.58027859 L14.9838367,5.58027859 Z M6.3819197,13.5753648 C6.1832015,13.7735655 5.86088262,13.7735655 5.6621252,13.5753648 L1.38925243,9.31361929 C1.19053423,9.11537946 1.19053423,8.79389995 1.38925243,8.59566012 C1.58789217,8.39753767 1.9102895,8.39745942 2.10904693,8.59566012 L6.3819197,12.8574447 C6.5806379,13.0556454 6.58055945,13.3771641 6.3819197,13.5753648 L6.3819197,13.5753648 Z M12.130077,4.24572979 C11.7470757,4.62773367 11.1261304,4.62769455 10.7432468,4.24572979 C10.3602455,3.86372591 10.360167,3.24451498 10.7432468,2.8625111 C11.1261696,2.48050721 11.7470365,2.48050721 12.130077,2.8625111 C12.5129998,3.24447586 12.5129998,3.86376503 12.130077,4.24572979 L12.130077,4.24572979 Z" id="Shape"></path>
            </g>
        </g>
    </g>
</svg>