<?xml version="1.0" encoding="UTF-8" standalone="no"?>
<svg width="28px" height="17px" viewBox="0 0 28 17" version="1.1" xmlns="http://www.w3.org/2000/svg" xmlns:xlink="http://www.w3.org/1999/xlink">
    <!-- Generator: Sketch 40.2 (33826) - http://www.bohemiancoding.com/sketch -->
    <title>Group 5</title>
    <desc>Created with Sketch.</desc>
    <defs></defs>
    <g id="Page-1" stroke="none" stroke-width="1" fill="none" fill-rule="evenodd">
        <g id="Group-5" transform="translate(-1.000000, 0.000000)" fill="#FFFFFF">
            <g id="Group" transform="translate(7.000000, 0.000000)">
                <g id="favs" transform="translate(0.500000, 0.000000)">
                    <g id="Page-1">
                        <g>
                            <g id="favs">
                                <circle id="Oval-1" cx="7" cy="4" r="4"></circle>
                                <path d="M7.30145391,9.05737004 C0.953230225,9.05737004 0.738536738,16.5728162 0.738536738,16.5728162 L13.8111733,16.5728162 C13.8111733,16.5728162 13.6496776,9.05737004 7.30145391,9.05737004 L7.30145391,9.05737004 Z" id="Path-19"></path>
                            </g>
                        </g>
                    </g>
                </g>
            </g>
            <g id="Group-Copy" transform="translate(0.000000, 2.000000)">
                <g id="favs" transform="translate(0.400000, 0.000000)">
                    <g id="Page-1">
                        <g>
                            <g id="favs">
                                <ellipse id="Oval-1" cx="5.6" cy="3.29411765" rx="3.2" ry="3.29411765"></ellipse>
                                <path d="M5.84116313,7.45901062 C0.76258418,7.45901062 0.59082939,13.6482016 0.59082939,13.6482016 L11.0489386,13.6482016 C11.0489386,13.6482016 10.9197421,7.45901062 5.84116313,7.45901062 L5.84116313,7.45901062 Z" id="Path-19"></path>
                            </g>
                        </g>
                    </g>
                </g>
            </g>
            <g id="Group-Copy-2" transform="translate(17.000000, 2.000000)">
                <g id="favs" transform="translate(0.400000, 0.000000)">
                    <g id="Page-1">
                        <g>
                            <g id="favs">
                                <ellipse id="Oval-1" cx="5.6" cy="3.29411765" rx="3.2" ry="3.29411765"></ellipse>
                                <path d="M5.84116313,7.45901062 C0.76258418,7.45901062 0.59082939,13.6482016 0.59082939,13.6482016 L11.0489386,13.6482016 C11.0489386,13.6482016 10.9197421,7.45901062 5.84116313,7.45901062 L5.84116313,7.45901062 Z" id="Path-19"></path>
                            </g>
                        </g>
                    </g>
                </g>
            </g>
        </g>
    </g>
</svg>