<?xml version="1.0" encoding="UTF-8" standalone="no"?>
<svg width="14px" height="15px" viewBox="0 0 14 15" version="1.1" xmlns="http://www.w3.org/2000/svg" xmlns:xlink="http://www.w3.org/1999/xlink">
    <!-- Generator: Sketch 40.2 (33826) - http://www.bohemiancoding.com/sketch -->
    <title>financial-document</title>
    <desc>Created with Sketch.</desc>
    <defs></defs>
    <g id="Page-1" stroke="none" stroke-width="1" fill="none" fill-rule="evenodd">
        <g id="financial-document" fill="#FFFFFF">
            <g id="Capa_1">
                <path d="M4.12264151,6.31795511 C3.98301887,6.43391521 3.82075472,6.47880299 3.59056604,6.50124688 L3.59056604,5.26683292 C3.86603774,5.35660848 4.0509434,5.45012469 4.16792453,5.53990025 C4.25849057,5.62967581 4.33018868,5.7680798 4.33018868,5.92892768 C4.30758491,6.08977556 4.23966038,6.2244389 4.12264151,6.31795511 L4.12264151,6.31795511 Z M3.13022642,3.08977556 C2.92267925,3.11221945 2.76041509,3.17955112 2.64343396,3.27306733 C2.52645283,3.38902743 2.4585283,3.52369077 2.4585283,3.66209476 C2.4585283,3.82294264 2.50381132,3.93516209 2.59815094,4.0286783 C2.68871698,4.11845387 2.87362264,4.21197007 3.13022642,4.30174564 L3.13022642,3.08977556 L3.13022642,3.08977556 L3.13022642,3.08977556 Z M13.9830189,5.70074813 L13.9830189,13.3017456 C13.9830189,14.2406484 13.2207925,14.9962968 12.2736226,14.9962968 L1.72267925,14.9962968 C0.775509434,14.9962968 0.013245283,14.2406484 0.013245283,13.3017456 L0.013245283,1.69451372 C0.013245283,0.755610973 0.775509434,0 1.72267925,0 L8.32645283,0 C8.99433962,0 9.31886792,0.183291771 9.73396226,0.617206983 L13.3377358,4.23441397 C13.8207925,4.69077307 13.9830189,4.99002494 13.9830189,5.70074813 L13.9830189,5.70074813 Z M6.38679245,4.00623441 L8.92637736,4.00623441 C9.22826415,4.00623441 9.4585283,3.77805486 9.4585283,3.50124688 L9.4585283,3.11221945 C9.4585283,2.83915212 9.22826415,2.60723192 8.92637736,2.60723192 L6.38679245,2.60723192 L6.38679245,4.00623441 L6.38679245,4.00623441 Z M3.13022642,5.15087282 L3.13022642,6.50124688 C2.71513208,6.43391521 2.32267925,6.25062344 1.93022642,5.90648379 L1.42079245,6.50124688 C1.93022642,6.93516209 2.50758491,7.18952618 3.13022642,7.25685786 L3.13022642,7.75810474 L3.56796226,7.75810474 L3.56796226,7.25311721 C4.05475472,7.23067332 4.42079245,7.09226933 4.72267925,6.84164589 C4.99815094,6.59102244 5.16041509,6.24688279 5.16041509,5.85785536 C5.16041509,5.44638404 5.04343396,5.14713217 4.79060377,4.94139651 C4.53777358,4.73566085 4.14532075,4.55236908 3.61324528,4.43640898 L3.59060377,4.43640898 L3.59060377,3.13092269 C3.96041509,3.17581047 4.2849434,3.33665835 4.5830566,3.54239401 L5.04343396,2.90274314 C4.5830566,2.60349127 4.09626415,2.4201995 3.58683019,2.39775561 L3.58683019,2.00872818 L3.14909434,2.00872818 L3.14909434,2.35286783 C2.71135849,2.37531172 2.34154717,2.51371571 2.06230189,2.76433915 C1.78683019,3.01496259 1.62456604,3.35910224 1.62456604,3.74812968 C1.62456604,4.13715711 1.76418868,4.43640898 1.99437736,4.66458853 C2.22833962,4.85162095 2.59815094,5.03491272 3.13022642,5.15087282 L3.13022642,5.15087282 Z M12.6207547,12.5685786 C12.6207547,12.2954738 12.390566,12.063591 12.0886792,12.063591 L1.85849057,12.063591 C1.55660377,12.063591 1.3490566,12.2917706 1.3490566,12.5685786 L1.3490566,12.957606 C1.3490566,13.2306359 1.57924528,13.4625935 1.85849057,13.4625935 L12.0886792,13.4625935 C12.3641887,13.4625935 12.6207547,13.234414 12.6207547,12.957606 L12.6207547,12.5685786 L12.6207547,12.5685786 L12.6207547,12.5685786 Z M12.6207547,9.40773067 C12.6207547,9.13462594 12.390566,8.90274314 12.0886792,8.90274314 L1.85849057,8.90274314 C1.55660377,8.90274314 1.3490566,9.13092269 1.3490566,9.40773067 L1.3490566,9.7967581 C1.3490566,10.069788 1.57924528,10.3017456 1.85849057,10.3017456 L12.0886792,10.3017456 C12.3641887,10.3017456 12.6207547,10.0735661 12.6207547,9.7967581 L12.6207547,9.40773067 L12.6207547,9.40773067 L12.6207547,9.40773067 Z M12.6207547,6.24688279 C12.6207547,5.97381546 12.390566,5.74189526 12.0886792,5.74189526 L6.38679245,5.74189526 L6.38679245,7.13715711 L12.0924528,7.13715711 C12.3679623,7.13715711 12.6245283,6.90897756 12.6245283,6.63216958 L12.6245283,6.24688279 L12.6207547,6.24688279 L12.6207547,6.24688279 Z" id="Shape"></path>
            </g>
        </g>
    </g>
</svg>