<?xml version="1.0" encoding="UTF-8" standalone="no"?>
<svg width="24px" height="23px" viewBox="0 0 24 23" version="1.1" xmlns="http://www.w3.org/2000/svg" xmlns:xlink="http://www.w3.org/1999/xlink">
    <!-- Generator: Sketch 40.2 (33826) - http://www.bohemiancoding.com/sketch -->
    <title>settings-gears</title>
    <desc>Created with Sketch.</desc>
    <defs></defs>
    <g id="Page-1" stroke="none" stroke-width="1" fill="none" fill-rule="evenodd">
        <g id="settings-gears" fill="#FFFFFF">
            <g id="Capa_1">
                <g id="Group">
                    <path d="M1.57427653,8.40191991 C1.70032154,8.82010173 1.87524116,9.22334848 2.09646302,9.60170346 L1.46623794,10.3708593 C1.26045016,10.6222662 1.28360129,10.9807078 1.51511254,11.2072229 L2.60064309,12.2576558 C2.83472669,12.484171 3.20514469,12.5040595 3.46495177,12.3049253 L4.25466238,11.7000552 C4.66109325,11.9265952 5.09324759,12.1033019 5.54340836,12.2277608 L5.66173633,13.2109859 C5.70032154,13.5296006 5.97813505,13.7685617 6.3073955,13.7685617 L7.84308682,13.7685617 C8.17234727,13.7685617 8.45016077,13.5295758 8.48874598,13.2109859 L8.60192926,12.2626093 C9.08553055,12.1406396 9.54855305,11.9589297 9.98327974,11.7224578 L10.7472669,12.3074145 C11.007074,12.5065487 11.377492,12.4841461 11.6115756,12.2601201 L12.6971061,11.2096872 C12.9311897,10.9831721 12.9517685,10.6247305 12.7459807,10.3733236 L12.1517685,9.64399459 C12.3987138,9.23076623 12.5916399,8.79020671 12.7202572,8.32970887 L13.6360129,8.2276526 C13.965299,8.19031494 14.2122186,7.92148377 14.2122186,7.60286905 L14.2122186,6.11683009 C14.2122186,5.79821537 13.9652733,5.5293842 13.6360129,5.49204654 L12.733119,5.38999026 C12.6096206,4.93447078 12.4244373,4.49886472 12.1878071,4.09063961 L12.7434341,3.41109416 C12.9492219,3.15968723 12.9260707,2.80124567 12.6945595,2.57473052 L11.6116013,1.5267868 C11.3775177,1.30027165 11.0070997,1.28035823 10.7472926,1.47949242 L10.0656206,2.0022197 C9.62317685,1.75081277 9.14983923,1.5591461 8.65340193,1.42970887 L8.55050804,0.575920996 C8.51192283,0.257306277 8.23410932,0.0183452381 7.90484887,0.0183452381 L6.36915756,0.0183452381 C6.03989711,0.0183452381 5.7620836,0.257306277 5.72349839,0.575920996 L5.6206045,1.42970887 C5.11127974,1.56163528 4.62510611,1.76076948 4.17237299,2.02213312 L3.46497749,1.47949242 C3.20517042,1.28035823 2.83475241,1.30276082 2.60066881,1.5267868 L1.51513826,2.5772197 C1.28105466,2.80373485 1.26047588,3.16217641 1.46626367,3.41358333 L2.05790354,4.13793398 C1.82124759,4.55113745 1.64118328,4.99172186 1.52285531,5.44973052 L0.576231511,5.55427597 C0.246971061,5.59161364 2.57234727e-05,5.86044481 2.57234727e-05,6.17905952 L2.57234727e-05,7.66509848 C2.57234727e-05,7.9837132 0.246971061,8.25254437 0.576231511,8.28988203 L1.57427653,8.40191991 L1.57427653,8.40191991 Z M7.13826367,4.38189827 C8.53762058,4.38189827 9.67717042,5.4846039 9.67717042,6.83871645 C9.67717042,8.192829 8.53762058,9.29553463 7.13826367,9.29553463 C5.73893248,9.29553463 4.59935691,8.192829 4.59935691,6.83871645 C4.59935691,5.4846039 5.73890675,4.38189827 7.13826367,4.38189827 L7.13826367,4.38189827 Z" id="Shape"></path>
                    <path d="M22.3202315,8.767829 L21.5099421,8.10570779 C21.2604502,7.90159524 20.8925788,7.91155195 20.6559486,8.12811039 L20.2083601,8.53384632 C19.8302508,8.35711472 19.4289646,8.23265584 19.014791,8.1604697 L18.8887974,7.5630671 C18.8244887,7.25440909 18.5286688,7.04033983 18.2045016,7.0652316 L17.1472669,7.15235281 C16.8231511,7.17973377 16.5684887,7.43611905 16.5581994,7.75224459 L16.5376463,8.3596039 C16.1311897,8.50148701 15.74791,8.69564286 15.3980707,8.93958225 L14.8630482,8.59607576 C14.590328,8.42183333 14.2276527,8.47161688 14.016746,8.7130671 L13.3325016,9.50213636 C13.1215434,9.74358658 13.1318328,10.099539 13.3556013,10.3285433 L13.8237942,10.8114188 C13.6617106,11.164882 13.545955,11.5357944 13.4790997,11.9166136 L12.8102894,12.04854 C12.4913183,12.1107695 12.2700965,12.3970249 12.2958199,12.7106861 L12.3858521,13.7337381 C12.4141479,14.0473745 12.6790997,14.293803 13.0057878,14.3037597 L13.7286174,14.3261374 C13.8598585,14.6596872 14.0321801,14.9758377 14.2405145,15.2720249 L13.8366817,15.86196 C13.6566174,16.1258128 13.7080643,16.4767868 13.9575563,16.6808994 L14.7678457,17.3430206 C15.0173891,17.5471331 15.385209,17.5371764 15.6218907,17.320618 L16.1517942,16.8402067 C16.4990611,16.9970249 16.8643087,17.1140162 17.2398714,17.1837132 L17.3865209,17.8856613 C17.4508296,18.1943193 17.7466495,18.4083885 18.0707653,18.3834968 L19.128,18.2963755 C19.4521158,18.2689946 19.7067781,18.0126342 19.7170675,17.6964838 L19.7402186,17.0094459 C20.1260707,16.8775195 20.4913183,16.6982987 20.8282958,16.4767868 L21.4122444,16.8501634 C21.6849132,17.0244058 22.0475884,16.9746223 22.2585466,16.7331721 L22.942791,15.9490812 C23.1536977,15.707631 23.1434084,15.3516786 22.9196399,15.1226742 L22.4488746,14.6397987 C22.6212476,14.2863355 22.7473183,13.9129589 22.8192926,13.5296006 L23.4623794,13.4026526 C23.7813505,13.3404232 24.0025723,13.0541677 23.9768489,12.7405065 L23.8868167,11.7174545 C23.8585209,11.4038182 23.5935691,11.1573896 23.266881,11.1474329 L22.6212219,11.1275195 C22.4874341,10.7640996 22.3073698,10.420618 22.0836013,10.1019784 L22.4359871,9.58920779 C22.6212219,9.32540476 22.5697749,8.97194156 22.3202315,8.767829 L22.3202315,8.767829 Z M18.335717,14.6820898 C17.1935949,14.7767035 16.1851833,13.9527608 16.0900322,12.8475909 C15.9922572,11.7423961 16.8437556,10.7666136 17.9858264,10.6745141 C19.1279486,10.5799253 20.1363601,11.403868 20.2315113,12.5090379 C20.3292862,13.6142576 19.4777878,14.5900152 18.335717,14.6820898 L18.335717,14.6820898 Z" id="Shape"></path>
                    <path d="M5.2733119,17.435145 C4.94919614,17.4675043 4.69967846,17.7313323 4.69710611,18.0474827 L4.68938907,18.6772446 C4.68424437,18.9933701 4.92604502,19.2622013 5.25016077,19.302053 L5.72861736,19.3617684 C5.80836013,19.6430703 5.92154341,19.9119015 6.0681672,20.1657976 L5.75948553,20.5341959 C5.55369775,20.7805996 5.56913183,21.1340877 5.79807074,21.3606028 L6.25337621,21.8111439 C6.48231511,22.0376591 6.84758842,22.0625509 7.1073955,21.868395 L7.49064952,21.5821396 C7.76074598,21.7364686 8.04630225,21.8584632 8.34466881,21.9430703 L8.39611576,22.4209924 C8.42955627,22.7346288 8.70222508,22.976079 9.02891318,22.9785682 L9.67974277,22.9860357 C10.0064051,22.9910141 10.2842444,22.7570314 10.3254019,22.443395 L10.3845659,21.9903647 C10.7087074,21.9131753 11.0173891,21.7962089 11.3106109,21.6418799 L11.6707395,21.9231569 C11.9254019,22.1222911 12.290701,22.1073561 12.5247846,21.8858193 L12.9903794,21.4452348 C13.224463,21.2237229 13.2501865,20.8702348 13.0495691,20.6188279 L12.7742765,20.2728074 C12.9440514,19.9989978 13.0752669,19.7077641 13.165299,19.4015952 L13.5923087,19.3592792 C13.9164244,19.3269199 14.1659164,19.0630671 14.1685145,18.7469416 L14.1762058,18.1171548 C14.1813762,17.8010541 13.9395756,17.5321981 13.6154598,17.4923712 L13.1987138,17.4400985 C13.1189711,17.1364188 13.0006688,16.8426959 12.846328,16.5688864 L13.106135,16.2602284 C13.3119228,16.0137998 13.2964887,15.6603366 13.0675498,15.4338214 L12.6122701,14.9832803 C12.3833312,14.7567403 12.0180064,14.7318485 11.7582251,14.9260292 L11.4469453,15.1575227 C11.1537235,14.9857695 10.8398714,14.8538431 10.5106367,14.7642327 L10.4694534,14.3734318 C10.4360129,14.0597706 10.1633698,13.8183452 9.83665595,13.8158561 L9.18585209,13.8083885 C8.85916399,13.8034102 8.58135048,14.0373929 8.5401672,14.3510292 L8.48872026,14.7393658 C8.14919614,14.8239729 7.82250804,14.9534351 7.51897106,15.1226742 L7.19742765,14.8687781 C6.94276527,14.6696439 6.57746624,14.6846039 6.34338264,14.9061158 L5.87521543,15.3492143 C5.64113183,15.5707262 5.61540836,15.9242143 5.81605145,16.1755963 L6.0912926,16.5191277 C5.93180707,16.7929372 5.80576206,17.0841461 5.72344695,17.3903398 L5.2733119,17.435145 L5.2733119,17.435145 Z M9.47395498,16.7232154 C10.407717,16.7331721 11.1562444,17.477461 11.1459807,18.3810325 C11.1356913,19.2846039 10.3665338,20.0089297 9.4327717,19.9989978 C8.49900965,19.9890411 7.75048232,19.2447771 7.76074598,18.3411807 C7.77106109,17.4376342 8.54019293,16.7132835 9.47395498,16.7232154 L9.47395498,16.7232154 Z" id="Shape"></path>
                </g>
            </g>
        </g>
    </g>
</svg>