<?xml version="1.0" encoding="UTF-8" standalone="no"?>
<svg width="18px" height="18px" viewBox="0 0 18 18" version="1.1" xmlns="http://www.w3.org/2000/svg" xmlns:xlink="http://www.w3.org/1999/xlink">
    <!-- Generator: Sketch 40.2 (33826) - http://www.bohemiancoding.com/sketch -->
    <title>infinite-symbol-in-black-circular-button</title>
    <desc>Created with Sketch.</desc>
    <defs></defs>
    <g id="Page-1" stroke="none" stroke-width="1" fill="none" fill-rule="evenodd">
        <g id="infinite-symbol-in-black-circular-button" transform="translate(9.000000, 9.000000) rotate(30.000000) translate(-9.000000, -9.000000) " fill="#FFFFFF">
            <g id="Capa_1">
                <g id="circle_26_">
                    <path d="M9,0 C4.02946875,0 0,4.02946875 0,9 C0,13.9705313 4.02946875,18 9,18 C13.9705313,18 18,13.9705313 18,9 C18,4.02946875 13.9705313,0 9,0 L9,0 Z M13.9427799,9.69223717 C13.0865155,10.4950004 11.8485999,10.7084373 10.7776777,10.3528147 L10.7776777,9.68717042 C11.640027,10.0883937 12.6883002,9.97185845 13.4651243,9.2444631 C14.455254,8.31693112 14.3889975,6.97519229 13.4651243,6.10972799 C12.5412512,5.2442637 11.043042,5.2442637 10.1188308,6.10972799 C9.65672517,6.54261848 9.4258414,7.10977785 9.4258414,7.67725389 L9.42550335,7.67725389 L9.42550335,11.1606448 L9.39237508,11.1606448 C9.31901962,11.781005 9.04182387,12.3833149 8.53374434,12.8592728 C7.3455211,13.9723745 5.41934868,13.9723745 4.23112543,12.8592728 C3.04290219,11.7461711 3.04290219,9.94145795 4.23112543,8.82835623 C5.08772791,8.02559297 6.32564356,7.81215611 7.39656568,8.16777865 L7.39656568,8.85020659 C6.51731428,8.45816678 5.43692695,8.59401903 4.70911908,9.27613029 C3.78524593,10.1415946 3.78524593,11.5454011 4.70911908,12.4108654 C5.63299223,13.276013 7.065621,13.3383974 8.05541265,12.4108654 C8.45024757,12.0413093 8.66220091,11.6049354 8.73285202,11.1600114 L8.74941616,11.1600114 L8.74941616,7.36058199 L8.78457269,7.36058199 C8.85454772,6.74085509 9.13208151,6.13822846 9.64083713,5.66195393 C10.8287223,4.54885221 12.7552328,4.54885221 13.943118,5.66195393 C15.1313412,6.77505565 15.1313412,8.57945212 13.9427799,9.69223717 L13.9427799,9.69223717 Z" id="Shape"></path>
                </g>
            </g>
        </g>
    </g>
</svg>