<?xml version="1.0" encoding="UTF-8" standalone="no"?>
<svg width="22px" height="17px" viewBox="0 0 22 17" version="1.1" xmlns="http://www.w3.org/2000/svg" xmlns:xlink="http://www.w3.org/1999/xlink">
    <!-- Generator: Sketch 40.2 (33826) - http://www.bohemiancoding.com/sketch -->
    <title>internet</title>
    <desc>Created with Sketch.</desc>
    <defs>
        <polygon id="path-1" points="20.7002714 0.161 0.206084562 0.161 0.206084562 16.2408 20.7002714 16.2408"></polygon>
    </defs>
    <g id="Page-1" stroke="none" stroke-width="1" fill="none" fill-rule="evenodd">
        <g id="internet" transform="translate(0.500000, 0.000000)">
            <g id="Page-1">
                <g>
                    <g id="internet">
                        <g id="Fill-1-Clipped">
                            <mask id="mask-2" fill="white">
                                <use xlink:href="#path-1"></use>
                            </mask>
                            <g id="path-1"></g>
                            <path d="M10.4481,16.2408 C9.4201,16.2408 8.6341,15.3948 8.6341,14.4268 C8.6341,13.4598 9.4811,12.6138 10.4481,12.6138 C11.4151,12.6138 12.2621,13.4598 12.2621,14.4268 C12.2011,15.3948 11.4151,16.2408 10.4481,16.2408 M10.3881,9.2888 C10.6901,9.2888 10.9921,9.3498 11.2941,9.4098 C12.2621,9.6518 13.1081,10.0748 13.7121,10.8608 C14.0751,11.2238 14.6191,11.6468 15.1631,11.6468 C15.4051,11.6468 15.5861,11.5858 15.7681,11.4048 C16.0701,11.1028 16.1911,10.7998 16.1911,10.3768 C16.1911,9.6518 15.7681,8.8658 15.4051,8.6238 C14.3771,7.5958 13.1081,6.9318 11.7171,6.6898 C11.2341,6.5688 10.6901,6.5078 10.2671,6.5078 C8.3931,6.5078 6.5791,7.2338 5.1891,8.5638 C4.8261,8.8658 4.3421,9.5908 4.3421,10.3168 C4.3421,10.6788 4.5241,11.1028 4.8261,11.3438 C5.0071,11.5258 5.2491,11.5858 5.4911,11.5858 C5.9751,11.5858 6.5191,11.3438 6.7001,11.1028 C7.7281,9.9538 9.0581,9.2888 10.3881,9.2888 M10.3881,3.0628 C11.1131,3.0628 11.8381,3.1228 12.5641,3.3038 C14.6801,3.7278 16.5541,4.7548 18.0041,6.2668 L18.4881,6.7498 C18.8511,7.2938 19.6371,7.2938 20.1811,6.7498 L20.2411,6.6898 C20.7851,6.1458 20.8461,5.1178 20.4221,4.5738 L19.9391,4.0898 C18.0651,2.2768 15.7071,1.0068 13.1681,0.4628 C12.2621,0.2818 11.3551,0.1608 10.4481,0.1608 C7.0021,0.1608 3.7381,1.4908 1.1991,3.9088 C0.6551,4.4528 0.5341,4.5128 0.5341,4.5128 C0.0501,5.1178 0.1111,6.1458 0.6551,6.6898 L0.7151,6.7498 C1.0181,7.0518 1.2591,7.1128 1.6221,7.1128 C1.9851,7.1128 2.2271,6.9318 2.4681,6.6898 L2.9521,6.2058 C4.8261,4.1508 7.6071,3.0628 10.3881,3.0628" id="Fill-1" fill="#FFFFFF" mask="url(#mask-2)"></path>
                        </g>
                    </g>
                </g>
            </g>
        </g>
    </g>
</svg>