<?xml version="1.0" encoding="UTF-8" standalone="no"?>
<svg width="26px" height="18px" viewBox="0 0 26 18" version="1.1" xmlns="http://www.w3.org/2000/svg" xmlns:xlink="http://www.w3.org/1999/xlink">
    <!-- Generator: Sketch 40.2 (33826) - http://www.bohemiancoding.com/sketch -->
    <title>email-filled-closed-envelope</title>
    <desc>Created with Sketch.</desc>
    <defs></defs>
    <g id="Page-1" stroke="none" stroke-width="1" fill="none" fill-rule="evenodd">
        <g id="email-filled-closed-envelope" fill="#D01E11">
            <g id="Capa_1">
                <path d="M13.0326275,10.7918341 L13.0381928,10.7918341 C13.2342549,10.7918341 13.4280229,10.7330488 13.5847876,10.6260146 L13.6273137,10.5977854 C13.6365752,10.5915512 13.6462614,10.5858878 13.6559902,10.5791707 L14.1512647,10.1557317 L25.9727255,0.0746780488 C25.9482549,0.0397756098 25.9065784,0.0158926829 25.862183,0.0158926829 L0.137349673,0.0158926829 C0.105444444,0.0158926829 0.0758333333,0.0278341463 0.052254902,0.047897561 L12.4203105,10.5824634 C12.576183,10.715839 12.798585,10.7918341 13.0326275,10.7918341 L13.0326275,10.7918341 Z M0,1.44434634 L0,16.3874195 L8.85996732,8.99113171 L0,1.44434634 L0,1.44434634 Z M17.1492941,9.0413122 L26,16.391239 L26,1.4940439 L17.1492941,9.0413122 L17.1492941,9.0413122 Z M14.3353039,11.4403171 C13.9824771,11.7394683 13.5209771,11.9043659 13.0363235,11.9043659 C12.5498431,11.9043659 12.088768,11.7404341 11.7368758,11.4426878 L9.70764379,9.71319512 L0,17.8158732 L0,17.8416439 C0,17.9186049 0.0638104575,17.9840634 0.139176471,17.9840634 L25.8626503,17.9840634 C25.9366144,17.9840634 25.9999575,17.9186049 25.9999575,17.841161 L25.9999575,17.817278 L16.300683,9.76390244 L14.3353039,11.4403171 L14.3353039,11.4403171 Z" id="Shape"></path>
            </g>
        </g>
    </g>
</svg>