<?xml version="1.0" encoding="UTF-8" standalone="no"?>
<svg width="20px" height="17px" viewBox="0 0 20 17" version="1.1" xmlns="http://www.w3.org/2000/svg" xmlns:xlink="http://www.w3.org/1999/xlink">
    <!-- Generator: Sketch 40.2 (33826) - http://www.bohemiancoding.com/sketch -->
    <title>Capa_1</title>
    <desc>Created with Sketch.</desc>
    <defs></defs>
    <g id="Page-1" stroke="none" stroke-width="1" fill="none" fill-rule="evenodd">
        <g id="Capa_1" fill="#FFFFFF">
            <g id="Group">
                <path d="M17.5092308,0.185454545 L2.78615385,0.185454545 C1.49076923,0.185454545 0,1.34145455 0,2.45572727 L0,11.4193636 C0,12.4455455 1.26307692,13.1865909 2.47461538,13.3009545 L1.68615385,16.3076364 L6.73846154,13.3218182 L17.5092308,13.3218182 C18.8046154,13.3218182 20,12.5328636 20,11.4193636 L20,4.16731818 L20,2.45572727 C20,1.34145455 18.8038462,0.185454545 17.5092308,0.185454545 L17.5092308,0.185454545 Z M5.03230769,7.752 C4.29769231,7.752 3.70230769,7.15390909 3.70230769,6.41595455 C3.70230769,5.678 4.29769231,5.07990909 5.03230769,5.07990909 C5.76615385,5.07990909 6.36230769,5.678 6.36230769,6.41595455 C6.36230769,7.15390909 5.76615385,7.752 5.03230769,7.752 L5.03230769,7.752 Z M10,7.752 C9.26538462,7.752 8.67,7.15390909 8.67,6.41595455 C8.67,5.678 9.26538462,5.07990909 10,5.07990909 C10.7346154,5.07990909 11.33,5.678 11.33,6.41595455 C11.33,7.15390909 10.7346154,7.752 10,7.752 L10,7.752 Z M14.9684615,7.752 C14.2338462,7.752 13.6376923,7.15390909 13.6376923,6.41595455 C13.6376923,5.678 14.2338462,5.07990909 14.9684615,5.07990909 C15.7015385,5.07990909 16.2984615,5.678 16.2984615,6.41595455 C16.2984615,7.15390909 15.7015385,7.752 14.9684615,7.752 L14.9684615,7.752 Z" id="Shape"></path>
            </g>
        </g>
    </g>
</svg>