<?xml version="1.0" encoding="UTF-8" standalone="no"?>
<svg width="17px" height="17px" viewBox="0 0 17 17" version="1.1" xmlns="http://www.w3.org/2000/svg" xmlns:xlink="http://www.w3.org/1999/xlink">
    <!-- Generator: Sketch 40.2 (33826) - http://www.bohemiancoding.com/sketch -->
    <title>calls</title>
    <desc>Created with Sketch.</desc>
    <defs></defs>
    <g id="Page-1" stroke="none" stroke-width="1" fill="none" fill-rule="evenodd">
        <g id="calls" fill="#FFFFFF">
            <g id="Page-1">
                <g>
                    <g id="calls">
                        <g id="Capa_1">
                            <path d="M6.48222731,10.4461546 C7.9982012,11.9510083 9.75291339,13.3885705 10.4417962,12.6944331 C11.4281548,11.7008647 12.0352857,10.8364211 14.2240527,12.5819683 C16.4128197,14.3283708 14.7412036,15.5036508 13.7858838,16.4664248 C12.6834758,17.5771831 8.55441539,16.5442663 4.4616484,12.4825381 C0.369125814,8.41999527 -0.695318655,4.29900005 0.407903984,3.1877122 C1.36350888,2.2248975 2.52628371,0.54497178 4.28792057,2.72098923 C6.05041283,4.89590688 5.19061282,5.50967732 4.20425423,6.50353086 C3.51569731,7.19738311 4.96600901,8.94101582 6.48222731,10.4461546 L6.48222731,10.4461546 L6.48222731,10.4461546 Z M8.68044444,3.26693861 C8.68044444,3.26693861 8.22313088,3.19549228 7.90292585,3.51594171 C7.5733114,3.84555616 7.55893252,4.41337936 7.90626598,4.76042768 C8.11152144,4.96568315 8.40097278,5.00943079 8.40097278,5.00943079 C8.96521145,5.11525609 9.81556131,5.29444219 10.7204939,6.19908964 C11.6251414,7.10369636 11.8043275,7.95404623 11.9101528,8.51857003 C11.9101528,8.51857003 11.9539004,8.80802137 12.1591559,9.01327683 C12.5062449,9.36036589 13.0740274,9.34623141 13.4036418,9.01661696 C13.7238469,8.69645266 13.6526449,8.2391391 13.6526449,8.2391391 C13.4734588,7.09628289 12.919485,5.90246923 11.9682793,4.95130426 C11.0168292,4.0001393 9.82297479,3.44640985 8.68044444,3.26693861 L8.68044444,3.26693861 L8.68044444,3.26693861 Z M15.1056858,9.01580229 C15.1056858,9.01580229 15.0253596,9.49885935 15.3408395,9.81433931 C15.6959531,10.1694528 16.2587661,10.148964 16.5911504,9.81686478 C16.8047154,9.60329971 16.8512329,9.25568112 16.8512329,9.25568112 C17.0415393,7.93750848 16.8022307,5.28564378 14.2179427,2.70164088 C11.6336546,0.117597244 8.98207506,-0.121711315 7.66386169,0.0683098644 C7.66386169,0.0683098644 7.31652823,0.114582975 7.10267803,0.328392443 C6.77029371,0.660776756 6.75008996,1.22363049 7.10516276,1.57870329 C7.42068346,1.89422398 7.90369978,1.81385704 7.90369978,1.81385704 C9.42912382,1.58367276 11.3114944,2.29084482 12.9701166,3.94942625 C14.6287387,5.60804842 15.33587,7.49045972 15.1056858,9.01580229 Z" id="Shape"></path>
                        </g>
                    </g>
                </g>
            </g>
        </g>
    </g>
</svg>