<?xml version="1.0" encoding="UTF-8" standalone="no"?>
<svg width="492px" height="492px" viewBox="0 0 492 492" version="1.1" xmlns="http://www.w3.org/2000/svg" xmlns:xlink="http://www.w3.org/1999/xlink">
    <!-- Generator: Sketch 40.2 (33826) - http://www.bohemiancoding.com/sketch -->
    <title>Combined Shape</title>
    <desc>Created with Sketch.</desc>
    <defs></defs>
    <g id="Page-1" stroke="none" stroke-width="1" fill="none" fill-rule="evenodd">
        <path d="M245.929,0 C110.106,0 0,110.105 0,245.928 C0,381.751 110.106,491.856 245.929,491.856 C300.467,491.856 350.848,474.092 391.631,444.05 C389.462,443.904 387.345,442.953 385.778,441.203 L345.498,396.189 L323.805,429.482 L305.894,338.99 L398.011,367.645 L358.36,384.68 L398.64,429.696 C400.509,431.782 401.143,434.521 400.652,437.074 C456.287,391.987 491.858,323.117 491.858,245.927 C491.858,110.105 381.752,0 245.929,0 Z M91.849,263.345 L94.104,275.875 L94.354,275.959 L97.111,263.345 L115.321,205.539 L127.851,205.539 L146.062,263.345 L148.986,277.045 L149.236,277.045 L152.076,263.345 L166.695,205.539 L182.066,205.539 L155.836,295.924 L143.305,295.924 L125.429,240.206 L121.503,224.083 L121.253,224.083 L117.494,240.206 L99.952,295.924 L87.338,295.924 L61.108,205.539 L76.562,205.539 L91.849,263.345 Z M221.329,263.345 L223.584,275.875 L223.834,275.959 L226.591,263.345 L244.801,205.539 L257.332,205.539 L275.543,263.345 L278.465,277.045 L278.717,277.045 L281.557,263.345 L296.176,205.539 L311.545,205.539 L285.316,295.924 L272.785,295.924 L254.908,240.206 L250.982,224.083 L250.732,224.083 L246.972,240.206 L229.43,295.924 L216.816,295.924 L190.586,205.539 L206.04,205.539 L221.329,263.345 Z M350.809,263.345 L353.064,275.875 L353.315,275.959 L356.072,263.345 L374.283,205.539 L386.813,205.539 L405.024,263.345 L407.947,277.045 L408.198,277.045 L411.038,263.345 L425.657,205.539 L441.027,205.539 L414.798,295.924 L402.268,295.924 L384.391,240.206 L380.465,224.083 L380.214,224.083 L376.455,240.206 L358.912,295.924 L346.299,295.924 L320.069,205.539 L335.523,205.539 L350.809,263.345 Z" id="Combined-Shape" fill="#FFFFFF"></path>
    </g>
</svg>