<?xml version="1.0" encoding="UTF-8" standalone="no"?>
<svg width="19px" height="23px" viewBox="0 0 19 23" version="1.1" xmlns="http://www.w3.org/2000/svg" xmlns:xlink="http://www.w3.org/1999/xlink">
    <!-- Generator: Sketch 40.2 (33826) - http://www.bohemiancoding.com/sketch -->
    <title>difussion</title>
    <desc>Created with Sketch.</desc>
    <defs></defs>
    <g id="Page-1" stroke="none" stroke-width="1" fill="none" fill-rule="evenodd">
        <g id="difussion" fill="#FFFFFF">
            <g id="Capa_1">
                <g id="Group">
                    <path d="M4.04834911,0.250381188 C3.71916568,-0.0830049505 3.18525444,-0.0831188119 2.85595858,0.25049505 C-0.812278107,3.96590594 -0.812278107,10.0109208 2.85573373,13.7259901 C3.02043787,13.892797 3.23618343,13.9761436 3.45204142,13.9761436 C3.66778698,13.9761436 3.88364497,13.892797 4.04823669,13.726104 C4.37764497,13.392604 4.37764497,12.8518762 4.04834911,12.5184901 C1.03757988,9.46916832 1.03769231,4.50754455 4.04846154,1.45810891 C4.3777574,1.12460891 4.3777574,0.583881188 4.04834911,0.250381188 Z" id="Shape"></path>
                    <path d="M16.1623669,0.250039604 C15.8329586,-0.0833465347 15.2991598,-0.0833465347 14.9698639,0.250039604 C14.640568,0.583653465 14.640568,1.12426733 14.9698639,1.45776733 C16.4285917,2.93500495 17.2317633,4.899 17.2316509,6.98801485 C17.2316509,9.07714356 16.4282544,11.0411386 14.9695266,12.5182624 C14.6401183,12.8517624 14.6401183,13.3924901 14.9694142,13.7258762 C15.1341183,13.8926832 15.3498639,13.9760297 15.5657219,13.9760297 C15.7814675,13.9760297 15.9973254,13.8926832 16.1619172,13.7259901 C17.9392604,11.9261832 18.9181538,9.53327228 18.9181538,6.98790099 C18.9181538,4.44287129 17.9394852,2.04984653 16.1623669,0.250039604 L16.1623669,0.250039604 Z" id="Shape"></path>
                    <path d="M5.12730178,11.4258762 C5.29200592,11.5926832 5.50775148,11.6760297 5.72360947,11.6760297 C5.93935503,11.6760297 6.15521302,11.5926832 6.31980473,11.4259901 C6.64921302,11.0924901 6.64921302,10.5517624 6.31991716,10.2183762 C4.56146154,8.43724257 4.56146154,5.53912871 6.31991716,3.75810891 C6.64921302,3.42460891 6.64921302,2.88388119 6.31980473,2.55038119 C5.99039645,2.21676733 5.45648521,2.21688119 5.1274142,2.55049505 C2.71160355,4.99737624 2.71160355,8.97899505 5.12730178,11.4258762 L5.12730178,11.4258762 Z" id="Shape"></path>
                    <path d="M12.6984083,11.4259901 C12.863,11.5926832 13.078858,11.6760297 13.2946036,11.6760297 C13.5103491,11.6760297 13.7262071,11.5926832 13.8909112,11.4258762 C15.0612663,10.2404653 15.7059172,8.66428218 15.7059172,6.98801485 C15.7059172,5.3115198 15.0613787,3.73556436 13.8906864,2.55015347 C13.561503,2.21676733 13.0275917,2.21665347 12.6982959,2.55026733 C12.369,2.88376733 12.369,3.42449505 12.6984083,3.75788119 C13.5503728,4.62060891 14.0195266,5.76764851 14.0195266,6.98790099 C14.0195266,8.20815347 13.5502604,9.35530693 12.6982959,10.2182624 C12.369,10.5517624 12.369,11.0924901 12.6984083,11.4259901 L12.6984083,11.4259901 Z" id="Shape"></path>
                    <path d="M9.50888166,9.15684653 C10.6919408,9.15684653 11.6504852,8.18572277 11.6504852,6.98790099 C11.6504852,5.79007921 10.6920533,4.81918317 9.50888166,4.81918317 C8.32604734,4.81918317 7.36727811,5.79007921 7.36727811,6.98790099 C7.36739053,8.18572277 8.32604734,9.15684653 9.50888166,9.15684653 L9.50888166,9.15684653 Z" id="Shape"></path>
                    <path d="M10.310929,10.362297 C10.1982781,10.0101238 9.8743787,9.77158416 9.50876923,9.77158416 C9.14315976,9.77158416 8.81926036,10.0102376 8.70660947,10.362297 L5.05107692,21.7918168 C4.9076213,22.2404307 5.15034911,22.7220644 5.59330769,22.8673515 C5.67976331,22.895703 5.76723077,22.9091386 5.85334911,22.9091386 C6.20895266,22.9091386 6.53971006,22.6793663 6.65528402,22.318198 L7.10071598,20.9255594 L11.9169349,20.9255594 L12.3623669,22.318198 C12.5058225,22.7668119 12.9811598,23.0126386 13.4243432,22.8673515 C13.8673018,22.7220644 14.110142,22.2404307 13.966574,21.7918168 L10.310929,10.362297 L10.310929,10.362297 Z M9.50888166,13.396703 L10.2148047,15.6039059 L8.80284615,15.6039059 L9.50888166,13.396703 L9.50888166,13.396703 Z M7.64710651,19.2176386 L8.25668047,17.3118267 L10.7610828,17.3118267 L11.3706568,19.2176386 L7.64710651,19.2176386 L7.64710651,19.2176386 Z" id="Shape"></path>
                </g>
            </g>
        </g>
    </g>
</svg>