<?xml version="1.0" encoding="UTF-8" standalone="no"?>
<svg width="17px" height="17px" viewBox="0 0 17 17" version="1.1" xmlns="http://www.w3.org/2000/svg" xmlns:xlink="http://www.w3.org/1999/xlink">
    <!-- Generator: Sketch 40.2 (33826) - http://www.bohemiancoding.com/sketch -->
    <title>tourist-information</title>
    <desc>Created with Sketch.</desc>
    <defs></defs>
    <g id="Page-1" stroke="none" stroke-width="1" fill="none" fill-rule="evenodd">
        <g id="tourist-information" fill="#FFFFFF">
            <g id="Capa_1">
                <g id="Group">
                    <path d="M8.34844681,0 C3.73710638,0 0,3.73710638 0,8.34844681 C0,12.957617 3.73710638,16.6954468 8.34844681,16.6954468 C12.957617,16.6954468 16.6954468,12.957617 16.6954468,8.34844681 C16.6954468,3.73710638 12.957617,0 8.34844681,0 L8.34844681,0 Z M8.34844681,15.3647447 C4.47931915,15.3647447 1.33106383,12.2175745 1.33106383,8.34917021 C1.33106383,4.48004255 4.47931915,1.33178723 8.34844681,1.33178723 C12.2172128,1.33178723 15.364383,4.48004255 15.364383,8.34917021 C15.3647447,12.2172128 12.2172128,15.3647447 8.34844681,15.3647447 L8.34844681,15.3647447 Z" id="Shape"></path>
                    <path d="M8.34844681,2.41978723 C5.07902128,2.41978723 2.41942553,5.07938298 2.41942553,8.34880851 C2.41942553,11.6171489 5.07902128,14.2760213 8.34844681,14.2760213 C11.6167872,14.2760213 14.2760213,11.6171489 14.2760213,8.34880851 C14.2760213,5.07902128 11.6167872,2.41978723 8.34844681,2.41978723 L8.34844681,2.41978723 Z M9.45525532,12.062766 C9.45525532,12.6349787 8.93476596,13.0990426 8.36255319,13.0990426 C7.78925532,13.0990426 7.26948936,12.6349787 7.26948936,12.062766 L7.26948936,8.43417021 C7.26948936,7.86159574 7.78961702,7.39753191 8.36255319,7.39753191 C8.93476596,7.39753191 9.45525532,7.86159574 9.45525532,8.43417021 L9.45525532,12.062766 L9.45525532,12.062766 Z M8.3477234,6.55946809 C7.59646809,6.55946809 6.9866383,5.95 6.9866383,5.19838298 C6.9866383,4.44748936 7.59646809,3.83765957 8.3477234,3.83765957 C9.09934043,3.83765957 9.70880851,4.44748936 9.70880851,5.19838298 C9.70880851,5.9503617 9.09934043,6.55946809 8.3477234,6.55946809 L8.3477234,6.55946809 Z" id="Shape"></path>
                </g>
            </g>
        </g>
    </g>
</svg>