<?xml version="1.0" encoding="utf-8"?>
<!-- Generator: Adobe Illustrator 20.1.0, SVG Export Plug-In . SVG Version: 6.00 Build 0)  -->
<svg version="1.1" id="Capa_1" xmlns="http://www.w3.org/2000/svg" xmlns:xlink="http://www.w3.org/1999/xlink" x="0px" y="0px"
	 viewBox="0 0 497.4 497.4" style="enable-background:new 0 0 497.4 497.4;" xml:space="preserve">
<style type="text/css">
	.st0{fill:#FFFFFF;}
</style>
<g>
	<path class="st0" d="M355.6,158.9h-58.2c0-11.9-9.3-22.3-23.2-28.1L310,75.7c0.8,0.1,1.6,0.2,2.5,0.2c8.4,0,15.3-6.8,15.3-15.3
		s-6.8-15.3-15.3-15.3s-15.3,6.8-15.3,15.3c0,3.1,0.9,6,2.5,8.4l-37.7,58.1c-4.2-0.8-8.7-1.3-13.4-1.3s-9.1,0.4-13.4,1.3L167.5,22.7
		c1.5-2.3,2.3-5,2.3-7.9c0-8.1-6.6-14.7-14.7-14.7s-14.7,6.6-14.7,14.7c0,8.1,6.6,14.7,14.7,14.7c0.7,0,1.5-0.1,2.2-0.2l65.9,101.5
		c-13.9,5.8-23.2,16.2-23.2,28.1h-58.2C85.6,158.9,40,204.4,40,260.7v112c0,47.4,32.4,87.3,76.3,98.6c-0.5,8.3-0.7,26.2,6,26.2
		c5.9,0,15.6-14,21.3-23h210.2c5.6,9,15.4,23,21.3,23c6.7,0,6.4-17.9,6-26.2c43.9-11.3,76.3-51.2,76.3-98.6v-112
		C457.4,204.4,411.8,158.9,355.6,158.9z M334.8,414.9H109.3c-11,0-20-9-20-20V238.5c0-11,9-20,20-20h225.5c11,0,20,9,20,20v156.5
		C354.8,406,345.9,414.9,334.8,414.9z M397.4,379.4c-13.1,0-23.7-10.6-23.7-23.7s10.6-23.7,23.7-23.7s23.7,10.6,23.7,23.7
		S410.4,379.4,397.4,379.4z M397.4,287.8c-13.1,0-23.7-10.6-23.7-23.7c0-13.1,10.6-23.7,23.7-23.7S421,251,421,264.1
		C421,277.2,410.4,287.8,397.4,287.8z"/>
</g>
</svg>
