<?xml version="1.0" encoding="UTF-8"?>
<svg width="31px" height="25px" viewBox="0 0 31 25" version="1.1" xmlns="http://www.w3.org/2000/svg" xmlns:xlink="http://www.w3.org/1999/xlink">
    <!-- Generator: Sketch 40.2 (33826) - http://www.bohemiancoding.com/sketch -->
    <title>twitter</title>
    <desc>Created with Sketch.</desc>
    <defs>
        <polygon id="path-1" points="29.9331679 0 0 0 0 24.354296 29.9331679 24.354296"></polygon>
    </defs>
    <g id="Page-1" stroke="none" stroke-width="1" fill="none" fill-rule="evenodd">
        <g id="twitter" transform="translate(0.634660, -0.019560)">
            <g id="Page-1">
                <g>
                    <g id="twitter">
                        <g id="Fill-1-Clipped">
                            <mask id="mask-2" fill="white">
                                <use xlink:href="#path-1"></use>
                            </mask>
                            <g id="path-1"></g>
                            <path d="M29.9331679,2.88297559 C28.8318176,3.37197409 27.6483503,3.70257698 26.4059781,3.85110712 C27.6739708,3.09026009 28.6477664,1.88524763 29.1061971,0.449602391 C27.9196642,1.15421624 26.6054671,1.66579571 25.2065256,1.94159043 C24.0863431,0.746662681 22.4903212,-4.38465372e-05 20.7240438,-4.38465372e-05 C17.332292,-4.38465372e-05 14.5826934,2.75286099 14.5826934,6.14811759 C14.5826934,6.63010064 14.637,7.0992586 14.7416716,7.54923368 C9.63783941,7.29284106 5.11276642,4.84510812 2.08386131,1.12538714 C1.55524818,2.03344893 1.25240146,3.08960239 1.25240146,4.21634878 C1.25240146,6.34937319 2.33656204,8.23126657 3.98437227,9.33389736 C2.97772992,9.301999 2.03075912,9.02532736 1.20280292,8.5648291 C1.20236497,8.59047932 1.20225548,8.61623917 1.20225548,8.64210862 C1.20225548,11.6210423 3.31911679,14.1060449 6.12849636,14.6708979 C5.61313139,14.8113164 5.07061313,14.8864036 4.51057664,14.8864036 C4.11477372,14.8864036 3.73013869,14.8479282 3.35513869,14.7761296 C4.13667153,17.2188201 6.40462773,18.9963588 9.09192701,19.0461246 C6.99006569,20.6950832 4.34218248,21.6779033 1.46491971,21.6779033 C0.969262773,21.6779033 0.480394161,21.648855 -4.37956204e-05,21.5920738 C2.71780292,23.3365082 5.94575912,24.354296 9.41382482,24.354296 C20.7097008,24.354296 26.886635,14.9858256 26.886635,6.86106228 C26.886635,6.59447533 26.8806131,6.3293134 26.8688978,6.0656861 C28.0686788,5.19884006 29.1098102,4.11594021 29.9331679,2.88297559" id="Fill-1" fill="#00AEF1" mask="url(#mask-2)"></path>
                        </g>
                    </g>
                </g>
            </g>
        </g>
    </g>
</svg>