<?xml version="1.0" encoding="UTF-8" standalone="no"?>
<svg width="70px" height="19px" viewBox="0 0 70 19" version="1.1" xmlns="http://www.w3.org/2000/svg" xmlns:xlink="http://www.w3.org/1999/xlink">
    <!-- Generator: Sketch 40.2 (33826) - http://www.bohemiancoding.com/sketch -->
    <title>Group 5</title>
    <desc>Created with Sketch.</desc>
    <defs>
        <polygon id="path-1" points="8.895708 18 17.7912 18 17.7912 0.2088 8.895708 0.2088 0.000216 0.2088 0.000216 18"></polygon>
        <polygon id="path-3" points="17.7909844 0.12888 0 0.12888 0 17.999856 17.7909844 17.999856"></polygon>
    </defs>
    <g id="Page-1" stroke="none" stroke-width="1" fill="none" fill-rule="evenodd">
        <g id="Group-5">
            <g id="facebook">
                <g transform="translate(0.000000, -0.000000)" id="Page-1">
                    <g>
                        <g id="facebook">
                            <g id="Group-3" transform="translate(0.000000, 0.511344)">
                                <g id="Fill-1-Clipped">
                                    <mask id="mask-2" fill="white">
                                        <use xlink:href="#path-1"></use>
                                    </mask>
                                    <g id="path-1"></g>
                                    <path d="M16.809336,18 C17.351496,18 17.791416,17.56008 17.791416,17.01792 L17.791416,1.19088 C17.791416,0.648 17.351496,0.2088 16.809336,0.2088 L0.981576,0.2088 C0.439416,0.2088 0.000216,0.648 0.000216,1.19088 L0.000216,17.01792 C0.000216,17.56008 0.439416,18 0.981576,18 L16.809336,18 L16.809336,18 Z" id="Fill-1" fill="#36538E" mask="url(#mask-2)"></path>
                                </g>
                            </g>
                            <path d="M12.27564,18.511344 L12.27564,11.621664 L14.58828,11.621664 L14.9346,8.936784 L12.27564,8.936784 L12.27564,7.222464 C12.27564,6.444864 12.49164,5.914944 13.6062,5.914944 L15.0282,5.914224 L15.0282,3.513024 C14.78196,3.479904 13.93812,3.407184 12.95604,3.407184 C10.9062,3.407184 9.50292,4.658544 9.50292,6.956064 L9.50292,8.936784 L7.18452,8.936784 L7.18452,11.621664 L9.50292,11.621664 L9.50292,18.511344 L12.27564,18.511344 L12.27564,18.511344 Z" id="Fill-4" fill="#FEFEFE"></path>
                        </g>
                    </g>
                </g>
            </g>
            <g id="whatsapp" transform="translate(22.000000, 0.000000)">
                <g transform="translate(0.000000, -0.000000)" id="Page-1">
                    <g>
                        <g id="whatsapp">
                            <path d="M8.898696,2.026368 C4.685256,2.026368 1.269576,5.442048 1.269576,9.655488 C1.269576,11.017728 1.636776,12.290688 2.262456,13.398048 L2.235096,13.369968 L1.269576,17.284608 L4.937976,16.174368 L4.915656,16.151328 C6.076296,16.864848 7.436376,17.284608 8.898696,17.284608 C13.112136,17.284608 16.527816,13.868928 16.527816,9.655488 C16.527816,5.442048 13.112136,2.026368 8.898696,2.026368" id="Fill-1" fill="#009C41"></path>
                            <g id="Group-5" transform="translate(0.000000, 0.591048)">
                                <g id="Fill-3-Clipped">
                                    <mask id="mask-4" fill="white">
                                        <use xlink:href="#path-3"></use>
                                    </mask>
                                    <g id="path-1"></g>
                                    <path d="M8.932824,16.351056 L8.929944,16.351056 C7.608744,16.350336 6.312744,15.995376 5.182344,15.325056 L4.913784,15.165216 L2.126664,15.896016 L2.871144,13.180176 L2.695464,12.901536 C1.958184,11.729376 1.569384,10.375056 1.570104,8.984736 C1.571544,4.926096 4.874184,1.624896 8.935704,1.624896 C10.902024,1.625616 12.750984,2.392416 14.141304,3.783456 C15.530904,5.174496 16.296264,7.023456 16.295544,8.990496 C16.294104,13.049136 12.990744,16.351056 8.932824,16.351056 M15.198984,2.725776 C13.526424,1.052496 11.302344,0.130176 8.932824,0.128736 C4.049784,0.128736 0.076104,4.101696 0.074664,8.984016 C0.073944,10.544976 0.481464,12.068496 1.256904,13.411296 L-0.000216,17.999856 L4.695624,16.768656 C5.989464,17.474256 7.446744,17.845776 8.929224,17.846496 L8.932824,17.846496 C13.815144,17.846496 17.788824,13.873536 17.790984,8.991216 C17.791704,6.624576 16.871544,4.399776 15.198984,2.725776" id="Fill-3" fill="#FEFEFE" mask="url(#mask-4)"></path>
                                </g>
                            </g>
                            <path d="M6.684768,5.871456 C6.519168,5.502816 6.344208,5.495616 6.186528,5.489136 C6.057648,5.483376 5.910048,5.484096 5.762448,5.484096 C5.614848,5.484096 5.375088,5.539536 5.172048,5.760576 C4.969728,5.982336 4.397328,6.518016 4.397328,7.606656 C4.397328,8.696016 5.190768,9.747936 5.301648,9.895536 C5.411808,10.043136 6.832368,12.349296 9.082368,13.237056 C10.952208,13.974336 11.332368,13.827456 11.738448,13.790736 C12.144528,13.753296 13.048128,13.255056 13.232448,12.738096 C13.416768,12.221856 13.416768,11.778336 13.361328,11.686176 C13.305888,11.594016 13.158288,11.538576 12.937248,11.427696 C12.716208,11.316816 11.627568,10.781856 11.424528,10.707696 C11.222208,10.634256 11.074608,10.596816 10.927008,10.818576 C10.779408,11.040336 10.355328,11.538576 10.225728,11.686176 C10.096848,11.833776 9.967968,11.852496 9.746208,11.741616 C9.525168,11.630736 8.812368,11.397456 7.966368,10.642896 C7.308288,10.056816 6.864048,9.331776 6.735168,9.110736 C6.606288,8.888976 6.721488,8.769456 6.832368,8.658576 C6.931728,8.559936 7.053408,8.400816 7.164288,8.271216 C7.275168,8.141616 7.311888,8.049456 7.385328,7.901856 C7.459488,7.754256 7.422768,7.625376 7.367328,7.514496 C7.311888,7.403616 6.881328,6.309216 6.684768,5.871456" id="Fill-6" fill="#FEFEFE"></path>
                        </g>
                    </g>
                </g>
            </g>
            <g id="email-filled-closed-envelope" transform="translate(44.000000, 1.000000)" fill="#D01E11">
                <g id="Capa_1">
                    <path d="M13.0326275,10.7918341 L13.0381928,10.7918341 C13.2342549,10.7918341 13.4280229,10.7330488 13.5847876,10.6260146 L13.6273137,10.5977854 C13.6365752,10.5915512 13.6462614,10.5858878 13.6559902,10.5791707 L14.1512647,10.1557317 L25.9727255,0.0746780488 C25.9482549,0.0397756098 25.9065784,0.0158926829 25.862183,0.0158926829 L0.137349673,0.0158926829 C0.105444444,0.0158926829 0.0758333333,0.0278341463 0.052254902,0.047897561 L12.4203105,10.5824634 C12.576183,10.715839 12.798585,10.7918341 13.0326275,10.7918341 L13.0326275,10.7918341 Z M0,1.44434634 L0,16.3874195 L8.85996732,8.99113171 L0,1.44434634 L0,1.44434634 Z M17.1492941,9.0413122 L26,16.391239 L26,1.4940439 L17.1492941,9.0413122 L17.1492941,9.0413122 Z M14.3353039,11.4403171 C13.9824771,11.7394683 13.5209771,11.9043659 13.0363235,11.9043659 C12.5498431,11.9043659 12.088768,11.7404341 11.7368758,11.4426878 L9.70764379,9.71319512 L0,17.8158732 L0,17.8416439 C0,17.9186049 0.0638104575,17.9840634 0.139176471,17.9840634 L25.8626503,17.9840634 C25.9366144,17.9840634 25.9999575,17.9186049 25.9999575,17.841161 L25.9999575,17.817278 L16.300683,9.76390244 L14.3353039,11.4403171 L14.3353039,11.4403171 Z" id="Shape"></path>
                </g>
            </g>
        </g>
    </g>
</svg>