<?xml version="1.0" encoding="UTF-8" standalone="no"?>
<svg width="18px" height="19px" viewBox="0 0 18 19" version="1.1" xmlns="http://www.w3.org/2000/svg" xmlns:xlink="http://www.w3.org/1999/xlink">
    <!-- Generator: Sketch 40.2 (33826) - http://www.bohemiancoding.com/sketch -->
    <title>whatsapp</title>
    <desc>Created with Sketch.</desc>
    <defs>
        <polygon id="path-1" points="17.7909844 0.12888 0 0.12888 0 17.999856 17.7909844 17.999856"></polygon>
    </defs>
    <g id="Page-1" stroke="none" stroke-width="1" fill="none" fill-rule="evenodd">
        <g id="whatsapp">
            <g transform="translate(0.000000, -0.000000)" id="Page-1">
                <g>
                    <g id="whatsapp">
                        <path d="M8.898696,2.026368 C4.685256,2.026368 1.269576,5.442048 1.269576,9.655488 C1.269576,11.017728 1.636776,12.290688 2.262456,13.398048 L2.235096,13.369968 L1.269576,17.284608 L4.937976,16.174368 L4.915656,16.151328 C6.076296,16.864848 7.436376,17.284608 8.898696,17.284608 C13.112136,17.284608 16.527816,13.868928 16.527816,9.655488 C16.527816,5.442048 13.112136,2.026368 8.898696,2.026368" id="Fill-1" fill="#009C41"></path>
                        <g id="Group-5" transform="translate(0.000000, 0.591048)">
                            <g id="Fill-3-Clipped">
                                <mask id="mask-2" fill="white">
                                    <use xlink:href="#path-1"></use>
                                </mask>
                                <g id="path-1"></g>
                                <path d="M8.932824,16.351056 L8.929944,16.351056 C7.608744,16.350336 6.312744,15.995376 5.182344,15.325056 L4.913784,15.165216 L2.126664,15.896016 L2.871144,13.180176 L2.695464,12.901536 C1.958184,11.729376 1.569384,10.375056 1.570104,8.984736 C1.571544,4.926096 4.874184,1.624896 8.935704,1.624896 C10.902024,1.625616 12.750984,2.392416 14.141304,3.783456 C15.530904,5.174496 16.296264,7.023456 16.295544,8.990496 C16.294104,13.049136 12.990744,16.351056 8.932824,16.351056 M15.198984,2.725776 C13.526424,1.052496 11.302344,0.130176 8.932824,0.128736 C4.049784,0.128736 0.076104,4.101696 0.074664,8.984016 C0.073944,10.544976 0.481464,12.068496 1.256904,13.411296 L-0.000216,17.999856 L4.695624,16.768656 C5.989464,17.474256 7.446744,17.845776 8.929224,17.846496 L8.932824,17.846496 C13.815144,17.846496 17.788824,13.873536 17.790984,8.991216 C17.791704,6.624576 16.871544,4.399776 15.198984,2.725776" id="Fill-3" fill="#FEFEFE" mask="url(#mask-2)"></path>
                            </g>
                        </g>
                        <path d="M6.684768,5.871456 C6.519168,5.502816 6.344208,5.495616 6.186528,5.489136 C6.057648,5.483376 5.910048,5.484096 5.762448,5.484096 C5.614848,5.484096 5.375088,5.539536 5.172048,5.760576 C4.969728,5.982336 4.397328,6.518016 4.397328,7.606656 C4.397328,8.696016 5.190768,9.747936 5.301648,9.895536 C5.411808,10.043136 6.832368,12.349296 9.082368,13.237056 C10.952208,13.974336 11.332368,13.827456 11.738448,13.790736 C12.144528,13.753296 13.048128,13.255056 13.232448,12.738096 C13.416768,12.221856 13.416768,11.778336 13.361328,11.686176 C13.305888,11.594016 13.158288,11.538576 12.937248,11.427696 C12.716208,11.316816 11.627568,10.781856 11.424528,10.707696 C11.222208,10.634256 11.074608,10.596816 10.927008,10.818576 C10.779408,11.040336 10.355328,11.538576 10.225728,11.686176 C10.096848,11.833776 9.967968,11.852496 9.746208,11.741616 C9.525168,11.630736 8.812368,11.397456 7.966368,10.642896 C7.308288,10.056816 6.864048,9.331776 6.735168,9.110736 C6.606288,8.888976 6.721488,8.769456 6.832368,8.658576 C6.931728,8.559936 7.053408,8.400816 7.164288,8.271216 C7.275168,8.141616 7.311888,8.049456 7.385328,7.901856 C7.459488,7.754256 7.422768,7.625376 7.367328,7.514496 C7.311888,7.403616 6.881328,6.309216 6.684768,5.871456" id="Fill-6" fill="#FEFEFE"></path>
                    </g>
                </g>
            </g>
        </g>
    </g>
</svg>