<?xml version="1.0" encoding="UTF-8" standalone="no"?>
<svg width="27px" height="24px" viewBox="0 0 27 24" version="1.1" xmlns="http://www.w3.org/2000/svg" xmlns:xlink="http://www.w3.org/1999/xlink">
    <!-- Generator: Sketch 42 (36781) - http://www.bohemiancoding.com/sketch -->
    <title>international calls</title>
    <desc>Created with Sketch.</desc>
    <defs></defs>
    <g id="Page-1" stroke="none" stroke-width="1" fill="none" fill-rule="evenodd">
        <g id="international-calls" fill="#FFFFFF">
            <g id="Page-1">
                <g>
                    <g id="international-calls">
                        <g id="world-triad" transform="translate(7.500000, 0.000000)">
                            <path d="M9.26205856,2.84895603e-15 C4.14988338,2.84895603e-15 0,4.14988338 0,9.26205856 C0,14.3742338 4.14988338,18.5239167 9.26205856,18.5239167 C14.3742338,18.5239167 18.5241171,14.3742338 18.5241171,9.26205856 C18.5241171,4.14988338 14.3742338,0 9.26205856,0 L9.26205856,2.84895603e-15 L9.26205856,2.84895603e-15 Z M1.32315122,9.24201082 C1.32315122,6.57566062 2.64630245,4.21002663 4.67112479,2.78663667 C5.01193646,2.92697089 5.01193646,3.52840326 4.85155449,3.94940593 C4.5909338,4.69117252 3.58854651,5.35274814 3.82911945,6.25489669 C3.90931044,6.55561288 3.88926269,6.63580387 3.94940594,6.93652005 C3.96945368,7.05700701 3.96945368,7.13699751 4.06969241,7.2171885 C4.21002663,7.05680653 4.14988338,6.85632907 4.23007437,6.63580387 C4.57088606,6.79618584 4.97184096,8.03914608 4.99188872,8.42005324 C5.03198421,9.34224955 6.51551739,9.30195358 7.07685428,9.76325221 C7.31742723,9.96372967 7.4377137,10.3043409 7.71838215,10.4849711 C8.19952805,10.805735 9.12172436,10.7656395 8.35991001,11.5875971 C7.83866862,12.1689817 8.23962354,12.6701754 8.54033972,13.1914168 C8.72076944,13.5322284 8.74081718,13.6725627 9.08162886,13.8930879 C9.80334771,14.3742338 9.64296575,15.2162391 9.3622973,15.9580057 C9.28210632,16.1584831 9.16181985,16.3188651 9.1417721,16.5393903 C9.12172436,16.7196195 9.06158112,16.9804407 9.04153337,17.1809181 C4.7713635,17.0606317 1.32315122,13.5522762 1.32315122,9.24201082 L1.32315122,9.24201082 L1.32315122,9.24201082 Z M10.1241116,17.120775 C10.2844936,16.8804024 10.4047801,16.6398295 10.5651621,16.5193425 C11.2066899,16.0582444 11.908361,15.5372035 12.4296024,14.9357711 C12.6100321,14.7352937 12.8907006,14.6951982 13.1112258,14.5548639 C13.3117032,14.4546252 13.3718465,14.2541478 13.4919325,14.0739185 C13.5921712,13.9133361 13.7325054,13.7732023 13.8128969,13.6126199 L14.1537085,12.8710538 C14.2539473,12.7104713 14.4143292,12.4901466 14.4341765,12.2896691 C14.4341765,11.9488575 14.1936036,11.8085232 13.8928874,11.7884755 C13.5921712,11.7684277 13.0308343,11.8887142 12.7702136,11.74838 C12.3893064,11.5479025 12.6098316,10.8863269 12.0685425,10.806136 C11.948256,10.7860882 11.8079218,10.8263842 11.6675876,10.7860882 C11.2666327,10.7058972 11.086203,10.2247513 10.7453913,10.1445603 C10.0637679,9.94408288 9.08142838,9.90398739 8.7005212,10.5657635 C8.4000055,10.2243504 8.15943255,10.5451143 7.87876411,10.3446368 C7.59809566,10.1441594 7.93890735,9.78329997 7.77852538,9.54272701 C7.47780919,9.08162886 6.67589935,9.40239279 7.33747497,8.56058794 C6.91647231,8.29976677 6.89642457,8.72096991 6.65585161,8.92144737 C6.45537415,9.1016766 6.09451473,8.74101766 6.01432375,8.60048296 C5.85394177,8.31981451 5.9541805,7.73842989 6.13461022,7.47780919 C6.29499219,7.25728399 7.47780919,7.13699751 7.71838215,7.25728399 C8.01909832,7.39741773 7.99905058,7.77852538 8.13938481,8.01909832 C8.440101,7.75847763 8.05919382,7.49765646 8.13938481,7.19694027 C8.21957578,6.87637681 8.58043521,6.71599485 8.76086493,6.45537415 C8.96134239,6.17470572 9.04153336,5.81384629 9.28210632,5.5532256 C9.58282251,5.23246165 10.0238729,5.43293911 10.2445986,5.17231842 C10.2646463,5.15227068 10.0441211,4.87160223 10.0641689,4.7713635 C10.1042644,4.5107428 10.525267,4.53079056 10.6255058,4.27016986 C10.4452765,4.14988338 10.2846941,3.96945367 10.1042644,3.82911945 C9.78329997,3.60859425 9.60307072,3.72888072 9.32240229,3.60859425 L9.3426505,3.36802129 C9.18226854,3.28783032 8.96174334,3.22768708 8.80136137,3.26778256 C8.60088391,3.38806905 8.76126588,4.21002663 8.50064518,4.43055183 C8.44050195,4.41050407 8.40040645,4.39045633 8.36031096,4.3303131 C8.24002449,4.18997887 8.34026322,4.02959691 8.17988125,3.88926268 C8.05959477,3.78902395 7.73883084,3.74892847 7.57844887,3.74892847 C7.37797141,3.72888072 7.75887859,3.20763933 7.79897407,3.16754383 L8.50064518,2.70644568 L8.1598335,2.64630244 L7.97940379,2.60620696 C7.47780919,2.6663502 6.29499219,2.46587274 6.31503993,1.86444036 C7.23723624,1.50358093 8.21957578,1.28305573 9.26205856,1.28305573 C9.72315672,1.28305573 10.1642071,1.32315122 10.6052575,1.40334221 L10.5050188,1.46348545 L10.966117,1.54367643 L10.725544,1.46348545 C11.7680268,1.6639629 12.7303186,2.04487008 13.5923717,2.60620696 C13.8730401,2.90692314 14.1138135,3.24773482 14.3341383,3.60859425 C14.5548639,4.00954917 14.6551027,4.65107703 14.9756661,4.95179322 C15.2362869,5.19236617 15.3565732,5.19236617 15.4167165,5.09212744 C15.5169552,4.87160223 15.2362869,4.3303131 15.2162391,4.08974014 L15.3164778,4.08974014 C15.537003,4.3303131 15.7174327,4.61098153 15.8976619,4.87160223 C15.8577669,5.01193645 15.6370413,5.41289137 15.617194,5.5131301 C15.5770984,5.79379854 15.7174327,6.19475346 15.7174327,6.49526917 C15.7174327,6.71599485 15.6971845,6.9565678 15.7174327,7.17689253 C15.7374804,7.41746548 15.7575282,7.59789519 15.8377192,7.81842039 L16.0983399,8.88095092 C16.2988173,9.40219231 16.5995335,9.88333821 17.1209754,9.52247878 L17.1811186,9.34204908 C17.120775,13.3918942 14.0534698,16.6997722 10.1241116,17.120775 L10.1241116,17.120775 L10.1241116,17.120775 Z M8.48019648,2.04487008 C8.440101,1.96467909 8.440101,1.90453585 8.46014874,1.84439262 C8.46014874,1.82434486 8.46014874,1.82434486 8.48019648,1.82434486 C8.52029197,1.74415389 8.6205307,1.72410613 8.76086493,1.78424938 C8.72076943,1.78424938 8.52029197,2.12506105 8.48019648,2.04487008 L8.48019648,2.04487008 L8.48019648,2.04487008 Z M9.48258378,2.8868754 C9.54292749,3.04725736 9.56277475,3.22768708 9.46253602,3.16754383 C9.26205856,3.04725736 9.12172435,2.8868754 8.94129463,2.70644568 C8.82100816,2.58615921 8.60048296,2.52601597 8.440101,2.46587274 C8.60048296,2.28544302 9.22196308,2.46587274 9.36229729,2.6262547 C9.40239279,2.64630244 9.44248828,2.76658893 9.48258378,2.8868754 L9.48258378,2.8868754 L9.48258378,2.8868754 Z M11.2668331,2.34558625 C11.3069286,2.36563401 11.0663557,3.22768708 10.805735,3.22768708 C10.5651621,3.20763933 10.2844936,2.72649343 10.1842549,2.54606371 C10.0639684,2.36563401 9.86349094,2.26539528 9.66301348,2.16515655 C9.44248828,2.06491782 9.04153336,2.10501331 9.22196308,1.84439262 C9.24201082,1.80429712 9.28210632,1.76420163 9.32220181,1.70405839 C9.52267927,1.50358093 10.0238729,1.54367643 10.2644459,1.60381966 C10.6854485,1.70405839 10.9260215,2.14510881 11.2668331,2.34558625 L11.2668331,2.34558625 L11.2668331,2.34558625 Z" id="Shape"></path>
                        </g>
                        <path d="M5.71941414,18.2925251 C7.05699099,19.6266933 8.60521183,20.9012023 9.21302815,20.2857963 C10.0833139,19.4049217 10.6189987,18.6385262 12.5501956,20.1860877 C14.4813925,21.7344075 13.0064891,22.7763834 12.1635896,23.6299565 C11.190911,24.6147289 7.54775091,23.6989689 3.93661327,20.0979351 C0.325691289,16.4961792 -0.613491296,12.8426007 0.359906115,11.8573588 C1.20305717,11.0037497 2.22899877,9.51436664 3.78332941,11.4435731 C5.3384148,13.3718044 4.57979449,13.9159591 3.70950877,14.7970865 C3.10197999,15.4122397 4.38162165,16.9581039 5.71941414,18.2925251 L5.71941414,18.2925251 L5.71941414,18.2925251 Z" id="Path"></path>
                    </g>
                </g>
            </g>
        </g>
    </g>
</svg>