<svg xmlns="http://www.w3.org/2000/svg" xmlns:xlink="http://www.w3.org/1999/xlink" version="1.1" id="Layer_1" x="0px" y="0px" width="184.9px" height="57.4px" viewBox="0 0 184.9 57.4" enable-background="new 0 0 184.9 57.4" xml:space="preserve">
<g>
	<g opacity="0.18">
		<path fill="#010101" d="M7.3 30v-9.7h5.1c0 0 2.3-0.2 1.9-4.3H7.1v-5c0 0-3.2-0.4-4.7 3.5v16.3c0 0 0.2 1.8 1.3 3.3 c0.9 1.5 2.7 2.7 5.2 2.7c5.1 0.2 6-2.4 5.5-5.2C14.3 31.6 8.6 34.7 7.3 30z"/>
		<path fill="#010101" d="M59.9 8.2c0.2 0 0.4 0 0.6 0c6.8 0.4 8.8 4.6 8.8 4.6V9.3c0 0-2.4-5.1-8.7-5c-0.2 0-0.4 0-0.6 0 c-5.8 0.3-7.8 3.3-8.8 5.2v2.8C51.2 12.4 53.6 8.1 59.9 8.2z"/>
		<path fill="#010101" d="M24.3 32.3c-1.2-0.8-1.2-2.1-1.2-2.1V18.5c0 0-0.8-2.8-4.9-2.7v15.6c0 0 0.4 5 4.2 5.2 c3.7 0.2 4.9-1.5 5-4.2C27.3 32.5 25.5 33.1 24.3 32.3z"/>
		<path fill="#010101" d="M20.7 14.1c0.2 0 0.3 0 0.4 0c1.1-0.1 2.8-1 2.6-3.6c-0.2-1.5-1.1-2.2-2.4-2.4c-0.2 0-0.4 0-0.6 0 c-1.5 0.1-3.1 1.1-3.1 2.9C17.6 13.5 19.6 14 20.7 14.1z"/>
		<path fill="#010101" d="M44 37.3c0 0 3.6-1.5 3.6-4.1c0.1-2.7 0.4-6.5-1.9-6.5c-2.3-0.1-3 0-3 0s0.6 4.4 0.4 4.9 c-0.2 0.6-1.5 2.2-5.3 1c-3.8-1.1-4.3-5.9-3.4-9c0.9-3 4.7-4.3 7.2-4.1c2.4 0.2 5.2 1.9 5.2 1.9s0.5 0.2 0.6-0.3 c0.1-0.6 0.5-4.2-3.8-5.4c-5.1-1.3-11 0.5-13.1 4.8c-0.7 1.5-1.5 3.6-1.6 5.8c-0.2 3.9 1.3 8.2 5.5 10.3 C34.3 36.6 39.2 38.9 44 37.3z"/>
		<path fill="#010101" d="M69.6 24c-0.3-2.4-2.7-8.6-9.7-8.8c0 0-0.1 0-0.2 0c-4.1 0-6.6 2.2-8.2 4.8C50.5 22 50 24 50 25.6 c0 0-0.3 4.9 2.8 8.2c1.5 1.5 3.6 2.9 6.9 3c0.1 0 0.2 0 0.2 0c3 0 5.1-1.1 6.5-2.4C69.9 31.2 69.9 25.7 69.6 24z M60.8 32.5 c-0.2 0-0.5 0.1-0.8 0.1c-0.1 0-0.2 0-0.4 0c-1.8-0.3-4.5-1.7-4.6-6.4c0-3.4 1.4-5.3 2.7-6.1c1.1-0.7 2.1-0.6 2.1-0.6 c0 0 0.1 0 0.1 0c2.1 0 4.7 1.4 4.9 6.4C65.2 31 61.8 32.4 60.8 32.5z"/>
		<path fill="#010101" d="M59.9 43.5c-2.3 2.3-6.4 5.1-12.5 4.7C37.2 47.6 34.3 41 34.3 41s-0.4 8.3 4.7 10.6c0 0 0.9 0.6 2.3 1 c1.6 0.5 4 0.9 6.6 0.9c4.5 0 9.6-1.2 12-4.4c0.3-0.3 0.5-0.7 0.7-1c2-3.9 1.5-7.3 1.5-7.3S61.4 42.1 59.9 43.5z"/>
		<path fill="#010101" d="M75 19c0-0.8 0.1-1.5 0.3-1.9c0.2-0.5 0.5-1 1-1.6c0.7-0.8 1.4-1.2 2-1.2h1v4h6.1v1.8c0 0.5-0.2 1-0.7 1.4 c-0.5 0.4-1.1 0.6-1.9 0.6h-3.5V29c0 2.1 0.9 3.1 2.8 3.1c1.4 0 2.5-0.2 3.1-0.6h0.2v1.6c0 0.9-0.3 1.6-1 2.1 c-0.7 0.5-1.6 0.8-2.8 0.8c-2.2 0-3.8-0.6-4.9-1.7c-1.1-1.1-1.7-2.7-1.7-4.8V19z"/>
		<path fill="#010101" d="M96.9 22.5h-0.2c-0.9-0.3-1.7-0.5-2.5-0.5c-2 0-3 1.2-3 3.7v10.1H90c-1 0-1.8-0.2-2.3-0.7 c-0.6-0.5-0.8-1.2-0.8-2.1v-8c0-1.9 0.5-3.5 1.6-4.9c1.1-1.3 2.7-2 4.8-2c1.2 0 2.1 0.3 2.7 0.8c0.6 0.6 0.9 1.2 0.9 2V22.5z"/>
		<path fill="#010101" d="M111.8 29.8c0 1.8-0.6 3.3-1.8 4.5c-1.2 1.2-2.8 1.8-4.8 1.8h-0.9c-2.1 0-3.7-0.5-5-1.6c-1.3-1-2-2.4-2-4 c0-1.7 0.7-3 2.1-4c1.4-1 3.6-1.5 6.6-1.5h1.5v-0.2c0-1.2-0.3-2-0.9-2.5c-0.6-0.5-1.5-0.7-2.9-0.7c-1.4 0-2.6 0.2-3.5 0.6 c-0.9 0.4-1.6 0.9-2 1.4h-0.2v-1.4c0-1.1 0.5-2.1 1.6-3c1.1-0.9 2.6-1.3 4.8-1.3c1 0 2 0.1 2.8 0.4c0.8 0.3 1.6 0.7 2.3 1.2 c0.7 0.6 1.3 1.4 1.7 2.4c0.4 1.1 0.6 2.3 0.6 3.8V29.8z M107.6 29.9v-1.7H106c-1.6 0-2.7 0.2-3.3 0.5c-0.6 0.4-0.9 0.9-0.9 1.7 c0 0.7 0.3 1.2 0.8 1.6c0.5 0.4 1.3 0.6 2.2 0.6C106.7 32.6 107.6 31.7 107.6 29.9z"/>
		<path fill="#010101" d="M118.3 12.7c0.5 0.5 0.8 1.1 0.8 1.8c0 0.7-0.3 1.3-0.8 1.8c-0.5 0.5-1.1 0.8-1.8 0.8s-1.3-0.3-1.8-0.8 c-0.5-0.5-0.7-1.1-0.7-1.8c0-0.7 0.2-1.3 0.7-1.8c0.5-0.5 1.1-0.7 1.8-0.7S117.8 12.2 118.3 12.7z M122.2 33.3 c0 0.9-0.2 1.6-0.6 2c-0.4 0.4-1.1 0.6-2 0.6c-1.7 0-3-0.5-3.9-1.4c-0.9-0.9-1.3-2.3-1.3-4.1V18.7h1.2c2.1 0 3.1 1.1 3.1 3.2v8.2 c0 0.9 0.2 1.5 0.6 1.8c0.4 0.3 1.1 0.5 2.1 0.5h0.8V33.3z"/>
		<path fill="#010101" d="M138.7 35.8h-1.2c-1 0-1.7-0.3-2.3-0.8c-0.6-0.5-0.9-1.2-0.9-2V26c0-2.8-1.2-4.2-3.5-4.2 c-1 0-1.7 0.3-2.3 1c-0.6 0.7-0.9 1.7-0.9 2.9v10.1h-1.3c-0.9 0-1.6-0.3-2.2-0.8c-0.6-0.5-0.8-1.2-0.8-2v-7.6c0-2 0.7-3.8 2-5.3 c1.4-1.5 3.3-2.2 5.9-2.2c2.1 0 3.9 0.7 5.4 2.1c1.4 1.4 2.2 3.3 2.2 5.7V35.8z"/>
		<path fill="#010101" d="M156.3 24.7c0 1.6-0.6 2.7-1.9 3.3c-1.3 0.6-3.4 0.9-6.3 0.9h-2.9c0.2 1.1 0.7 2 1.6 2.6 c0.9 0.7 2 1 3.3 1c2.4 0 4.2-0.6 5.3-1.7h0.2v1.4c0 2.6-2.1 4-6.3 4c-2.3 0-4.3-0.8-6-2.5c-1.7-1.6-2.6-3.7-2.6-6.3 c0-2.9 0.8-5.2 2.4-6.9c1.6-1.7 3.6-2.6 6.2-2.6c1.9 0 3.5 0.6 4.9 1.9C155.6 21 156.3 22.7 156.3 24.7z M152.2 24.2 c0-0.9-0.3-1.5-0.9-2c-0.6-0.4-1.4-0.7-2.4-0.7c-1 0-1.9 0.4-2.6 1.1c-0.7 0.7-1 1.6-1.1 2.6l0 0.6h1.9c2 0 3.4-0.1 4-0.4 C151.9 25.2 152.2 24.8 152.2 24.2z"/>
		<path fill="#010101" d="M168.4 22.5h-0.2c-0.9-0.3-1.7-0.5-2.5-0.5c-2 0-3 1.2-3 3.7v10.1h-1.2c-1 0-1.8-0.2-2.3-0.7 c-0.6-0.5-0.8-1.2-0.8-2.1v-8c0-1.9 0.5-3.5 1.6-4.9c1.1-1.3 2.7-2 4.8-2c1.2 0 2.1 0.3 2.7 0.8c0.6 0.6 0.9 1.2 0.9 2V22.5z"/>
		<path fill="#010101" d="M182.6 30.3c0 1.9-0.6 3.3-1.9 4.3c-1.3 1-3.1 1.6-5.4 1.6c-1.6 0-2.9-0.3-4-1c-1.1-0.7-1.6-1.5-1.6-2.4 v-2h0.2c0.5 0.5 1.2 0.8 2.2 1.2c1 0.3 2 0.5 3 0.5c2.1 0 3.2-0.6 3.2-1.9c0-0.5-0.2-0.9-0.7-1.2c-0.5-0.3-1.5-0.5-2.9-0.7 c-1.9-0.3-3.2-0.8-4.1-1.5c-0.9-0.8-1.3-1.8-1.3-3.1c0-1.7 0.7-3.1 2.1-4.3c1.4-1.2 3.2-1.8 5.3-1.8c1.8 0 3.2 0.4 4.1 1.1 c1 0.8 1.4 1.6 1.4 2.6v1.7H182c-0.5-0.5-1.1-0.9-2.1-1.2c-0.9-0.3-1.9-0.5-2.9-0.5c-2.3 0-3.5 0.6-3.5 1.9c0 0.5 0.2 0.8 0.7 1 c0.4 0.2 1.4 0.5 2.8 0.7C180.7 25.9 182.6 27.6 182.6 30.3z"/>
	</g>
	<g>
		<g>
			<linearGradient id="SVGID_1_" gradientUnits="userSpaceOnUse" x1="8.4" y1="36.3" x2="8.4" y2="10.5">
				<stop offset="0" style="stop-color:#E8E8E8"/>
				<stop offset="1" style="stop-color:#FFFFFF"/>
			</linearGradient>
			<path fill="url(#SVGID_1_)" d="M7.3 29.5v-9.7h5.1c0 0 2.3-0.2 1.9-4.3H7.1v-5c0 0-3.2-0.4-4.7 3.5v16.3c0 0 0.2 1.8 1.3 3.3 c0.9 1.5 2.7 2.7 5.2 2.7c5.1 0.2 6-2.4 5.5-5.2C14.3 31.1 8.6 34.2 7.3 29.5z"/>
		</g>
		<g>
			<linearGradient id="SVGID_2_" gradientUnits="userSpaceOnUse" x1="60.2" y1="12.3" x2="60.2" y2="3.8">
				<stop offset="0" style="stop-color:#E8E8E8"/>
				<stop offset="1" style="stop-color:#FFFFFF"/>
			</linearGradient>
			<path fill="url(#SVGID_2_)" d="M59.9 7.7c0.2 0 0.4 0 0.6 0c6.8 0.4 8.8 4.6 8.8 4.6V8.8c0 0-2.4-5.1-8.7-5c-0.2 0-0.4 0-0.6 0 c-5.8 0.3-7.8 3.3-8.8 5.2v2.8C51.2 11.9 53.6 7.6 59.9 7.7z"/>
		</g>
		<g>
			<linearGradient id="SVGID_3_" gradientUnits="userSpaceOnUse" x1="22.8" y1="36.2" x2="22.8" y2="15.4">
				<stop offset="0" style="stop-color:#E8E8E8"/>
				<stop offset="1" style="stop-color:#FFFFFF"/>
			</linearGradient>
			<path fill="url(#SVGID_3_)" d="M24.3 31.8c-1.2-0.8-1.2-2.1-1.2-2.1V18c0 0-0.8-2.8-4.9-2.7v15.6c0 0 0.4 5 4.2 5.2 c3.7 0.2 4.9-1.5 5-4.2C27.3 32 25.5 32.6 24.3 31.8z"/>
		</g>
		<g>
			<linearGradient id="SVGID_4_" gradientUnits="userSpaceOnUse" x1="20.7" y1="13.6" x2="20.7" y2="7.5">
				<stop offset="0" style="stop-color:#E8E8E8"/>
				<stop offset="1" style="stop-color:#FFFFFF"/>
			</linearGradient>
			<path fill="url(#SVGID_4_)" d="M20.7 13.6c0.2 0 0.3 0 0.4 0c1.1-0.1 2.8-1 2.6-3.6c-0.2-1.5-1.1-2.2-2.4-2.4c-0.2 0-0.4 0-0.6 0 c-1.5 0.1-3.1 1.1-3.1 2.9C17.6 13 19.6 13.5 20.7 13.6z"/>
		</g>
		<g>
			<linearGradient id="SVGID_5_" gradientUnits="userSpaceOnUse" x1="38.3" y1="37.4" x2="38.3" y2="14.7">
				<stop offset="0" style="stop-color:#E8E8E8"/>
				<stop offset="1" style="stop-color:#FFFFFF"/>
			</linearGradient>
			<path fill="url(#SVGID_5_)" d="M44 36.8c0 0 3.6-1.5 3.6-4.1c0.1-2.7 0.4-6.5-1.9-6.5c-2.3-0.1-3 0-3 0s0.6 4.4 0.4 4.9 c-0.2 0.6-1.5 2.2-5.3 1c-3.8-1.1-4.3-5.9-3.4-9c0.9-3 4.7-4.3 7.2-4.1c2.4 0.2 5.2 1.9 5.2 1.9s0.5 0.2 0.6-0.3 c0.1-0.6 0.5-4.2-3.8-5.4c-5.1-1.3-11 0.5-13.1 4.8c-0.7 1.5-1.5 3.6-1.6 5.8c-0.2 3.9 1.3 8.2 5.5 10.3 C34.3 36.1 39.2 38.4 44 36.8z"/>
		</g>
		<g>
			<linearGradient id="SVGID_6_" gradientUnits="userSpaceOnUse" x1="59.9" y1="36.3" x2="59.9" y2="14.7">
				<stop offset="0" style="stop-color:#E8E8E8"/>
				<stop offset="1" style="stop-color:#FFFFFF"/>
			</linearGradient>
			<path fill="url(#SVGID_6_)" d="M69.6 23.5c-0.3-2.4-2.7-8.6-9.7-8.8c0 0-0.1 0-0.2 0c-4.1 0-6.6 2.2-8.2 4.8 c-1.1 1.9-1.6 4-1.6 5.6c0 0-0.3 4.9 2.8 8.2c1.5 1.5 3.6 2.9 6.9 3c0.1 0 0.2 0 0.2 0c3 0 5.1-1.1 6.5-2.4 C69.9 30.7 69.9 25.2 69.6 23.5z M60.8 32c-0.2 0-0.5 0.1-0.8 0.1c-0.1 0-0.2 0-0.4 0c-1.8-0.3-4.5-1.7-4.6-6.4 c0-3.4 1.4-5.3 2.7-6.1c1.1-0.7 2.1-0.6 2.1-0.6c0 0 0.1 0 0.1 0c2.1 0 4.7 1.4 4.9 6.4C65.2 30.5 61.8 31.9 60.8 32z"/>
		</g>
		<g>
			<linearGradient id="SVGID_7_" gradientUnits="userSpaceOnUse" x1="48.2" y1="53.1" x2="48.2" y2="40.4">
				<stop offset="0" style="stop-color:#E8E8E8"/>
				<stop offset="1" style="stop-color:#FFFFFF"/>
			</linearGradient>
			<path fill="url(#SVGID_7_)" d="M59.9 43c-2.3 2.3-6.4 5.1-12.5 4.7c-10.2-0.6-13.1-7.3-13.1-7.3s-0.4 8.3 4.7 10.6 c0 0 0.9 0.6 2.3 1c1.6 0.5 4 0.9 6.6 0.9c4.5 0 9.6-1.2 12-4.4c0.3-0.3 0.5-0.7 0.7-1c2-3.9 1.5-7.3 1.5-7.3S61.4 41.6 59.9 43z "/>
		</g>
		<g>
			<linearGradient id="SVGID_8_" gradientUnits="userSpaceOnUse" x1="80.2" y1="35.5" x2="80.2" y2="13.8">
				<stop offset="0" style="stop-color:#E8E8E8"/>
				<stop offset="1" style="stop-color:#FFFFFF"/>
			</linearGradient>
			<path fill="url(#SVGID_8_)" d="M75 18.5c0-0.8 0.1-1.5 0.3-1.9c0.2-0.5 0.5-1 1-1.6c0.7-0.8 1.4-1.2 2-1.2h1v4h6.1v1.8 c0 0.5-0.2 1-0.7 1.4c-0.5 0.4-1.1 0.6-1.9 0.6h-3.5v6.8c0 2.1 0.9 3.1 2.8 3.1c1.4 0 2.5-0.2 3.1-0.6h0.2v1.6 c0 0.9-0.3 1.6-1 2.1c-0.7 0.5-1.6 0.8-2.8 0.8c-2.2 0-3.8-0.6-4.9-1.7C75.5 32.7 75 31.1 75 29V18.5z"/>
		</g>
		<g>
			<linearGradient id="SVGID_9_" gradientUnits="userSpaceOnUse" x1="91.9" y1="35.3" x2="91.9" y2="17.6">
				<stop offset="0" style="stop-color:#E8E8E8"/>
				<stop offset="1" style="stop-color:#FFFFFF"/>
			</linearGradient>
			<path fill="url(#SVGID_9_)" d="M96.9 22h-0.2c-0.9-0.3-1.7-0.5-2.5-0.5c-2 0-3 1.2-3 3.7v10.1H90c-1 0-1.8-0.2-2.3-0.7 c-0.6-0.5-0.8-1.2-0.8-2.1v-8c0-1.9 0.5-3.5 1.6-4.9c1.1-1.3 2.7-2 4.8-2c1.2 0 2.1 0.3 2.7 0.8c0.6 0.6 0.9 1.2 0.9 2V22z"/>
		</g>
		<g>
			<linearGradient id="SVGID_10_" gradientUnits="userSpaceOnUse" x1="104.6" y1="35.6" x2="104.6" y2="17.5">
				<stop offset="0" style="stop-color:#E8E8E8"/>
				<stop offset="1" style="stop-color:#FFFFFF"/>
			</linearGradient>
			<path fill="url(#SVGID_10_)" d="M111.8 29.3c0 1.8-0.6 3.3-1.8 4.5c-1.2 1.2-2.8 1.8-4.8 1.8h-0.9c-2.1 0-3.7-0.5-5-1.6 c-1.3-1-2-2.4-2-4c0-1.7 0.7-3 2.1-4c1.4-1 3.6-1.5 6.6-1.5h1.5v-0.2c0-1.2-0.3-2-0.9-2.5c-0.6-0.5-1.5-0.7-2.9-0.7 c-1.4 0-2.6 0.2-3.5 0.6c-0.9 0.4-1.6 0.9-2 1.4h-0.2v-1.4c0-1.1 0.5-2.1 1.6-3c1.1-0.9 2.6-1.3 4.8-1.3c1 0 2 0.1 2.8 0.4 c0.8 0.3 1.6 0.7 2.3 1.2c0.7 0.6 1.3 1.4 1.7 2.4c0.4 1.1 0.6 2.3 0.6 3.8V29.3z M107.6 29.4v-1.7H106c-1.6 0-2.7 0.2-3.3 0.5 c-0.6 0.4-0.9 0.9-0.9 1.7c0 0.7 0.3 1.2 0.8 1.6c0.5 0.4 1.3 0.6 2.2 0.6C106.7 32.1 107.6 31.2 107.6 29.4z"/>
		</g>
		<g>
			<linearGradient id="SVGID_11_" gradientUnits="userSpaceOnUse" x1="118.1" y1="35.5" x2="118.1" y2="11.5">
				<stop offset="0" style="stop-color:#E8E8E8"/>
				<stop offset="1" style="stop-color:#FFFFFF"/>
			</linearGradient>
			<path fill="url(#SVGID_11_)" d="M118.3 12.2c0.5 0.5 0.8 1.1 0.8 1.8c0 0.7-0.3 1.3-0.8 1.8c-0.5 0.5-1.1 0.8-1.8 0.8 s-1.3-0.3-1.8-0.8c-0.5-0.5-0.7-1.1-0.7-1.8c0-0.7 0.2-1.3 0.7-1.8c0.5-0.5 1.1-0.7 1.8-0.7S117.8 11.7 118.3 12.2z M122.2 32.8 c0 0.9-0.2 1.6-0.6 2c-0.4 0.4-1.1 0.6-2 0.6c-1.7 0-3-0.5-3.9-1.4c-0.9-0.9-1.3-2.3-1.3-4.1V18.2h1.2c2.1 0 3.1 1.1 3.1 3.2v8.2 c0 0.9 0.2 1.5 0.6 1.8c0.4 0.3 1.1 0.5 2.1 0.5h0.8V32.8z"/>
		</g>
		<g>
			<linearGradient id="SVGID_12_" gradientUnits="userSpaceOnUse" x1="131" y1="35.3" x2="131" y2="17.4">
				<stop offset="0" style="stop-color:#E8E8E8"/>
				<stop offset="1" style="stop-color:#FFFFFF"/>
			</linearGradient>
			<path fill="url(#SVGID_12_)" d="M138.7 35.3h-1.2c-1 0-1.7-0.3-2.3-0.8c-0.6-0.5-0.9-1.2-0.9-2v-6.9c0-2.8-1.2-4.2-3.5-4.2 c-1 0-1.7 0.3-2.3 1c-0.6 0.7-0.9 1.7-0.9 2.9v10.1h-1.3c-0.9 0-1.6-0.3-2.2-0.8c-0.6-0.5-0.8-1.2-0.8-2v-7.6c0-2 0.7-3.8 2-5.3 c1.4-1.5 3.3-2.2 5.9-2.2c2.1 0 3.9 0.7 5.4 2.1c1.4 1.4 2.2 3.3 2.2 5.7V35.3z"/>
		</g>
		<g>
			<linearGradient id="SVGID_13_" gradientUnits="userSpaceOnUse" x1="148.5" y1="35.7" x2="148.5" y2="17.4">
				<stop offset="0" style="stop-color:#E8E8E8"/>
				<stop offset="1" style="stop-color:#FFFFFF"/>
			</linearGradient>
			<path fill="url(#SVGID_13_)" d="M156.3 24.2c0 1.6-0.6 2.7-1.9 3.3c-1.3 0.6-3.4 0.9-6.3 0.9h-2.9c0.2 1.1 0.7 2 1.6 2.6 c0.9 0.7 2 1 3.3 1c2.4 0 4.2-0.6 5.3-1.7h0.2v1.4c0 2.6-2.1 4-6.3 4c-2.3 0-4.3-0.8-6-2.5c-1.7-1.6-2.6-3.7-2.6-6.3 c0-2.9 0.8-5.2 2.4-6.9c1.6-1.7 3.6-2.6 6.2-2.6c1.9 0 3.5 0.6 4.9 1.9C155.6 20.5 156.3 22.2 156.3 24.2z M152.2 23.7 c0-0.9-0.3-1.5-0.9-2c-0.6-0.4-1.4-0.7-2.4-0.7c-1 0-1.9 0.4-2.6 1.1c-0.7 0.7-1 1.6-1.1 2.6l0 0.6h1.9c2 0 3.4-0.1 4-0.4 C151.9 24.7 152.2 24.3 152.2 23.7z"/>
		</g>
		<g>
			<linearGradient id="SVGID_14_" gradientUnits="userSpaceOnUse" x1="163.4" y1="35.3" x2="163.4" y2="17.6">
				<stop offset="0" style="stop-color:#E8E8E8"/>
				<stop offset="1" style="stop-color:#FFFFFF"/>
			</linearGradient>
			<path fill="url(#SVGID_14_)" d="M168.4 22h-0.2c-0.9-0.3-1.7-0.5-2.5-0.5c-2 0-3 1.2-3 3.7v10.1h-1.2c-1 0-1.8-0.2-2.3-0.7 c-0.6-0.5-0.8-1.2-0.8-2.1v-8c0-1.9 0.5-3.5 1.6-4.9c1.1-1.3 2.7-2 4.8-2c1.2 0 2.1 0.3 2.7 0.8c0.6 0.6 0.9 1.2 0.9 2V22z"/>
		</g>
		<g>
			<linearGradient id="SVGID_15_" gradientUnits="userSpaceOnUse" x1="175.9" y1="35.7" x2="175.9" y2="17.4">
				<stop offset="0" style="stop-color:#E8E8E8"/>
				<stop offset="1" style="stop-color:#FFFFFF"/>
			</linearGradient>
			<path fill="url(#SVGID_15_)" d="M182.6 29.8c0 1.9-0.6 3.3-1.9 4.3c-1.3 1-3.1 1.6-5.4 1.6c-1.6 0-2.9-0.3-4-1 c-1.1-0.7-1.6-1.5-1.6-2.4v-2h0.2c0.5 0.5 1.2 0.8 2.2 1.2c1 0.3 2 0.5 3 0.5c2.1 0 3.2-0.6 3.2-1.9c0-0.5-0.2-0.9-0.7-1.2 c-0.5-0.3-1.5-0.5-2.9-0.7c-1.9-0.3-3.2-0.8-4.1-1.5c-0.9-0.8-1.3-1.8-1.3-3.1c0-1.7 0.7-3.1 2.1-4.3c1.4-1.2 3.2-1.8 5.3-1.8 c1.8 0 3.2 0.4 4.1 1.1c1 0.8 1.4 1.6 1.4 2.6v1.7H182c-0.5-0.5-1.1-0.9-2.1-1.2c-0.9-0.3-1.9-0.5-2.9-0.5 c-2.3 0-3.5 0.6-3.5 1.9c0 0.5 0.2 0.8 0.7 1c0.4 0.2 1.4 0.5 2.8 0.7C180.7 25.4 182.6 27.1 182.6 29.8z"/>
		</g>
	</g>
</g>
</svg>
