<?xml version="1.0" encoding="utf-8"?>
<!-- Generator: Adobe Illustrator 19.1.0, SVG Export Plug-In . SVG Version: 6.00 Build 0)  -->
<svg version="1.1" id="Layer_1" xmlns="http://www.w3.org/2000/svg" xmlns:xlink="http://www.w3.org/1999/xlink" x="0px" y="0px"
	 viewBox="-49 141 189 450" style="enable-background:new -49 141 189 450;" xml:space="preserve">
<style type="text/css">
	.st0{fill:#1CDC14;}
	.st1{fill:#FF0000;}
</style>
<path class="st0" d="M122.3,226.9L122.3,226.9c-4-35.8-32.4-64.3-68.2-68.2V141H36.9v17.7c-35.8,4-64.3,32.4-68.2,68.2H-49v17.2
	h17.7c4,35.8,32.4,64.3,68.2,68.2V330h17.2v-17.7c35.8-4,64.3-32.4,68.2-68.2H140v-17.2H122.3z M45.5,295.6
	c-33.2,0-60.1-26.9-60.1-60.1c0-33.2,26.9-60.1,60.1-60.1c33.2,0,60.1,26.9,60.1,60.1C105.6,268.7,78.7,295.6,45.5,295.6z"/>
<path class="st0" d="M45.5,186C18.2,186-4,208.2-4,235.5S18.2,285,45.5,285S95,262.8,95,235.5S72.8,186,45.5,186z"/>
<path class="st1" d="M122.3,487.9L122.3,487.9c-4-35.8-32.4-64.3-68.2-68.2V402H36.9v17.7c-35.8,4-64.3,32.4-68.2,68.2H-49V505h17.7
	c4,35.8,32.4,64.3,68.2,68.2V591h17.2v-17.7c35.8-4,64.3-32.4,68.2-68.2H140v-17.2H122.3z M45.5,556.6c-33.2,0-60.1-26.9-60.1-60.1
	c0-33.2,26.9-60.1,60.1-60.1c33.2,0,60.1,26.9,60.1,60.1C105.6,529.7,78.7,556.6,45.5,556.6z"/>
<path class="st1" d="M45.5,447C18.2,447-4,469.1-4,496.5s22.1,49.5,49.5,49.5S95,523.8,95,496.5S72.8,447,45.5,447z"/>
</svg>
