<?xml version="1.0" encoding="utf-8"?>
<!-- Generator: Adobe Illustrator 19.1.0, SVG Export Plug-In . SVG Version: 6.00 Build 0)  -->
<svg version="1.1" id="Layer_1" xmlns="http://www.w3.org/2000/svg" xmlns:xlink="http://www.w3.org/1999/xlink" x="0px" y="0px"
	 viewBox="0 0 171 674" style="enable-background:new 0 0 171 674;" xml:space="preserve">
<style type="text/css">
	.st0{fill:#47C7F4;stroke:#47C7F4;stroke-width:14;stroke-miterlimit:10;}
	.st1{fill:none;stroke:#FFFFFF;stroke-width:16;stroke-linecap:round;stroke-linejoin:round;stroke-miterlimit:10;}
	.st2{fill:#FFFFFF;}
	.st3{fill:#DBDADA;}
</style>
<path class="st0" d="M139.5,156.8H31.2c-4.4,0-8-3.6-8-8V40.5c0-4.4,3.6-8,8-8h108.3c4.4,0,8,3.6,8,8v108.3
	C147.5,153.2,143.9,156.8,139.5,156.8z"/>
<polyline class="st1" points="64.5,96.3 80.7,118 113.5,71.2 "/>
<g>
	<path class="st2" d="M31.2,324.4c-6.3,0-11.5-5.2-11.5-11.5V204.6c0-6.3,5.2-11.5,11.5-11.5h108.3c6.3,0,11.5,5.2,11.5,11.5v108.3
		c0,6.3-5.2,11.5-11.5,11.5H31.2z"/>
	<path class="st3" d="M139.5,196.6c4.4,0,8,3.6,8,8v108.3c0,4.4-3.6,8-8,8H31.2c-4.4,0-8-3.6-8-8V204.6c0-4.4,3.6-8,8-8H139.5
		 M139.5,189.6H31.2c-8.3,0-15,6.7-15,15v108.3c0,8.3,6.7,15,15,15h108.3c8.3,0,15-6.7,15-15V204.6
		C154.5,196.3,147.8,189.6,139.5,189.6L139.5,189.6z"/>
</g>
<g>
	<path class="st2" d="M85.3,652.7c-36.2,0-65.7-29.5-65.7-65.7s29.5-65.7,65.7-65.7S151,550.8,151,587S121.5,652.7,85.3,652.7z"/>
	<path class="st3" d="M85.3,524.9c34.3,0,62.2,27.8,62.2,62.2v0c0,34.3-27.8,62.2-62.2,62.2h0c-34.3,0-62.2-27.8-62.2-62.2v0
		C23.2,552.7,51,524.9,85.3,524.9L85.3,524.9 M85.3,517.9c-38.1,0-69.2,31-69.2,69.2c0,38.1,31,69.2,69.2,69.2
		c38.1,0,69.2-31,69.2-69.2C154.5,548.9,123.5,517.9,85.3,517.9L85.3,517.9z"/>
</g>
<path class="st0" d="M85.3,485L85.3,485c-34.3,0-62.2-27.8-62.2-62.2v0c0-34.3,27.8-62.2,62.2-62.2h0c34.3,0,62.2,27.8,62.2,62.2v0
	C147.5,457.2,119.7,485,85.3,485z"/>
<polyline class="st1" points="60.8,424.6 77,446.3 109.8,399.5 "/>
</svg>
