<?xml version="1.0" encoding="utf-8"?>
<!-- Generator: Adobe Illustrator 19.1.0, SVG Export Plug-In . SVG Version: 6.00 Build 0)  -->
<svg version="1.1" id="Layer_1" xmlns="http://www.w3.org/2000/svg" xmlns:xlink="http://www.w3.org/1999/xlink" x="0px" y="0px"
	 viewBox="0 0 316.5 47.4" style="enable-background:new 0 0 316.5 47.4;" xml:space="preserve">
<style type="text/css">
	.st0{fill:#EE3324;}
	.st1{fill:#F26955;}
	.st2{fill:#FFFFFF;}
	.st3{fill:#253B7C;}
</style>
<symbol  id="Planner_Logo" viewBox="-17.2 -15 34.4 30">
	<g>
		<path class="st0" d="M8.3,15H-8.3c-0.2,0-0.4-0.1-0.5-0.3l-8.3-14.4c-0.1-0.2-0.1-0.4,0-0.6l8.3-14.4c0.1-0.2,0.3-0.3,0.5-0.3H8.3
			c0.2,0,0.4,0.1,0.5,0.3l8.3,14.4c0.1,0.2,0.1,0.4,0,0.6L8.8,14.7C8.7,14.9,8.5,15,8.3,15z"/>
		<path class="st1" d="M14.9-0.3L7.7-12.8c-0.1-0.2-0.3-0.3-0.5-0.3H-6.5c-0.5,0-0.8,0.5-0.5,0.9L0,0l7,12.1c0.2,0.4,0.8,0.4,1.1,0
			l6.8-11.8C15,0.1,15-0.1,14.9-0.3z"/>
	</g>
	<g>
		<polygon class="st2" points="2.8,10 9.8,0.2 8,-2.3 1,7.5 		"/>
		<polygon class="st2" points="-5.2,1.6 -7,4.1 -2.7,10 -0.9,7.5 0,6.2 0,6.2 0,6.2 5.3,-1.1 7.1,-3.6 2.8,-9.6 1,-7.1 0,-5.7 
			0,-5.7 0,-5.7 		"/>
		<polygon class="st2" points="-8,2.7 -0.9,-7.1 -2.7,-9.6 -9.8,0.2 		"/>
	</g>
</symbol>
<g>
	<g>
		<path class="st3" d="M69.2,42.3V5.1h17.4c8.1,0,12.5,5.5,12.5,12c0,6.5-4.5,12-12.5,12h-9.5v13.2H69.2z M91,17.1
			c0-3.1-2.3-5-5.5-5h-8.4v10h8.4C88.6,22.1,91,20.2,91,17.1z"/>
		<path class="st3" d="M103.4,42.3V5.1h7.9v30.2H127v7H103.4z"/>
		<path class="st3" d="M159.1,42.3l-2.3-6.3h-15.9l-2.3,6.3h-9l14.4-37.2h9.9l14.3,37.2H159.1z M148.9,13l-5.8,16h11.6L148.9,13z"/>
		<path class="st3" d="M197.3,42.3L179.6,18v24.2h-7.9V5.1h8.1L197,28.5V5.1h7.9v37.2H197.3z"/>
		<path class="st3" d="M238.1,42.3L220.4,18v24.2h-7.9V5.1h8.1l17.2,23.3V5.1h7.9v37.2H238.1z"/>
		<path class="st3" d="M253.4,42.3V5.1h26.3v7h-18.4v7.9h18v7h-18v8.4h18.4v7H253.4z"/>
		<path class="st3" d="M307.5,42.3l-7.3-13.2h-5.8v13.2h-7.9V5.1h17.4c7.7,0,12.5,5.1,12.5,12c0,6.6-4.1,10.1-8.1,11l8.4,14.1H307.5
			z M308.2,17.1c0-3.1-2.4-5-5.6-5h-8.3v10h8.3C305.8,22.1,308.2,20.2,308.2,17.1z"/>
	</g>
	
		<use xlink:href="#Planner_Logo"  width="34.4" height="30" id="XMLID_3_" x="-17.2" y="-15" transform="matrix(1.5803 0 0 -1.5803 27.2086 23.6953)" style="overflow:visible;"/>
</g>
</svg>
