<?xml version="1.0" ?><svg height="512" id="svg2" version="1.1" width="512" xmlns="http://www.w3.org/2000/svg" xmlns:cc="http://creativecommons.org/ns#" xmlns:dc="http://purl.org/dc/elements/1.1/" xmlns:inkscape="http://www.inkscape.org/namespaces/inkscape" xmlns:rdf="http://www.w3.org/1999/02/22-rdf-syntax-ns#" xmlns:sodipodi="http://sodipodi.sourceforge.net/DTD/sodipodi-0.dtd" xmlns:svg="http://www.w3.org/2000/svg"><defs id="defs4"/><g id="layer1" transform="translate(0,-540.36218)"><g id="g4305"><g id="g4345" transform="translate(28,-40.00001)"><path d="m 18,616.36218 0,440.00002 50,0 0,-250.00002 330,0 0,250.00002 40,0 0,-400.00002 -40,-40 -40,0 0,160 -235,0 0,-160 -105,0 z m 235,25 0,115 65,0 0,-115 -65,0 z m -157,189 0,24 240,0 0,-24 -240,0 z m 0,48 0,24 120,0 0,-24 -120,0 z m 0,46 0,24 192,0 0,-24 -192,0 z m 0,48.00001 0,24 144,0 0,-24 -144,0 z" id="path3777" style="fill:#222222;fill-opacity:1;stroke:none"/></g></g></g></svg>