<?xml version="1.0" standalone="no"?>
<!DOCTYPE svg PUBLIC "-//W3C//DTD SVG 20010904//EN"
 "http://www.w3.org/TR/2001/REC-SVG-20010904/DTD/svg10.dtd">
<svg version="1.0" xmlns="http://www.w3.org/2000/svg"
 width="261.000000pt" height="261.000000pt" viewBox="0 0 261.000000 261.000000"
 preserveAspectRatio="xMidYMid meet">
<metadata>
Created by potrace 1.11, written by Peter Selinger 2001-2013
</metadata>
<g transform="translate(0.000000,261.000000) scale(0.100000,-0.100000)"
fill="#000000" stroke="none">
<path d="M10 1310 l0 -1300 1295 0 1295 0 0 1300 0 1300 -1295 0 -1295 0 0
-1300z m950 305 c17 -16 30 -39 30 -53 l0 -23 -26 20 c-61 48 -150 47 -200 0
l-24 -22 0 24 c0 25 39 70 70 83 8 3 39 4 68 2 42 -2 59 -9 82 -31z m-600 -35
c16 -30 -4 -60 -40 -60 -24 0 -31 5 -36 27 -12 46 54 74 76 33z m-220 -55 l0
-35 50 0 c41 0 50 -3 50 -18 0 -28 -21 -42 -62 -42 l-38 0 0 -70 c0 -62 3 -71
24 -85 18 -12 30 -13 50 -6 23 9 26 8 26 -12 0 -34 -19 -47 -68 -47 -87 0
-102 29 -102 193 0 100 2 113 22 134 31 34 48 29 48 -12z m1514 9 c20 -19 20
-29 0 -48 -19 -20 -54 -5 -54 24 0 15 21 37 37 40 1 0 9 -7 17 -16z m-524 -50
c0 -21 4 -24 40 -24 61 0 52 -46 -10 -52 l-35 -3 0 -58 c1 -65 13 -81 58 -73
21 4 27 2 27 -12 0 -28 -21 -42 -62 -42 -62 0 -78 24 -80 123 -3 128 -1 140
22 159 26 21 40 15 40 -18z m-466 -5 c14 -11 26 -29 26 -40 0 -22 -1 -22 -50
-8 -76 23 -130 -13 -130 -85 0 -36 5 -48 27 -66 17 -13 38 -20 57 -18 29 3 31
6 31 41 0 36 1 38 30 35 29 -3 30 -5 33 -54 4 -70 -18 -89 -102 -89 -100 1
-146 47 -146 145 0 68 24 116 69 140 49 26 121 26 155 -1z m256 8 c90 -46 95
-215 8 -263 -13 -8 -46 -13 -74 -14 -43 0 -57 5 -82 28 -66 61 -67 160 -2 224
32 32 44 38 81 38 24 0 55 -6 69 -13z m-576 -13 c12 -12 16 -37 16 -103 0 -90
6 -105 43 -112 16 -4 16 -6 2 -26 -11 -16 -26 -23 -50 -23 -55 0 -65 25 -65
162 0 110 1 118 19 118 11 0 27 -7 35 -16z m1165 -15 c42 -15 61 -55 61 -127
0 -86 -23 -112 -98 -112 -65 0 -102 25 -102 71 0 39 35 68 92 75 50 7 56 12
36 32 -15 15 -84 16 -93 2 -10 -16 -25 -11 -25 8 0 30 37 56 86 61 6 0 25 -4
43 -10z m644 -30 c27 -29 34 -62 19 -87 -10 -16 -66 -32 -110 -32 -40 0 -39
-18 1 -38 21 -10 33 -10 66 2 38 13 41 12 41 -4 0 -72 -140 -75 -187 -4 -23
36 -23 113 1 149 39 59 120 66 169 14z m-793 12 c16 -31 12 -44 -12 -38 -12 3
-30 2 -40 -4 -15 -8 -18 -22 -18 -95 l0 -85 -27 3 -28 3 -3 93 c-3 87 -1 94
22 117 32 32 90 35 106 6z m298 -62 c3 -91 9 -109 33 -109 15 0 20 -5 17 -22
-4 -28 -53 -36 -83 -14 -17 12 -21 28 -24 105 -4 110 0 124 31 112 20 -7 23
-16 26 -72z m233 71 c34 -19 49 -64 49 -150 l0 -81 -27 3 c-27 3 -28 5 -33 79
-6 83 -21 112 -54 107 -30 -4 -46 -45 -46 -121 0 -65 -1 -68 -22 -65 -22 3
-23 8 -26 96 -3 87 -1 94 22 117 20 19 35 25 71 25 26 0 55 -5 66 -10z m447
-23 c3 -25 1 -27 -21 -22 -39 10 -57 -25 -57 -112 0 -66 -2 -73 -19 -73 -28 0
-30 7 -32 104 -1 79 1 89 22 112 19 20 31 24 64 22 35 -3 40 -6 43 -31z m173
23 c10 -6 19 -21 19 -34 0 -22 -2 -23 -40 -12 -27 7 -46 7 -56 1 -27 -17 -20
-29 26 -42 75 -21 98 -67 60 -116 -41 -52 -151 -42 -158 15 -3 26 -3 26 34 13
21 -7 46 -10 55 -6 17 6 19 9 19 30 0 5 -18 12 -41 16 -79 13 -101 65 -50 116
23 23 38 29 71 29 23 0 50 -5 61 -10z m-1638 -388 c-26 -54 -87 -82 -178 -82
-96 1 -146 24 -168 79 -10 23 -17 51 -17 63 0 21 2 20 33 -10 83 -80 222 -82
304 -3 37 35 38 35 41 13 2 -12 -5 -39 -15 -60z"/>
<path d="M816 1418 c-35 -55 -28 -113 17 -143 36 -23 74 -3 88 46 10 31 9 43
-7 76 -15 31 -25 39 -51 41 -24 2 -35 -2 -47 -20z"/>
<path d="M1441 1306 c-9 -11 -8 -18 4 -30 19 -19 21 -19 46 -6 10 6 19 20 19
30 0 15 -7 20 -29 20 -16 0 -34 -6 -40 -14z"/>
<path d="M2042 1398 c-25 -25 -14 -39 31 -36 34 2 42 7 42 23 0 15 -8 21 -30
23 -17 2 -36 -3 -43 -10z"/>
</g>
</svg>
